<svg width="36" height="49" viewBox="0 0 36 49" fill="none" xmlns="http://www.w3.org/2000/svg">
<path d="M1.01562 17.378L5.86267 20.191L35.0876 3.32401L30.2417 0.5L1.01562 17.378Z" fill="#172224"/>
<path d="M0.5 18.295L0.573975 45.6871L5.41003 48.5C5.40203 45.7 5.43706 58.646 5.33606 21.108L0.5 18.295Z" fill="#172224"/>
<path d="M6.39258 21.108C6.49258 58.662 6.45955 45.69 6.46655 48.5L35.6925 31.633L35.6185 4.23303L6.39258 21.108ZM8.53149 39.429L8.47852 22.614C8.47948 22.5208 8.50422 22.4293 8.55042 22.3483C8.59661 22.2673 8.66279 22.1994 8.74255 22.151L32.7526 8.28604C32.8324 8.24005 32.9229 8.2158 33.015 8.21571C33.1072 8.21563 33.1978 8.2397 33.2777 8.28554C33.3576 8.33138 33.4241 8.39737 33.4706 8.47694C33.5171 8.55652 33.5418 8.64688 33.5425 8.73903L33.5956 25.564C33.5948 25.6574 33.5702 25.7489 33.5242 25.8301C33.4782 25.9113 33.4122 25.9794 33.3325 26.028L9.32153 39.893C9.24067 39.9398 9.14886 39.9644 9.05542 39.9642C8.96198 39.964 8.87022 39.9391 8.78955 39.892C8.70888 39.8448 8.64222 39.7771 8.59619 39.6958C8.55016 39.6145 8.5265 39.5225 8.52759 39.429H8.53149ZM34.0215 29.868L13.9735 41.442V42.678C13.9738 42.7473 13.9604 42.8159 13.9341 42.8799C13.9078 42.944 13.8691 43.0022 13.8202 43.0513C13.7713 43.1003 13.7132 43.1392 13.6493 43.1658C13.5853 43.1924 13.5168 43.206 13.4475 43.206C13.3082 43.206 13.1745 43.1508 13.0759 43.0523C12.9773 42.9539 12.9218 42.8204 12.9215 42.681V42.049L10.1985 43.621C10.1385 43.6556 10.0724 43.6781 10.0038 43.6871C9.93516 43.6962 9.86544 43.6916 9.79858 43.6736C9.73173 43.6557 9.66905 43.6248 9.61414 43.5827C9.55923 43.5405 9.51312 43.488 9.47852 43.428C9.44391 43.3681 9.4215 43.3019 9.41248 43.2333C9.40345 43.1646 9.40798 43.0949 9.4259 43.0281C9.44383 42.9612 9.4747 42.8985 9.51685 42.8436C9.55899 42.7887 9.61156 42.7426 9.67151 42.708L12.9175 40.834V39.399C12.9172 39.3297 12.9307 39.2611 12.957 39.197C12.9833 39.1329 13.0219 39.0746 13.0708 39.0255C13.1197 38.9763 13.1777 38.9373 13.2417 38.9106C13.3057 38.884 13.3742 38.8702 13.4435 38.87C13.583 38.8703 13.7168 38.9258 13.8156 39.0243C13.9143 39.1229 13.9701 39.2565 13.9706 39.396V40.227L33.4926 28.956C33.6134 28.8903 33.7551 28.8745 33.8875 28.9118C34.0198 28.9492 34.1323 29.0368 34.2009 29.1559C34.2696 29.2751 34.289 29.4164 34.2549 29.5496C34.2208 29.6828 34.136 29.7975 34.0186 29.869L34.0215 29.868Z" fill="#172224"/>
<path d="M20.755 18.31C19.3249 19.2277 18.1354 20.4747 17.2864 21.9467C16.4373 23.4186 15.9534 25.0725 15.875 26.77C15.885 30.12 18.4049 31.54 21.3149 29.86C22.7351 28.9364 23.9173 27.6907 24.7653 26.2241C25.6132 24.7576 26.1031 23.1116 26.1949 21.42C26.1849 18.07 23.675 16.63 20.755 18.31ZM23.6849 23.15L20.455 27.39C20.3875 27.4776 20.2945 27.542 20.1887 27.5742C20.083 27.6065 19.9698 27.605 19.865 27.57C19.7627 27.5339 19.6737 27.4679 19.6095 27.3805C19.5453 27.2931 19.5089 27.1884 19.505 27.08L19.495 22.33C19.4951 22.2544 19.5112 22.1797 19.5422 22.1107C19.5733 22.0418 19.6185 21.9802 19.675 21.93C19.7334 21.8795 19.8022 21.8426 19.8766 21.8218C19.9509 21.8011 20.0289 21.797 20.105 21.81L23.345 22.31C23.4359 22.3212 23.522 22.3569 23.5942 22.4133C23.6664 22.4696 23.722 22.5445 23.755 22.63C23.7909 22.715 23.8033 22.8081 23.791 22.8995C23.7787 22.991 23.742 23.0775 23.6849 23.15Z" fill="#172224"/>
</svg>
