<svg width="28" height="49" viewBox="0 0 28 49" fill="none" xmlns="http://www.w3.org/2000/svg">
<path d="M27.8592 7.03706L23.0702 9.80106C22.9902 9.84713 22.8995 9.87139 22.8072 9.87138C22.7149 9.87138 22.6242 9.84713 22.5442 9.80106C22.4642 9.75498 22.3977 9.68869 22.3514 9.60884C22.3051 9.52899 22.2805 9.43839 22.2802 9.34607L22.2642 3.70605L5.49219 13.3891L5.59216 48.5001L27.9392 35.6001L27.8592 7.03706ZM7.88519 15.5531L19.5592 8.81406C19.6801 8.7443 19.8238 8.72546 19.9587 8.76166C20.0935 8.79785 20.2084 8.88613 20.2782 9.00706C20.3479 9.128 20.3668 9.2717 20.3306 9.40654C20.2944 9.54138 20.2061 9.65631 20.0852 9.72606L8.41119 16.4661C8.29038 16.5318 8.14865 16.5476 8.0163 16.5103C7.88394 16.473 7.77141 16.3853 7.70276 16.2662C7.63411 16.147 7.61478 16.0057 7.64886 15.8725C7.68295 15.7393 7.76775 15.6246 7.88519 15.5531ZM25.6352 33.4531L8.41119 43.3961C8.28959 43.4658 8.14526 43.4844 8.00995 43.4477C7.87464 43.4111 7.75945 43.3222 7.6897 43.2006C7.61995 43.079 7.60134 42.9346 7.638 42.7993C7.67466 42.664 7.76359 42.5488 7.88519 42.4791L25.1092 32.5361C25.23 32.4704 25.3717 32.4545 25.5041 32.4918C25.6364 32.5292 25.749 32.6168 25.8176 32.7359C25.8863 32.8551 25.9056 32.9964 25.8715 33.1296C25.8374 33.2629 25.7526 33.3775 25.6352 33.4491V33.4531ZM25.6352 28.0671L8.41119 38.0111C8.29026 38.0808 8.14656 38.0997 8.01172 38.0635C7.87688 38.0273 7.76195 37.939 7.6922 37.8181C7.62245 37.6971 7.60358 37.5534 7.63977 37.4186C7.67597 37.2838 7.76425 37.1688 7.88519 37.0991L25.1092 27.1551C25.1691 27.1205 25.2352 27.0981 25.3037 27.0891C25.3723 27.0801 25.4419 27.0847 25.5087 27.1026C25.5754 27.1206 25.638 27.1515 25.6928 27.1936C25.7476 27.2357 25.7936 27.2882 25.8282 27.3481C25.8627 27.408 25.8851 27.474 25.8941 27.5426C25.9031 27.6111 25.8985 27.6808 25.8806 27.7475C25.8627 27.8143 25.8318 27.8769 25.7897 27.9317C25.7476 27.9865 25.6951 28.0325 25.6352 28.0671ZM25.6352 22.6821L8.41119 32.6261C8.29038 32.6918 8.14865 32.7076 8.0163 32.6703C7.88394 32.6329 7.77141 32.5453 7.70276 32.4262C7.63411 32.307 7.61478 32.1657 7.64886 32.0325C7.68295 31.8993 7.76775 31.7846 7.88519 31.7131L25.1092 21.7691C25.23 21.7034 25.3717 21.6875 25.5041 21.7248C25.6364 21.7622 25.749 21.8498 25.8176 21.9689C25.8863 22.0881 25.9056 22.2294 25.8715 22.3626C25.8374 22.4959 25.7526 22.6105 25.6352 22.6821ZM25.6352 17.2961L8.41119 27.2401C8.35131 27.2746 8.28522 27.297 8.21667 27.306C8.14813 27.315 8.07848 27.3104 8.01172 27.2925C7.94495 27.2745 7.8824 27.2437 7.82758 27.2016C7.77275 27.1594 7.72674 27.1069 7.6922 27.0471C7.65766 26.9872 7.63527 26.9211 7.62628 26.8525C7.61729 26.784 7.62185 26.7143 7.63977 26.6476C7.65769 26.5808 7.68861 26.5182 7.73071 26.4634C7.77282 26.4086 7.82531 26.3626 7.88519 26.3281L25.1092 16.3841C25.2301 16.3143 25.3738 16.2955 25.5087 16.3316C25.6435 16.3678 25.7584 16.4561 25.8282 16.5771C25.8979 16.698 25.9168 16.8417 25.8806 16.9765C25.8444 17.1114 25.7561 17.2263 25.6352 17.2961ZM25.6352 11.9121L8.41119 21.8551C8.29038 21.9208 8.14865 21.9366 8.0163 21.8993C7.88394 21.8619 7.77141 21.7743 7.70276 21.6552C7.63411 21.536 7.61478 21.3947 7.64886 21.2615C7.68295 21.1283 7.76775 21.0136 7.88519 20.9421L25.1092 10.9991C25.23 10.9334 25.3717 10.9175 25.5041 10.9548C25.6364 10.9922 25.749 11.0798 25.8176 11.1989C25.8863 11.3181 25.9056 11.4594 25.8715 11.5926C25.8374 11.7259 25.7526 11.8405 25.6352 11.9121Z" fill="#172224"/>
<path d="M17.7935 0.5L1.02148 10.184L4.96552 12.476L21.7385 2.793L17.7935 0.5Z" fill="#172224"/>
<path d="M23.3333 8.42497L27.3473 6.10797L23.3203 3.71997V5.00797L23.3333 8.42497Z" fill="#172224"/>
<path d="M4.44 13.389L0.5 11.099L0.599976 46.205L4.539 48.495L4.44 13.389Z" fill="#172224"/>
</svg>
