<svg width="37" height="49" viewBox="0 0 37 49" fill="none" xmlns="http://www.w3.org/2000/svg">
<path d="M6.85738 20.0976L1.56641 16.9858C0.726735 17.6596 0.172232 18.6317 0.015625 19.7045L5.30557 22.8123C5.55347 21.7749 6.09237 20.8322 6.85738 20.0976Z" fill="#172224"/>
<path d="M7.79581 19.4374L35.1095 3.47252L35.2083 3.42051L30.3503 0.560797C30.1924 0.502392 30.0224 0.485704 29.8564 0.512308C29.6904 0.538911 29.5337 0.607935 29.4014 0.712842L2.58398 16.3697L7.79581 19.4374Z" fill="#172224"/>
<path d="M5.2079 23.9705L0 20.9117L0.0187619 32.0725C0.0237039 32.0915 0.0355933 32.0945 0.0355933 32.1265L0.0553204 43.8604C0.0342835 44.0266 0.054892 44.1955 0.115165 44.3515C0.175439 44.5076 0.273444 44.6459 0.400274 44.7536L5.2672 47.6183C5.2672 47.5923 5.2672 47.5653 5.2672 47.5383L5.2079 23.9705Z" fill="#172224"/>
<path d="M36.9381 5.12796C36.9381 4.17772 36.4093 3.92766 35.6324 4.37977L8.05582 20.4937C7.53298 20.8446 7.09767 21.3133 6.784 21.8631C6.47033 22.4129 6.28686 23.0289 6.24805 23.6625L6.30735 47.5333C6.30735 48.4166 6.78869 48.7646 7.61302 48.2815L35.1896 32.1686C35.7136 31.8182 36.1499 31.3494 36.4641 30.7991C36.7784 30.2488 36.9619 29.6322 37.0003 28.9978L36.9381 5.12796ZM34.7715 29.5079C14.4024 41.4108 21.1097 37.4949 9.04622 44.5396C8.9675 44.5853 8.87833 44.6092 8.7876 44.6091C8.69686 44.609 8.60777 44.5848 8.52915 44.539C8.45054 44.4931 8.38519 44.4272 8.3396 44.3478C8.29402 44.2684 8.26976 44.1783 8.26932 44.0865L8.21105 23.6085C8.21116 23.5162 8.23512 23.4256 8.28054 23.3456C8.32597 23.2655 8.39125 23.1989 8.46997 23.1524L34.1963 8.12869C34.2749 8.08276 34.364 8.05855 34.4548 8.05847C34.5455 8.05839 34.6348 8.08244 34.7134 8.12823C34.7921 8.17402 34.8575 8.23994 34.9031 8.31937C34.9487 8.39879 34.9728 8.48895 34.9732 8.5808L35.0305 29.0598C35.0302 29.1515 35.0061 29.2415 34.9607 29.3209C34.9152 29.4002 34.85 29.4661 34.7715 29.5119V29.5079Z" fill="#172224"/>
<path d="M9.24805 23.9126L9.3024 43.1833L10.6634 42.3881L15.2674 30.9353C15.3013 30.8496 15.3569 30.7744 15.4287 30.7175C15.5005 30.6606 15.586 30.624 15.6763 30.6113C15.7667 30.5986 15.8587 30.6103 15.9431 30.6452C16.0276 30.6802 16.1014 30.7371 16.157 30.8102L19.1815 34.7332L24.8006 20.7548C24.8351 20.6697 24.891 20.5952 24.9628 20.5389C25.0346 20.4825 25.1198 20.4463 25.2098 20.4337C25.3001 20.4205 25.3922 20.4321 25.4765 20.4673C25.5609 20.5025 25.6343 20.56 25.6892 20.6337L32.5754 29.5889L33.9958 28.7587L33.9414 9.48901L9.24805 23.9126ZM17.864 28.1026C17.6179 28.2995 17.3194 28.4175 17.0066 28.4416C16.6938 28.4656 16.3811 28.3946 16.1085 28.2376C15.8359 28.0805 15.6158 27.8447 15.4765 27.5603C15.3372 27.2759 15.2851 26.9558 15.3267 26.6412C15.3579 25.9331 15.5566 25.243 15.9061 24.6287C16.2556 24.0145 16.7456 23.4941 17.3351 23.1113C17.5831 22.9172 17.8826 22.802 18.1954 22.7805C18.5082 22.7589 18.8203 22.8319 19.092 22.9903C19.3637 23.1486 19.5828 23.3851 19.7214 23.6697C19.86 23.9543 19.9119 24.2742 19.8704 24.5887C19.8383 25.2942 19.6394 25.9815 19.2902 26.593C18.9411 27.2045 18.452 27.7222 17.864 28.1026Z" fill="#172224"/>
</svg>
