<svg width="35" height="49" viewBox="0 0 35 49" fill="none" xmlns="http://www.w3.org/2000/svg">
<path d="M12.7285 44.7609L16.3875 47.9039C16.9301 48.2549 17.5557 48.4566 18.2011 48.4886C18.8465 48.5205 19.4889 48.3816 20.0635 48.0859L27.8295 43.5779C27.971 43.5192 28.0955 43.4261 28.1917 43.3069C28.2879 43.1878 28.3528 43.0465 28.3805 42.8959V41.7589L28.3635 41.7699L20.6015 46.2749H20.5955C19.9083 46.6251 19.1483 46.8086 18.377 46.8107C17.6056 46.8128 16.8446 46.6334 16.1555 46.2869C15.7735 46.0529 14.6935 45.0869 13.6725 44.2139L12.7285 44.7609Z" fill="#172224"/>
<path d="M0.0540009 40.6669V45.1279C0.0281684 45.3184 0.0513446 45.5123 0.121338 45.6913C0.191331 45.8703 0.305822 46.0285 0.453995 46.1509L2.45399 47.3119C2.44399 47.1449 2.45399 48.3749 2.42099 33.6739L2.396 22.1399C2.43846 21.2483 2.69306 20.3797 3.13866 19.6063C3.58425 18.8328 4.20796 18.1769 4.95799 17.6929L32.427 1.83493C32.489 1.79893 32.552 1.76593 32.614 1.73493L30.624 0.577931C30.4389 0.506137 30.2385 0.483418 30.0421 0.511978C29.8456 0.540539 29.6599 0.619408 29.503 0.740929L2.037 16.5919C1.44733 16.9841 0.956525 17.5075 0.603104 18.1212C0.249683 18.7349 0.0432539 19.4221 0 20.1289L0.0479889 40.6549C0.0499889 40.6609 0.0540009 40.6599 0.0540009 40.6669Z" fill="#172224"/>
<path d="M16.6669 45.3679C17.1984 45.6271 17.782 45.7619 18.3734 45.7619C18.9647 45.7619 19.5483 45.6271 20.0799 45.3679L27.8399 40.8539C28.7659 40.3159 28.3919 39.6479 27.4989 39.3289L24.2879 38.0839L14.6309 43.6599C16.4469 45.2169 16.7699 45.4529 16.6669 45.3679Z" fill="#172224"/>
<path d="M21.7252 30.205C21.8635 30.2044 21.9959 30.1491 22.0934 30.051C22.1909 29.953 22.2455 29.8202 22.2452 29.682L22.2072 16.436C22.2069 16.2979 22.152 16.1655 22.0543 16.0678C21.9567 15.9702 21.8243 15.9152 21.6862 15.915C21.6171 15.9136 21.5484 15.9262 21.4844 15.9521C21.4203 15.978 21.3621 16.0166 21.3133 16.0655C21.2646 16.1145 21.2262 16.1728 21.2006 16.237C21.1749 16.3012 21.1626 16.3699 21.1642 16.439L21.2022 29.685C21.2027 29.8232 21.2581 29.9556 21.3561 30.0531C21.4542 30.1506 21.5869 30.2052 21.7252 30.205Z" fill="#172224"/>
<path d="M24.4005 26.3719C24.469 26.3718 24.5368 26.3582 24.6001 26.3318C24.6633 26.3054 24.7207 26.2668 24.769 26.2183C24.8173 26.1697 24.8555 26.1121 24.8815 26.0487C24.9075 25.9853 24.9208 25.9174 24.9205 25.8489L24.8965 17.1619C24.8963 17.0237 24.8411 16.8911 24.7433 16.7935C24.6454 16.6958 24.5128 16.6409 24.3745 16.6409C24.236 16.6415 24.1033 16.6969 24.0056 16.7952C23.908 16.8934 23.8533 17.0264 23.8535 17.1649L23.8785 25.8519C23.8786 25.9203 23.8923 25.9881 23.9186 26.0512C23.9449 26.1144 23.9833 26.1718 24.0318 26.22C24.0803 26.2683 24.1378 26.3066 24.2011 26.3327C24.2643 26.3587 24.3321 26.3721 24.4005 26.3719Z" fill="#172224"/>
<path d="M27.0106 22.5979C27.0791 22.5978 27.147 22.5842 27.2103 22.5578C27.2735 22.5315 27.331 22.4929 27.3794 22.4443C27.4278 22.3958 27.4661 22.3381 27.4922 22.2748C27.5183 22.2114 27.5317 22.1435 27.5316 22.0749L27.5196 17.9139C27.5188 17.7759 27.4635 17.6438 27.3657 17.5464C27.2679 17.449 27.1356 17.3942 26.9976 17.3939C26.929 17.3941 26.8612 17.4077 26.7979 17.434C26.7346 17.4604 26.6771 17.499 26.6288 17.5475C26.5804 17.5961 26.542 17.6537 26.5159 17.7171C26.4898 17.7805 26.4764 17.8484 26.4766 17.9169L26.4886 22.0779C26.4891 22.216 26.5443 22.3483 26.6422 22.4457C26.74 22.5432 26.8725 22.5979 27.0106 22.5979Z" fill="#172224"/>
<path d="M13.657 32.8789C13.7255 32.8787 13.7934 32.8649 13.8566 32.8384C13.9198 32.812 13.9772 32.7733 14.0255 32.7246C14.0738 32.676 14.112 32.6183 14.138 32.5549C14.164 32.4914 14.1772 32.4235 14.177 32.3549L14.151 23.0709C14.1508 23.0025 14.1372 22.9348 14.1109 22.8716C14.0846 22.8085 14.0461 22.7511 13.9977 22.7028C13.9492 22.6545 13.8917 22.6163 13.8284 22.5902C13.7652 22.5642 13.6974 22.5508 13.629 22.5509C13.5596 22.5479 13.4903 22.5594 13.4256 22.5847C13.3609 22.6099 13.3022 22.6484 13.2532 22.6976C13.2042 22.7468 13.1659 22.8057 13.1409 22.8705C13.1159 22.9353 13.1047 23.0046 13.108 23.0739L13.134 32.3589C13.1345 32.4972 13.1899 32.6296 13.2879 32.7271C13.386 32.8246 13.5187 32.8792 13.657 32.8789Z" fill="#172224"/>
<path d="M16.2957 28.7839C16.434 28.7834 16.5664 28.728 16.6639 28.63C16.7614 28.5319 16.816 28.3992 16.8157 28.2609L16.8037 24.1009C16.8032 23.9628 16.748 23.8306 16.6501 23.7331C16.5523 23.6356 16.4198 23.5809 16.2817 23.5809C16.1434 23.5815 16.011 23.6368 15.9135 23.7349C15.8161 23.8329 15.7615 23.9657 15.7617 24.1039L15.7727 28.2639C15.7733 28.4022 15.8286 28.5346 15.9267 28.6321C16.0247 28.7296 16.1574 28.7842 16.2957 28.7839Z" fill="#172224"/>
<path d="M10.9882 32.247C11.1264 32.2464 11.2588 32.1911 11.3563 32.093C11.4538 31.995 11.5084 31.8622 11.5082 31.724L11.4942 26.777C11.4936 26.6389 11.4384 26.5066 11.3406 26.4091C11.2427 26.3117 11.1103 26.257 10.9722 26.257C10.8373 26.2684 10.7109 26.3274 10.6155 26.4233C10.5201 26.5193 10.4618 26.646 10.4512 26.781L10.4652 31.727C10.4653 31.7955 10.4789 31.8633 10.5053 31.9265C10.5317 31.9897 10.5703 32.0471 10.6188 32.0954C10.6674 32.1437 10.725 32.182 10.7884 32.208C10.8518 32.234 10.9197 32.2472 10.9882 32.247Z" fill="#172224"/>
<path d="M19.0362 29.598C19.1047 29.5978 19.1725 29.5842 19.2358 29.5578C19.299 29.5314 19.3564 29.4929 19.4047 29.4443C19.453 29.3957 19.4912 29.3381 19.5172 29.2747C19.5432 29.2113 19.5565 29.1435 19.5562 29.075L19.5312 20.1469C19.531 20.0089 19.476 19.8767 19.3783 19.7792C19.2806 19.6817 19.1482 19.627 19.0102 19.627C18.9417 19.6271 18.8739 19.6407 18.8107 19.6671C18.7475 19.6935 18.6901 19.732 18.6418 19.7806C18.5935 19.8292 18.5552 19.8868 18.5292 19.9502C18.5032 20.0136 18.49 20.0815 18.4902 20.15L18.5152 29.0779C18.5155 29.216 18.5705 29.3482 18.6682 29.4457C18.7659 29.5432 18.8982 29.598 19.0362 29.598Z" fill="#172224"/>
<path d="M3.44922 22.1339L3.47223 33.6919L3.50122 47.1269C3.50122 48.1989 4.12623 48.5269 5.03723 47.9969C14.3752 42.5639 20.0182 39.3259 32.4972 32.1429C33.0875 31.7516 33.5789 31.2287 33.9329 30.6153C34.2868 30.0019 34.4937 29.3148 34.5372 28.6079L34.4822 3.61793C34.4822 2.50293 33.8082 2.24393 32.9472 2.74193L5.48923 18.5979C4.89897 18.9895 4.40754 19.5126 4.05357 20.1261C3.69961 20.7397 3.49273 21.4269 3.44922 22.1339ZM20.0692 37.9479L18.4922 38.8589C18.433 38.9002 18.3658 38.9287 18.295 38.9427C18.2242 38.9567 18.1513 38.9558 18.0808 38.9402C18.0103 38.9245 17.9438 38.8945 17.8856 38.8518C17.8273 38.8092 17.7786 38.7549 17.7423 38.6925C17.7061 38.63 17.6833 38.5608 17.6752 38.489C17.6671 38.4173 17.674 38.3447 17.6954 38.2757C17.7168 38.2068 17.7523 38.143 17.7996 38.0885C17.8469 38.034 17.905 37.9899 17.9702 37.9589L19.5482 37.0479C19.6665 36.9928 19.8011 36.9839 19.9255 37.0231C20.05 37.0622 20.1552 37.1466 20.2206 37.2595C20.286 37.3724 20.3067 37.5057 20.2787 37.6331C20.2506 37.7606 20.1759 37.8729 20.0692 37.9479ZM31.8692 5.48393C31.9485 5.43852 32.0382 5.41466 32.1296 5.41472C32.2209 5.41478 32.3106 5.43876 32.3898 5.48427C32.469 5.52978 32.5349 5.59524 32.581 5.67413C32.627 5.75302 32.6516 5.84259 32.6522 5.93393L32.7062 27.6529C32.7065 27.7447 32.6825 27.835 32.6367 27.9145C32.5908 27.9941 32.5248 28.0601 32.4452 28.1059L6.11322 43.3109C6.03397 43.3565 5.94416 43.3804 5.85277 43.3803C5.76137 43.3802 5.67161 43.3561 5.59244 43.3105C5.51327 43.2648 5.44747 43.1992 5.40163 43.1201C5.35579 43.041 5.33151 42.9513 5.33122 42.8599L5.27623 21.1419C5.27589 21.05 5.29984 20.9596 5.34567 20.8798C5.3915 20.8001 5.45759 20.7339 5.53723 20.6879L31.8692 5.48393Z" fill="#172224"/>
</svg>
