<svg width="42" height="44" viewBox="0 0 42 44" fill="none" xmlns="http://www.w3.org/2000/svg">
<path d="M22.3887 23.1817L24.4727 21.9627V20.3777L22.3887 21.5777V23.1817Z" fill="#172224"/>
<path d="M23.955 19.4717L15.294 14.4377L13.209 15.6377L21.87 20.6717L23.955 19.4717Z" fill="#172224"/>
<path d="M27.92 17.1817L25.073 15.5277L26.929 7.52771L27.196 7.6967C27.1703 7.50608 27.1566 7.31404 27.155 7.12171C27.2052 5.88481 27.5507 4.67789 28.1625 3.60175C28.7743 2.5256 29.6348 1.61147 30.672 0.935701C30.9142 0.802287 31.1648 0.684386 31.422 0.582704L30.693 0.122713C30.3949 0.010045 30.0732 -0.025838 29.7576 0.0183734C29.442 0.0625847 29.1426 0.185461 28.887 0.375704C28.013 0.963074 27.2873 1.74516 26.7667 2.66046C26.2462 3.57577 25.945 4.59934 25.887 5.65071C25.8841 5.99045 25.9441 6.32779 26.064 6.64571L24.134 14.9807L19.258 12.1497L16.334 13.8377L24.996 18.8717L27.92 17.1817Z" fill="#172224"/>
<path d="M28.1992 7.1107C28.2132 8.6957 29.1992 9.4417 30.7442 8.5377C31.6192 7.95028 32.3457 7.16751 32.8664 6.25119C33.387 5.33487 33.6875 4.31008 33.7442 3.2577C33.7272 1.5007 32.5922 1.01771 31.2012 1.83571C30.3293 2.42532 29.6049 3.20788 29.0843 4.12268C28.5637 5.03748 28.2608 6.05993 28.1992 7.1107Z" fill="#172224"/>
<path d="M3.19009 37.9497C3.87796 36.8819 4.87392 36.0481 6.0461 35.5587L5.3171 35.0987C5.01892 34.9862 4.69721 34.9505 4.38162 34.9948C4.06602 35.0392 3.76667 35.1623 3.5111 35.3527C2.63707 35.94 1.91121 36.722 1.39065 37.6374C0.870084 38.5527 0.569008 39.5763 0.511101 40.6277C0.476162 40.9446 0.524024 41.2652 0.650048 41.5581C0.776072 41.851 0.975941 42.1062 1.2301 42.2987L1.82308 42.6727C1.79651 42.4818 1.78249 42.2894 1.78109 42.0967C1.82707 40.6049 2.31772 39.1608 3.19009 37.9497Z" fill="#172224"/>
<path d="M38.5816 28.0097C38.8168 27.8713 39.065 27.7561 39.3226 27.6657L38.6026 27.1957C38.4225 27.1009 38.221 27.0544 38.0176 27.0607C37.582 27.0802 37.1601 27.2185 36.7976 27.4607C36.1166 27.8815 35.5319 28.441 35.0816 29.1027L28.4696 25.5587L28.4466 18.0897L25.5206 19.7787V22.2657C25.5205 22.3567 25.4967 22.4461 25.4514 22.525C25.4062 22.604 25.3411 22.6697 25.2626 22.7157L22.1356 24.5447C22.0564 24.5913 21.9663 24.616 21.8744 24.6165C21.7826 24.617 21.6922 24.5932 21.6125 24.5475C21.5328 24.5019 21.4666 24.4359 21.4206 24.3564C21.3746 24.2768 21.3504 24.1866 21.3506 24.0947V22.1867L18.3926 23.8947L18.4256 34.4437L28.4796 28.6437L28.4736 26.8697L34.5276 30.0027L34.5226 30.0117C34.0658 30.8483 33.8155 31.7819 33.7926 32.7347C33.7562 33.0532 33.8035 33.3756 33.9298 33.6702C34.056 33.9648 34.2569 34.2214 34.5126 34.4147L35.0966 34.7797C35.0756 34.6027 35.0656 34.4047 35.0546 34.2057C35.1058 32.9665 35.4527 31.7576 36.0663 30.6797C36.6798 29.6019 37.5422 28.6864 38.5816 28.0097Z" fill="#172224"/>
<path d="M39.0996 28.9177C38.2306 29.5092 37.5085 30.2917 36.9885 31.2053C36.4685 32.119 36.1644 33.1395 36.0996 34.1887C36.1146 35.7577 37.0746 36.5367 38.6456 35.6157C39.5206 35.0283 40.2471 34.2455 40.7678 33.3292C41.2884 32.4129 41.5889 31.3881 41.6456 30.3357C41.6276 28.6097 40.5316 28.0667 39.0996 28.9177Z" fill="#172224"/>
<path d="M12.1651 16.2437L9.20312 17.9537L17.8651 22.9877L20.8261 21.2777L12.1651 16.2437Z" fill="#172224"/>
<path d="M8.74332 18.8927L8.75632 18.8997L8.70932 18.8727L8.72031 18.8787L8.6983 18.8667L8.68433 18.8587L8.71732 29.4027L12.7243 31.7307L7.49231 36.5147C6.59231 36.1597 5.37231 36.9987 4.65631 37.7787C3.55635 38.9547 2.90624 40.4808 2.82031 42.0887C2.83731 43.7267 3.84931 44.4037 5.36731 43.5167C6.24245 42.9292 6.96904 42.1463 7.48969 41.2298C8.01033 40.3132 8.31077 39.2883 8.36731 38.2357C8.36914 37.9111 8.31326 37.5888 8.2023 37.2837L13.6723 32.2837L17.3773 34.4367L17.3443 23.8937L8.74332 18.8927Z" fill="#172224"/>
</svg>
