<svg width="206" height="79" viewBox="0 0 206 79" fill="none" xmlns="http://www.w3.org/2000/svg">
<mask id="path-1-outside-1_3573_1365" maskUnits="userSpaceOnUse" x="-2" y="-1.70947" width="210" height="83" fill="black">
<rect fill="white" x="-2" y="-1.70947" width="210" height="83"/>
<path d="M45.7 2.29052V77.2905H22.7V10.5905L33.2 20.2905L0.5 25.9905V8.19052L28.7 2.29052H45.7ZM99.4133 78.9905C90.7466 78.9905 83.18 77.3572 76.7133 74.0905C70.3133 70.8239 65.3466 66.2572 61.8133 60.3905C58.2799 54.5239 56.5133 47.6572 56.5133 39.7905C56.5133 31.9239 58.2799 25.0572 61.8133 19.1905C65.3466 13.3239 70.3133 8.75719 76.7133 5.49052C83.18 2.22386 90.7466 0.590525 99.4133 0.590525C108.013 0.590525 115.513 2.22386 121.913 5.49052C128.38 8.75719 133.38 13.3239 136.913 19.1905C140.513 25.0572 142.313 31.9239 142.313 39.7905C142.313 47.6572 140.513 54.5239 136.913 60.3905C133.38 66.2572 128.38 70.8239 121.913 74.0905C115.513 77.3572 108.013 78.9905 99.4133 78.9905ZM99.4133 60.1905C105.68 60.1905 110.513 58.4239 113.913 54.8905C117.38 51.2905 119.113 46.2572 119.113 39.7905C119.113 33.2572 117.38 28.2239 113.913 24.6905C110.513 21.1572 105.68 19.3905 99.4133 19.3905C93.2133 19.3905 88.3466 21.1572 84.8133 24.6905C81.3466 28.2239 79.6133 33.2572 79.6133 39.7905C79.6133 46.2572 81.3466 51.2905 84.8133 54.8905C88.3466 58.4239 93.2133 60.1905 99.4133 60.1905ZM168.87 69.8905V13.8905H185.27V69.8905H168.87ZM149.07 50.0905V33.6905H205.07V50.0905H149.07Z"/>
</mask>
<path d="M45.7 2.29052H47.7V0.290522H45.7V2.29052ZM45.7 77.2905V79.2905H47.7V77.2905H45.7ZM22.7 77.2905H20.7V79.2905H22.7V77.2905ZM22.7 10.5905L24.0571 9.12145L20.7 6.02009V10.5905H22.7ZM33.2 20.2905L33.5434 22.2608L37.5283 21.5662L34.5571 18.8215L33.2 20.2905ZM0.5 25.9905H-1.5V28.3693L0.843445 27.9608L0.5 25.9905ZM0.5 8.19052L0.0904284 6.23291L-1.5 6.56566V8.19052H0.5ZM28.7 2.29052V0.290522H28.493L28.2904 0.332909L28.7 2.29052ZM43.7 2.29052V77.2905H47.7V2.29052H43.7ZM45.7 75.2905H22.7V79.2905H45.7V75.2905ZM24.7 77.2905V10.5905H20.7V77.2905H24.7ZM21.3429 12.0596L31.8429 21.7596L34.5571 18.8215L24.0571 9.12145L21.3429 12.0596ZM32.8566 18.3202L0.156555 24.0202L0.843445 27.9608L33.5434 22.2608L32.8566 18.3202ZM2.5 25.9905V8.19052H-1.5V25.9905H2.5ZM0.909572 10.1481L29.1096 4.24813L28.2904 0.332909L0.0904284 6.23291L0.909572 10.1481ZM28.7 4.29052H45.7V0.290522H28.7V4.29052ZM76.7133 74.0905L75.804 75.8719L75.8115 75.8757L76.7133 74.0905ZM61.8133 60.3905L63.5266 59.3587L61.8133 60.3905ZM61.8133 19.1905L63.5266 20.2224L61.8133 19.1905ZM76.7133 5.49052L75.8115 3.70535L75.804 3.70915L76.7133 5.49052ZM121.913 5.49052L121.004 7.27191L121.012 7.27568L121.913 5.49052ZM136.913 19.1905L135.2 20.2224L135.204 20.2295L135.209 20.2366L136.913 19.1905ZM136.913 60.3905L135.209 59.3445L135.204 59.3516L135.2 59.3587L136.913 60.3905ZM121.913 74.0905L121.011 72.3054L121.004 72.3092L121.913 74.0905ZM113.913 54.8905L112.473 53.5032L112.472 53.5038L113.913 54.8905ZM113.913 24.6905L112.472 26.0773L112.479 26.0843L112.486 26.0912L113.913 24.6905ZM84.8133 24.6905L83.3991 23.2763L83.3923 23.283L83.3857 23.2898L84.8133 24.6905ZM84.8133 54.8905L83.3726 56.2778L83.3857 56.2914L83.3991 56.3047L84.8133 54.8905ZM99.4133 76.9905C90.9989 76.9905 83.7524 75.4057 77.6151 72.3054L75.8115 75.8757C82.6075 79.3087 90.4943 80.9905 99.4133 80.9905V76.9905ZM77.6225 72.3092C71.5381 69.2036 66.8574 64.8892 63.5266 59.3587L60.1 61.4224C63.8358 67.6252 69.0884 72.4441 75.804 75.8719L77.6225 72.3092ZM63.5266 59.3587C60.2073 53.8475 58.5133 47.3486 58.5133 39.7905H54.5133C54.5133 47.9658 56.3526 55.2002 60.1 61.4224L63.5266 59.3587ZM58.5133 39.7905C58.5133 32.2324 60.2073 25.7336 63.5266 20.2224L60.1 18.1587C56.3526 24.3808 54.5133 31.6153 54.5133 39.7905H58.5133ZM63.5266 20.2224C66.8574 14.6918 71.5381 10.3775 77.6225 7.27189L75.804 3.70915C69.0884 7.13691 63.8358 11.9559 60.1 18.1587L63.5266 20.2224ZM77.6151 7.27568C83.7524 4.1754 90.9989 2.59052 99.4133 2.59052V-1.40947C90.4943 -1.40947 82.6075 0.272317 75.8115 3.70536L77.6151 7.27568ZM99.4133 2.59052C107.759 2.59052 114.936 4.17459 121.004 7.27189L122.823 3.70915C116.091 0.273126 108.268 -1.40947 99.4133 -1.40947V2.59052ZM121.012 7.27568C127.163 10.3829 131.872 14.6972 135.2 20.2224L138.627 18.1587C134.888 11.9505 129.597 7.13148 122.815 3.70536L121.012 7.27568ZM135.209 20.2366C138.589 25.7455 140.313 32.2392 140.313 39.7905H144.313C144.313 31.6085 142.437 24.3689 138.618 18.1445L135.209 20.2366ZM140.313 39.7905C140.313 47.3418 138.589 53.8355 135.209 59.3445L138.618 61.4366C142.437 55.2122 144.313 47.9725 144.313 39.7905H140.313ZM135.2 59.3587C131.872 64.8839 127.163 69.1982 121.012 72.3054L122.815 75.8757C129.597 72.4496 134.888 67.6305 138.627 61.4224L135.2 59.3587ZM121.004 72.3092C114.936 75.4065 107.759 76.9905 99.4133 76.9905V80.9905C108.268 80.9905 116.091 79.3079 122.823 75.8719L121.004 72.3092ZM99.4133 62.1905C106.064 62.1905 111.48 60.3041 115.354 56.2773L112.472 53.5038C109.547 56.5436 105.296 58.1905 99.4133 58.1905V62.1905ZM115.354 56.2778C119.276 52.2051 121.113 46.6167 121.113 39.7905H117.113C117.113 45.8977 115.484 50.3759 112.473 53.5032L115.354 56.2778ZM121.113 39.7905C121.113 32.9066 119.28 27.3048 115.341 23.2898L112.486 26.0912C115.48 29.1429 117.113 33.6078 117.113 39.7905H121.113ZM115.354 23.3038C111.48 19.2769 106.064 17.3905 99.4133 17.3905V21.3905C105.296 21.3905 109.547 23.0375 112.472 26.0773L115.354 23.3038ZM99.4133 17.3905C92.8181 17.3905 87.3933 19.282 83.3991 23.2763L86.2275 26.1047C89.2999 23.0324 93.6085 21.3905 99.4133 21.3905V17.3905ZM83.3857 23.2898C79.4465 27.3048 77.6133 32.9066 77.6133 39.7905H81.6133C81.6133 33.6078 83.2468 29.1429 86.2409 26.0912L83.3857 23.2898ZM77.6133 39.7905C77.6133 46.6167 79.4508 52.2051 83.3726 56.2778L86.2539 53.5032C83.2424 50.3759 81.6133 45.8977 81.6133 39.7905H77.6133ZM83.3991 56.3047C87.3933 60.299 92.8181 62.1905 99.4133 62.1905V58.1905C93.6085 58.1905 89.2999 56.5487 86.2275 53.4763L83.3991 56.3047ZM168.87 69.8905H166.87V71.8905H168.87V69.8905ZM168.87 13.8905V11.8905H166.87V13.8905H168.87ZM185.27 13.8905H187.27V11.8905H185.27V13.8905ZM185.27 69.8905V71.8905H187.27V69.8905H185.27ZM149.07 50.0905H147.07V52.0905H149.07V50.0905ZM149.07 33.6905V31.6905H147.07V33.6905H149.07ZM205.07 33.6905H207.07V31.6905H205.07V33.6905ZM205.07 50.0905V52.0905H207.07V50.0905H205.07ZM170.87 69.8905V13.8905H166.87V69.8905H170.87ZM168.87 15.8905H185.27V11.8905H168.87V15.8905ZM183.27 13.8905V69.8905H187.27V13.8905H183.27ZM185.27 67.8905H168.87V71.8905H185.27V67.8905ZM151.07 50.0905V33.6905H147.07V50.0905H151.07ZM149.07 35.6905H205.07V31.6905H149.07V35.6905ZM203.07 33.6905V50.0905H207.07V33.6905H203.07ZM205.07 48.0905H149.07V52.0905H205.07V48.0905Z" fill="#172224" mask="url(#path-1-outside-1_3573_1365)"/>
</svg>
