<svg width="197" height="78" viewBox="0 0 197 78" fill="none" xmlns="http://www.w3.org/2000/svg">
<mask id="path-1-outside-1_3573_1362" maskUnits="userSpaceOnUse" x="-2" y="-1.70947" width="201" height="81" fill="black">
<rect fill="white" x="-2" y="-1.70947" width="201" height="81"/>
<path d="M45.7 2.29052V77.2905H22.7V10.5905L33.2 20.2905L0.5 25.9905V8.19052L28.7 2.29052H45.7ZM55.7133 29.6905C56.1799 23.6905 58.1799 18.5239 61.7133 14.1905C65.3133 9.79052 70.0799 6.42386 76.0133 4.09052C81.9466 1.75719 88.6133 0.590525 96.0133 0.590525C103.08 0.590525 109.247 1.65719 114.513 3.79053C119.847 5.92386 123.98 8.89053 126.913 12.6905C129.847 16.4239 131.313 20.7905 131.313 25.7905C131.313 29.7239 130.213 33.3572 128.013 36.6905C125.88 40.0239 122.547 43.2905 118.013 46.4905C113.48 49.6239 107.58 52.8239 100.313 56.0905L81.2133 64.8905L80.7133 59.0905H133.313V77.2905H57.6133V61.2905L89.9133 43.5905C94.7799 40.9239 98.5133 38.7239 101.113 36.9905C103.713 35.1905 105.547 33.5572 106.613 32.0905C107.68 30.5572 108.213 28.9239 108.213 27.1905C108.213 25.3905 107.713 23.8239 106.713 22.4905C105.713 21.1572 104.213 20.1239 102.213 19.3905C100.28 18.6572 97.9133 18.2905 95.1133 18.2905C91.4466 18.2905 88.4466 18.8239 86.1133 19.8905C83.8466 20.8905 82.1133 22.2572 80.9133 23.9905C79.7799 25.7239 79.0799 27.6239 78.8133 29.6905H55.7133ZM160.374 69.8905V13.8905H176.774V69.8905H160.374ZM140.574 50.0905V33.6905H196.574V50.0905H140.574Z"/>
</mask>
<path d="M45.7 2.29052H47.7V0.290522H45.7V2.29052ZM45.7 77.2905V79.2905H47.7V77.2905H45.7ZM22.7 77.2905H20.7V79.2905H22.7V77.2905ZM22.7 10.5905L24.0571 9.12145L20.7 6.02009V10.5905H22.7ZM33.2 20.2905L33.5434 22.2608L37.5283 21.5662L34.5571 18.8215L33.2 20.2905ZM0.5 25.9905H-1.5V28.3693L0.843445 27.9608L0.5 25.9905ZM0.5 8.19052L0.0904284 6.23291L-1.5 6.56566V8.19052H0.5ZM28.7 2.29052V0.290522H28.493L28.2904 0.332909L28.7 2.29052ZM43.7 2.29052V77.2905H47.7V2.29052H43.7ZM45.7 75.2905H22.7V79.2905H45.7V75.2905ZM24.7 77.2905V10.5905H20.7V77.2905H24.7ZM21.3429 12.0596L31.8429 21.7596L34.5571 18.8215L24.0571 9.12145L21.3429 12.0596ZM32.8566 18.3202L0.156555 24.0202L0.843445 27.9608L33.5434 22.2608L32.8566 18.3202ZM2.5 25.9905V8.19052H-1.5V25.9905H2.5ZM0.909572 10.1481L29.1096 4.24813L28.2904 0.332909L0.0904284 6.23291L0.909572 10.1481ZM28.7 4.29052H45.7V0.290522H28.7V4.29052ZM55.7133 29.6905L53.7193 29.5354L53.5517 31.6905H55.7133V29.6905ZM61.7133 14.1905L60.1654 12.924L60.1632 12.9266L61.7133 14.1905ZM76.0133 4.09052L75.2813 2.22927L76.0133 4.09052ZM114.513 3.79053L113.762 5.64424L113.771 5.64748L114.513 3.79053ZM126.913 12.6905L125.33 13.9126L125.335 13.9194L125.341 13.9262L126.913 12.6905ZM128.013 36.6905L126.344 35.5888L126.336 35.6006L126.329 35.6124L128.013 36.6905ZM118.013 46.4905L119.15 48.1358L119.159 48.1302L119.167 48.1245L118.013 46.4905ZM100.313 56.0905L99.4932 54.2664L99.4848 54.2702L99.4764 54.274L100.313 56.0905ZM81.2133 64.8905L79.2207 65.0623L79.4651 67.898L82.0502 66.707L81.2133 64.8905ZM80.7133 59.0905V57.0905H78.5335L78.7207 59.2623L80.7133 59.0905ZM133.313 59.0905H135.313V57.0905H133.313V59.0905ZM133.313 77.2905V79.2905H135.313V77.2905H133.313ZM57.6133 77.2905H55.6133V79.2905H57.6133V77.2905ZM57.6133 61.2905L56.6522 59.5366L55.6133 60.1059V61.2905H57.6133ZM89.9133 43.5905L88.9522 41.8366L88.9522 41.8366L89.9133 43.5905ZM101.113 36.9905L102.223 38.6546L102.237 38.6449L102.252 38.6349L101.113 36.9905ZM106.613 32.0905L108.231 33.2669L108.243 33.2499L108.255 33.2327L106.613 32.0905ZM106.713 22.4905L105.113 23.6905L106.713 22.4905ZM102.213 19.3905L101.504 21.2605L101.514 21.2645L101.525 21.2683L102.213 19.3905ZM86.1133 19.8905L86.9206 21.7204L86.9327 21.715L86.9448 21.7095L86.1133 19.8905ZM80.9133 23.9905L79.2689 22.8521L79.2538 22.8739L79.2393 22.896L80.9133 23.9905ZM78.8133 29.6905V31.6905H80.5718L80.7968 29.9465L78.8133 29.6905ZM57.7073 29.8456C58.1449 24.2192 60.0074 19.4475 63.2633 15.4544L60.1632 12.9266C56.3525 17.6002 54.215 23.1619 53.7193 29.5354L57.7073 29.8456ZM63.2612 15.457C66.6192 11.3527 71.0909 8.1754 76.7452 5.95177L75.2813 2.22927C69.069 4.67232 64.0073 8.22832 60.1654 12.924L63.2612 15.457ZM76.7452 5.95177C82.4111 3.7236 88.8241 2.59052 96.0133 2.59052V-1.40947C88.4024 -1.40947 81.4821 -0.209222 75.2813 2.22927L76.7452 5.95177ZM96.0133 2.59052C102.883 2.59052 108.785 3.62792 113.762 5.64423L115.264 1.93683C109.709 -0.313536 103.277 -1.40947 96.0133 -1.40947V2.59052ZM113.771 5.64748C118.837 7.67427 122.655 10.4466 125.33 13.9126L128.496 11.4684C125.305 7.33448 120.856 4.17344 115.256 1.93357L113.771 5.64748ZM125.341 13.9262C127.982 17.2875 129.313 21.2131 129.313 25.7905H133.313C133.313 20.368 131.712 15.5602 128.486 11.4549L125.341 13.9262ZM129.313 25.7905C129.313 29.3258 128.332 32.5771 126.344 35.5888L129.682 37.7922C132.095 34.1373 133.313 30.1219 133.313 25.7905H129.313ZM126.329 35.6124C124.379 38.6591 121.261 41.7501 116.86 44.8566L119.167 48.1245C123.832 44.8309 127.381 41.3886 129.698 37.7686L126.329 35.6124ZM116.876 44.8453C112.476 47.8864 106.693 51.0296 99.4932 54.2664L101.133 57.9147C108.467 54.6181 114.484 51.3613 119.15 48.1358L116.876 44.8453ZM99.4764 54.274L80.3764 63.0741L82.0502 66.707L101.15 57.907L99.4764 54.274ZM83.2059 64.7188L82.7059 58.9187L78.7207 59.2623L79.2207 65.0623L83.2059 64.7188ZM80.7133 61.0905H133.313V57.0905H80.7133V61.0905ZM131.313 59.0905V77.2905H135.313V59.0905H131.313ZM133.313 75.2905H57.6133V79.2905H133.313V75.2905ZM59.6133 77.2905V61.2905H55.6133V77.2905H59.6133ZM58.5744 63.0444L90.8744 45.3444L88.9522 41.8366L56.6522 59.5366L58.5744 63.0444ZM90.8744 45.3445C95.7594 42.6678 99.5514 40.4355 102.223 38.6546L100.004 35.3264C97.4752 37.0122 93.8005 39.18 88.9522 41.8366L90.8744 45.3445ZM102.252 38.6349C104.92 36.7873 106.969 35.0023 108.231 33.2669L104.996 30.9142C104.125 32.112 102.506 33.5937 99.9749 35.3461L102.252 38.6349ZM108.255 33.2327C109.536 31.3915 110.213 29.3643 110.213 27.1905H106.213C106.213 28.4834 105.824 29.7229 104.971 30.9484L108.255 33.2327ZM110.213 27.1905C110.213 24.9945 109.594 22.9983 108.313 21.2905L105.113 23.6905C105.832 24.6494 106.213 25.7865 106.213 27.1905H110.213ZM108.313 21.2905C107.025 19.5724 105.165 18.3425 102.902 17.5128L101.525 21.2683C103.262 21.9052 104.402 22.7419 105.113 23.6905L108.313 21.2905ZM102.923 17.5205C100.698 16.6767 98.0753 16.2905 95.1133 16.2905V20.2905C97.7513 20.2905 99.8619 20.6376 101.504 21.2605L102.923 17.5205ZM95.1133 16.2905C91.2738 16.2905 87.9631 16.8458 85.2818 18.0716L86.9448 21.7095C88.9302 20.8019 91.6194 20.2905 95.1133 20.2905V16.2905ZM85.306 18.0607C82.7618 19.1832 80.7132 20.7659 79.2689 22.8521L82.5577 25.1289C83.5134 23.7485 84.9315 22.5979 86.9206 21.7204L85.306 18.0607ZM79.2393 22.896C77.9398 24.8836 77.1348 27.0705 76.8297 29.4346L80.7968 29.9465C81.0251 28.1772 81.6201 26.5642 82.5872 25.085L79.2393 22.896ZM78.8133 27.6905H55.7133V31.6905H78.8133V27.6905ZM160.374 69.8905H158.374V71.8905H160.374V69.8905ZM160.374 13.8905V11.8905H158.374V13.8905H160.374ZM176.774 13.8905H178.774V11.8905H176.774V13.8905ZM176.774 69.8905V71.8905H178.774V69.8905H176.774ZM140.574 50.0905H138.574V52.0905H140.574V50.0905ZM140.574 33.6905V31.6905H138.574V33.6905H140.574ZM196.574 33.6905H198.574V31.6905H196.574V33.6905ZM196.574 50.0905V52.0905H198.574V50.0905H196.574ZM162.374 69.8905V13.8905H158.374V69.8905H162.374ZM160.374 15.8905H176.774V11.8905H160.374V15.8905ZM174.774 13.8905V69.8905H178.774V13.8905H174.774ZM176.774 67.8905H160.374V71.8905H176.774V67.8905ZM142.574 50.0905V33.6905H138.574V50.0905H142.574ZM140.574 35.6905H196.574V31.6905H140.574V35.6905ZM194.574 33.6905V50.0905H198.574V33.6905H194.574ZM196.574 48.0905H140.574V52.0905H196.574V48.0905Z" fill="#172224" mask="url(#path-1-outside-1_3573_1362)"/>
</svg>
