<svg width="381" height="79" viewBox="0 0 381 79" fill="none" xmlns="http://www.w3.org/2000/svg">
<mask id="path-1-outside-1_3573_1368" maskUnits="userSpaceOnUse" x="-2" y="-1.70947" width="385" height="83" fill="black">
<rect fill="white" x="-2" y="-1.70947" width="385" height="83"/>
<path d="M45.7 2.29052V77.2905H22.7V10.5905L33.2 20.2905L0.5 25.9905V8.19052L28.7 2.29052H45.7ZM64.9133 2.29052H125.013V19.1905H71.7133L80.8133 15.5905L76.7133 40.9905H71.2133C72.6799 38.4572 74.6466 36.1572 77.1133 34.0905C79.6466 32.0239 82.7466 30.3905 86.4133 29.1905C90.1466 27.9239 94.5133 27.2905 99.5133 27.2905C105.913 27.2905 111.447 28.3239 116.113 30.3905C120.78 32.4572 124.38 35.3239 126.913 38.9905C129.513 42.6572 130.813 46.9239 130.813 51.7905C130.813 57.1239 129.347 61.8239 126.413 65.8905C123.48 69.9572 119.213 73.1572 113.613 75.4905C108.08 77.8239 101.413 78.9905 93.6133 78.9905C86.08 78.9905 79.4799 77.8905 73.8133 75.6905C68.2133 73.4905 63.8133 70.5239 60.6133 66.7905C57.4799 62.9905 55.7466 58.7905 55.4133 54.1905H78.4133C78.9466 56.2572 80.5133 57.9572 83.1133 59.2905C85.78 60.6239 89.28 61.2905 93.6133 61.2905C96.5466 61.2905 99.0466 60.9239 101.113 60.1905C103.247 59.3905 104.88 58.2905 106.013 56.8905C107.147 55.4239 107.713 53.6905 107.713 51.6905C107.713 49.8239 107.18 48.1572 106.113 46.6905C105.047 45.2239 103.48 44.0905 101.413 43.2905C99.3466 42.4905 96.8466 42.0905 93.9133 42.0905C91.4466 42.0905 89.2133 42.3572 87.2133 42.8905C85.2133 43.3572 83.4799 44.0239 82.0133 44.8905C80.6133 45.6905 79.3799 46.5572 78.3133 47.4905H58.1133L64.9133 2.29052ZM181.152 78.9905C172.485 78.9905 164.918 77.3572 158.452 74.0905C152.052 70.8239 147.085 66.2572 143.552 60.3905C140.018 54.5239 138.252 47.6572 138.252 39.7905C138.252 31.9239 140.018 25.0572 143.552 19.1905C147.085 13.3239 152.052 8.75719 158.452 5.49052C164.918 2.22386 172.485 0.590525 181.152 0.590525C189.752 0.590525 197.252 2.22386 203.652 5.49052C210.118 8.75719 215.118 13.3239 218.652 19.1905C222.252 25.0572 224.052 31.9239 224.052 39.7905C224.052 47.6572 222.252 54.5239 218.652 60.3905C215.118 66.2572 210.118 70.8239 203.652 74.0905C197.252 77.3572 189.752 78.9905 181.152 78.9905ZM181.152 60.1905C187.418 60.1905 192.252 58.4239 195.652 54.8905C199.118 51.2905 200.852 46.2572 200.852 39.7905C200.852 33.2572 199.118 28.2239 195.652 24.6905C192.252 21.1572 187.418 19.3905 181.152 19.3905C174.952 19.3905 170.085 21.1572 166.552 24.6905C163.085 28.2239 161.352 33.2572 161.352 39.7905C161.352 46.2572 163.085 51.2905 166.552 54.8905C170.085 58.4239 174.952 60.1905 181.152 60.1905ZM274.609 78.9905C265.942 78.9905 258.375 77.3572 251.909 74.0905C245.509 70.8239 240.542 66.2572 237.009 60.3905C233.475 54.5239 231.709 47.6572 231.709 39.7905C231.709 31.9239 233.475 25.0572 237.009 19.1905C240.542 13.3239 245.509 8.75719 251.909 5.49052C258.375 2.22386 265.942 0.590525 274.609 0.590525C283.209 0.590525 290.709 2.22386 297.109 5.49052C303.575 8.75719 308.575 13.3239 312.109 19.1905C315.709 25.0572 317.509 31.9239 317.509 39.7905C317.509 47.6572 315.709 54.5239 312.109 60.3905C308.575 66.2572 303.575 70.8239 297.109 74.0905C290.709 77.3572 283.209 78.9905 274.609 78.9905ZM274.609 60.1905C280.875 60.1905 285.709 58.4239 289.109 54.8905C292.575 51.2905 294.309 46.2572 294.309 39.7905C294.309 33.2572 292.575 28.2239 289.109 24.6905C285.709 21.1572 280.875 19.3905 274.609 19.3905C268.409 19.3905 263.542 21.1572 260.009 24.6905C256.542 28.2239 254.809 33.2572 254.809 39.7905C254.809 46.2572 256.542 51.2905 260.009 54.8905C263.542 58.4239 268.409 60.1905 274.609 60.1905ZM344.066 69.8905V13.8905H360.466V69.8905H344.066ZM324.266 50.0905V33.6905H380.266V50.0905H324.266Z"/>
</mask>
<path d="M45.7 2.29052H47.7V0.290522H45.7V2.29052ZM45.7 77.2905V79.2905H47.7V77.2905H45.7ZM22.7 77.2905H20.7V79.2905H22.7V77.2905ZM22.7 10.5905L24.0571 9.12145L20.7 6.02009V10.5905H22.7ZM33.2 20.2905L33.5434 22.2608L37.5283 21.5662L34.5571 18.8215L33.2 20.2905ZM0.5 25.9905H-1.5V28.3693L0.843445 27.9608L0.5 25.9905ZM0.5 8.19052L0.0904284 6.23291L-1.5 6.56566V8.19052H0.5ZM28.7 2.29052V0.290522H28.493L28.2904 0.332909L28.7 2.29052ZM43.7 2.29052V77.2905H47.7V2.29052H43.7ZM45.7 75.2905H22.7V79.2905H45.7V75.2905ZM24.7 77.2905V10.5905H20.7V77.2905H24.7ZM21.3429 12.0596L31.8429 21.7596L34.5571 18.8215L24.0571 9.12145L21.3429 12.0596ZM32.8566 18.3202L0.156555 24.0202L0.843445 27.9608L33.5434 22.2608L32.8566 18.3202ZM2.5 25.9905V8.19052H-1.5V25.9905H2.5ZM0.909572 10.1481L29.1096 4.24813L28.2904 0.332909L0.0904284 6.23291L0.909572 10.1481ZM28.7 4.29052H45.7V0.290522H28.7V4.29052ZM64.9133 2.29052V0.290522H63.1917L62.9355 1.99298L64.9133 2.29052ZM125.013 2.29052H127.013V0.290522H125.013V2.29052ZM125.013 19.1905V21.1905H127.013V19.1905H125.013ZM71.7133 19.1905L70.9776 17.3308L71.7133 21.1905V19.1905ZM80.8133 15.5905L82.7877 15.9092L83.3482 12.4369L80.0776 13.7308L80.8133 15.5905ZM76.7133 40.9905V42.9905H78.4163L78.6877 41.3092L76.7133 40.9905ZM71.2133 40.9905L69.4824 39.9885L67.7444 42.9905H71.2133V40.9905ZM77.1133 34.0905L75.849 32.5408L75.8389 32.5491L75.8288 32.5575L77.1133 34.0905ZM86.4133 29.1905L87.0354 31.0913L87.0456 31.088L87.0559 31.0845L86.4133 29.1905ZM116.113 30.3905L116.923 28.5618L116.113 30.3905ZM126.913 38.9905L125.268 40.1274L125.275 40.1374L125.282 40.1474L126.913 38.9905ZM113.613 75.4905L112.844 73.6444L112.836 73.6477L113.613 75.4905ZM73.8133 75.6905L73.082 77.552L73.0894 77.5549L73.8133 75.6905ZM60.6133 66.7905L59.0702 68.0629L59.0823 68.0776L59.0948 68.0921L60.6133 66.7905ZM55.4133 54.1905V52.1905H53.2631L53.4185 54.3351L55.4133 54.1905ZM78.4133 54.1905L80.3498 53.6908L79.9627 52.1905H78.4133V54.1905ZM83.1133 59.2905L82.2006 61.0702L82.2097 61.0748L82.2189 61.0794L83.1133 59.2905ZM101.113 60.1905L101.782 62.0754L101.799 62.0694L101.816 62.0632L101.113 60.1905ZM106.013 56.8905L107.568 58.1489L107.582 58.1313L107.596 58.1134L106.013 56.8905ZM106.113 46.6905L107.731 45.5142L106.113 46.6905ZM101.413 43.2905L100.691 45.1557L101.413 43.2905ZM87.2133 42.8905L87.6677 44.8382L87.6983 44.8311L87.7286 44.823L87.2133 42.8905ZM82.0133 44.8905L83.0056 46.627L83.0182 46.6198L83.0307 46.6124L82.0133 44.8905ZM78.3133 47.4905V49.4905H79.0648L79.6303 48.9957L78.3133 47.4905ZM58.1133 47.4905L56.1355 47.193L55.7899 49.4905H58.1133V47.4905ZM64.9133 4.29052H125.013V0.290522H64.9133V4.29052ZM123.013 2.29052V19.1905H127.013V2.29052H123.013ZM125.013 17.1905H71.7133V21.1905H125.013V17.1905ZM72.449 21.0503L81.549 17.4503L80.0776 13.7308L70.9776 17.3308L72.449 21.0503ZM78.8388 15.2718L74.7388 40.6718L78.6877 41.3092L82.7877 15.9092L78.8388 15.2718ZM76.7133 38.9905H71.2133V42.9905H76.7133V38.9905ZM72.9441 41.9926C74.283 39.68 76.0919 37.5554 78.3977 35.6236L75.8288 32.5575C73.2013 34.759 71.0769 37.2344 69.4824 39.9885L72.9441 41.9926ZM78.3775 35.6403C80.6893 33.7544 83.5613 32.2283 87.0354 31.0913L85.7912 27.2897C81.932 28.5528 78.604 30.2933 75.849 32.5408L78.3775 35.6403ZM87.0559 31.0845C90.5353 29.904 94.676 29.2905 99.5133 29.2905V25.2905C94.3506 25.2905 89.758 25.9437 85.7707 27.2966L87.0559 31.0845ZM99.5133 29.2905C105.703 29.2905 110.948 30.2903 115.303 32.2192L116.923 28.5618C111.945 26.3574 106.124 25.2905 99.5133 25.2905V29.2905ZM115.303 32.2192C119.683 34.1588 122.973 36.8059 125.268 40.1274L128.559 37.8537C125.787 33.8418 121.877 30.7556 116.923 28.5618L115.303 32.2192ZM125.282 40.1474C127.622 43.4476 128.813 47.3022 128.813 51.7905H132.813C132.813 46.5455 131.405 41.8668 128.545 37.8337L125.282 40.1474ZM128.813 51.7905C128.813 56.7322 127.463 61.0168 124.791 64.7205L128.035 67.0605C131.23 62.6309 132.813 57.5155 132.813 51.7905H128.813ZM124.791 64.7205C122.116 68.4298 118.175 71.4233 112.844 73.6444L114.383 77.3367C120.252 74.8911 124.844 71.4846 128.035 67.0605L124.791 64.7205ZM112.836 73.6477C107.61 75.8513 101.223 76.9905 93.6133 76.9905V80.9905C101.604 80.9905 108.549 79.7964 114.39 77.3334L112.836 73.6477ZM93.6133 76.9905C86.2703 76.9905 79.9251 75.9179 74.5371 73.8261L73.0894 77.5549C79.0348 79.8632 85.8896 80.9905 93.6133 80.9905V76.9905ZM74.5446 73.829C69.1816 71.7221 65.0766 68.9245 62.1318 65.4889L59.0948 68.0921C62.55 72.1232 67.245 75.2589 73.082 77.552L74.5446 73.829ZM62.1564 65.5182C59.2679 62.0152 57.7093 58.2036 57.4081 54.046L53.4185 54.3351C53.7839 59.3775 55.6919 63.9659 59.0702 68.0629L62.1564 65.5182ZM55.4133 56.1905H78.4133V52.1905H55.4133V56.1905ZM76.4767 54.6903C77.1999 57.4925 79.2879 59.5764 82.2006 61.0702L84.0259 57.5109C81.7387 56.338 80.6934 55.0219 80.3498 53.6908L76.4767 54.6903ZM82.2189 61.0794C85.2602 62.6 89.0999 63.2905 93.6133 63.2905V59.2905C89.46 59.2905 86.2997 58.6477 84.0077 57.5017L82.2189 61.0794ZM93.6133 63.2905C96.7024 63.2905 99.4419 62.9058 101.782 62.0754L100.444 58.3057C98.6514 58.9419 96.3909 59.2905 93.6133 59.2905V63.2905ZM101.816 62.0632C104.195 61.1707 106.158 59.8903 107.568 58.1489L104.459 55.6321C103.602 56.6907 102.298 57.6103 100.411 58.3179L101.816 62.0632ZM107.596 58.1134C109.022 56.2682 109.713 54.0959 109.713 51.6905H105.713C105.713 53.2852 105.271 54.5796 104.431 55.6676L107.596 58.1134ZM109.713 51.6905C109.713 49.4144 109.054 47.3333 107.731 45.5142L104.496 47.8669C105.306 48.9811 105.713 50.2333 105.713 51.6905H109.713ZM107.731 45.5142C106.392 43.6738 104.48 42.3332 102.135 41.4254L100.691 45.1557C102.48 45.8479 103.701 46.7739 104.496 47.8669L107.731 45.5142ZM102.135 41.4254C99.7771 40.5126 97.0181 40.0905 93.9133 40.0905V44.0905C96.6752 44.0905 98.9161 44.4685 100.691 45.1557L102.135 41.4254ZM93.9133 40.0905C91.3048 40.0905 88.8945 40.3723 86.698 40.9581L87.7286 44.823C89.532 44.3421 91.5884 44.0905 93.9133 44.0905V40.0905ZM86.7588 40.9428C84.6001 41.4466 82.6692 42.1798 80.9958 43.1687L83.0307 46.6124C84.2907 45.8679 85.8265 45.2678 87.6677 44.8382L86.7588 40.9428ZM81.021 43.154C79.5208 44.0113 78.1758 44.9533 76.9963 45.9854L79.6303 48.9957C80.5841 48.1611 81.7057 47.3698 83.0056 46.627L81.021 43.154ZM78.3133 45.4905H58.1133V49.4905H78.3133V45.4905ZM60.091 47.7881L66.891 2.58806L62.9355 1.99298L56.1355 47.193L60.091 47.7881ZM158.452 74.0905L157.542 75.8719L157.55 75.8757L158.452 74.0905ZM143.552 60.3905L145.265 59.3587L143.552 60.3905ZM143.552 19.1905L145.265 20.2224L143.552 19.1905ZM158.452 5.49052L157.55 3.70535L157.542 3.70915L158.452 5.49052ZM203.652 5.49052L202.742 7.27191L202.75 7.27568L203.652 5.49052ZM218.652 19.1905L216.938 20.2224L216.943 20.2295L216.947 20.2366L218.652 19.1905ZM218.652 60.3905L216.947 59.3445L216.943 59.3516L216.938 59.3587L218.652 60.3905ZM203.652 74.0905L202.75 72.3054L202.742 72.3092L203.652 74.0905ZM195.652 54.8905L194.211 53.5032L194.21 53.5038L195.652 54.8905ZM195.652 24.6905L194.21 26.0773L194.217 26.0843L194.224 26.0912L195.652 24.6905ZM166.552 24.6905L165.137 23.2763L165.131 23.283L165.124 23.2898L166.552 24.6905ZM166.552 54.8905L165.111 56.2778L165.124 56.2914L165.137 56.3047L166.552 54.8905ZM181.152 76.9905C172.737 76.9905 165.491 75.4057 159.353 72.3054L157.55 75.8757C164.346 79.3087 172.233 80.9905 181.152 80.9905V76.9905ZM159.361 72.3092C153.276 69.2036 148.596 64.8892 145.265 59.3587L141.838 61.4224C145.574 67.6252 150.827 72.4441 157.542 75.8719L159.361 72.3092ZM145.265 59.3587C141.946 53.8475 140.252 47.3486 140.252 39.7905H136.252C136.252 47.9658 138.091 55.2002 141.838 61.4224L145.265 59.3587ZM140.252 39.7905C140.252 32.2324 141.946 25.7336 145.265 20.2224L141.838 18.1587C138.091 24.3808 136.252 31.6153 136.252 39.7905H140.252ZM145.265 20.2224C148.596 14.6918 153.276 10.3775 159.361 7.27189L157.542 3.70915C150.827 7.13691 145.574 11.9559 141.838 18.1587L145.265 20.2224ZM159.353 7.27568C165.491 4.1754 172.737 2.59052 181.152 2.59052V-1.40947C172.233 -1.40947 164.346 0.272317 157.55 3.70536L159.353 7.27568ZM181.152 2.59052C189.497 2.59052 196.674 4.17459 202.742 7.27189L204.561 3.70915C197.829 0.273126 190.006 -1.40947 181.152 -1.40947V2.59052ZM202.75 7.27568C208.901 10.3829 213.611 14.6972 216.938 20.2224L220.365 18.1587C216.626 11.9505 211.336 7.13148 204.553 3.70536L202.75 7.27568ZM216.947 20.2366C220.327 25.7455 222.052 32.2392 222.052 39.7905H226.052C226.052 31.6085 224.176 24.3689 220.356 18.1445L216.947 20.2366ZM222.052 39.7905C222.052 47.3418 220.327 53.8355 216.947 59.3445L220.356 61.4366C224.176 55.2122 226.052 47.9725 226.052 39.7905H222.052ZM216.938 59.3587C213.611 64.8839 208.901 69.1982 202.75 72.3054L204.553 75.8757C211.336 72.4496 216.626 67.6305 220.365 61.4224L216.938 59.3587ZM202.742 72.3092C196.674 75.4065 189.497 76.9905 181.152 76.9905V80.9905C190.006 80.9905 197.829 79.3079 204.561 75.8719L202.742 72.3092ZM181.152 62.1905C187.803 62.1905 193.218 60.3041 197.093 56.2773L194.21 53.5038C191.285 56.5436 187.034 58.1905 181.152 58.1905V62.1905ZM197.092 56.2778C201.014 52.2051 202.852 46.6167 202.852 39.7905H198.852C198.852 45.8977 197.222 50.3759 194.211 53.5032L197.092 56.2778ZM202.852 39.7905C202.852 32.9066 201.018 27.3048 197.079 23.2898L194.224 26.0912C197.218 29.1429 198.852 33.6078 198.852 39.7905H202.852ZM197.093 23.3038C193.218 19.2769 187.803 17.3905 181.152 17.3905V21.3905C187.034 21.3905 191.285 23.0375 194.21 26.0773L197.093 23.3038ZM181.152 17.3905C174.556 17.3905 169.132 19.282 165.137 23.2763L167.966 26.1047C171.038 23.0324 175.347 21.3905 181.152 21.3905V17.3905ZM165.124 23.2898C161.185 27.3048 159.352 32.9066 159.352 39.7905H163.352C163.352 33.6078 164.985 29.1429 167.979 26.0912L165.124 23.2898ZM159.352 39.7905C159.352 46.6167 161.189 52.2051 165.111 56.2778L167.992 53.5032C164.981 50.3759 163.352 45.8977 163.352 39.7905H159.352ZM165.137 56.3047C169.132 60.299 174.556 62.1905 181.152 62.1905V58.1905C175.347 58.1905 171.038 56.5487 167.966 53.4763L165.137 56.3047ZM251.909 74.0905L250.999 75.8719L251.007 75.8757L251.909 74.0905ZM237.009 60.3905L238.722 59.3587L237.009 60.3905ZM237.009 19.1905L238.722 20.2224L237.009 19.1905ZM251.909 5.49052L251.007 3.70535L250.999 3.70915L251.909 5.49052ZM297.109 5.49052L296.199 7.27191L296.207 7.27568L297.109 5.49052ZM312.109 19.1905L310.395 20.2224L310.4 20.2295L310.404 20.2366L312.109 19.1905ZM312.109 60.3905L310.404 59.3445L310.4 59.3516L310.395 59.3587L312.109 60.3905ZM297.109 74.0905L296.207 72.3054L296.199 72.3092L297.109 74.0905ZM289.109 54.8905L287.668 53.5032L287.667 53.5038L289.109 54.8905ZM289.109 24.6905L287.667 26.0773L287.674 26.0843L287.681 26.0912L289.109 24.6905ZM260.009 24.6905L258.594 23.2763L258.588 23.283L258.581 23.2898L260.009 24.6905ZM260.009 54.8905L258.568 56.2778L258.581 56.2914L258.594 56.3047L260.009 54.8905ZM274.609 76.9905C266.194 76.9905 258.948 75.4057 252.81 72.3054L251.007 75.8757C257.803 79.3087 265.69 80.9905 274.609 80.9905V76.9905ZM252.818 72.3092C246.733 69.2036 242.053 64.8892 238.722 59.3587L235.295 61.4224C239.031 67.6252 244.284 72.4441 250.999 75.8719L252.818 72.3092ZM238.722 59.3587C235.403 53.8475 233.709 47.3486 233.709 39.7905H229.709C229.709 47.9658 231.548 55.2002 235.295 61.4224L238.722 59.3587ZM233.709 39.7905C233.709 32.2324 235.403 25.7336 238.722 20.2224L235.295 18.1587C231.548 24.3808 229.709 31.6153 229.709 39.7905H233.709ZM238.722 20.2224C242.053 14.6918 246.733 10.3775 252.818 7.27189L250.999 3.70915C244.284 7.13691 239.031 11.9559 235.295 18.1587L238.722 20.2224ZM252.81 7.27568C258.948 4.1754 266.194 2.59052 274.609 2.59052V-1.40947C265.69 -1.40947 257.803 0.272317 251.007 3.70536L252.81 7.27568ZM274.609 2.59052C282.954 2.59052 290.131 4.17459 296.199 7.27189L298.018 3.70915C291.286 0.273126 283.463 -1.40947 274.609 -1.40947V2.59052ZM296.207 7.27568C302.358 10.3829 307.068 14.6972 310.395 20.2224L313.822 18.1587C310.083 11.9505 304.793 7.13148 298.01 3.70536L296.207 7.27568ZM310.404 20.2366C313.784 25.7455 315.509 32.2392 315.509 39.7905H319.509C319.509 31.6085 317.633 24.3689 313.813 18.1445L310.404 20.2366ZM315.509 39.7905C315.509 47.3418 313.784 53.8355 310.404 59.3445L313.813 61.4366C317.633 55.2122 319.509 47.9725 319.509 39.7905H315.509ZM310.395 59.3587C307.068 64.8839 302.358 69.1982 296.207 72.3054L298.01 75.8757C304.793 72.4496 310.083 67.6305 313.822 61.4224L310.395 59.3587ZM296.199 72.3092C290.131 75.4065 282.954 76.9905 274.609 76.9905V80.9905C283.463 80.9905 291.286 79.3079 298.018 75.8719L296.199 72.3092ZM274.609 62.1905C281.26 62.1905 286.675 60.3041 290.55 56.2773L287.667 53.5038C284.742 56.5436 280.491 58.1905 274.609 58.1905V62.1905ZM290.549 56.2778C294.471 52.2051 296.309 46.6167 296.309 39.7905H292.309C292.309 45.8977 290.679 50.3759 287.668 53.5032L290.549 56.2778ZM296.309 39.7905C296.309 32.9066 294.475 27.3048 290.536 23.2898L287.681 26.0912C290.675 29.1429 292.309 33.6078 292.309 39.7905H296.309ZM290.55 23.3038C286.675 19.2769 281.26 17.3905 274.609 17.3905V21.3905C280.491 21.3905 284.742 23.0375 287.667 26.0773L290.55 23.3038ZM274.609 17.3905C268.013 17.3905 262.589 19.282 258.594 23.2763L261.423 26.1047C264.495 23.0324 268.804 21.3905 274.609 21.3905V17.3905ZM258.581 23.2898C254.642 27.3048 252.809 32.9066 252.809 39.7905H256.809C256.809 33.6078 258.442 29.1429 261.436 26.0912L258.581 23.2898ZM252.809 39.7905C252.809 46.6167 254.646 52.2051 258.568 56.2778L261.449 53.5032C258.438 50.3759 256.809 45.8977 256.809 39.7905H252.809ZM258.594 56.3047C262.589 60.299 268.013 62.1905 274.609 62.1905V58.1905C268.804 58.1905 264.495 56.5487 261.423 53.4763L258.594 56.3047ZM344.066 69.8905H342.066V71.8905H344.066V69.8905ZM344.066 13.8905V11.8905H342.066V13.8905H344.066ZM360.466 13.8905H362.466V11.8905H360.466V13.8905ZM360.466 69.8905V71.8905H362.466V69.8905H360.466ZM324.266 50.0905H322.266V52.0905H324.266V50.0905ZM324.266 33.6905V31.6905H322.266V33.6905H324.266ZM380.266 33.6905H382.266V31.6905H380.266V33.6905ZM380.266 50.0905V52.0905H382.266V50.0905H380.266ZM346.066 69.8905V13.8905H342.066V69.8905H346.066ZM344.066 15.8905H360.466V11.8905H344.066V15.8905ZM358.466 13.8905V69.8905H362.466V13.8905H358.466ZM360.466 67.8905H344.066V71.8905H360.466V67.8905ZM326.266 50.0905V33.6905H322.266V50.0905H326.266ZM324.266 35.6905H380.266V31.6905H324.266V35.6905ZM378.266 33.6905V50.0905H382.266V33.6905H378.266ZM380.266 48.0905H324.266V52.0905H380.266V48.0905Z" fill="#172224" mask="url(#path-1-outside-1_3573_1368)"/>
</svg>
