<svg width="48" height="49" viewBox="0 0 48 49" fill="none" xmlns="http://www.w3.org/2000/svg">
<path d="M30.339 22.6026C29.264 21.9846 29.413 20.4026 29.939 19.2676C29.951 19.2436 29.959 19.2186 29.97 19.1946C29.1861 19.2766 28.4306 19.5332 27.759 19.9456C26.084 21.0356 24.6896 22.5051 23.689 24.2349C22.6884 25.9648 22.1097 27.9062 22 29.9016C22.01 33.3106 24.274 34.6226 27.265 32.8946C28.9408 31.8056 30.3358 30.3362 31.3364 28.6062C32.3369 26.8761 32.9148 24.9342 33.023 22.9386C33.0244 22.5835 32.9959 22.2289 32.938 21.8786C32.6388 22.2609 32.2251 22.5374 31.7575 22.6677C31.2898 22.7979 30.7928 22.7751 30.339 22.6026Z" fill="#172224"/>
<path d="M16.0403 32.7386C16.216 28.2806 17.6595 23.9651 20.2014 20.2986C15.4102 25.3348 11.26 30.944 7.84537 36.9986C7.58037 37.4656 7.31634 37.9376 7.02734 38.4766C7.10534 38.5296 7.11235 38.5386 7.20135 38.5966C7.40135 38.7236 7.60136 38.8486 7.81036 38.9716C11.9425 41.3697 16.8447 42.0685 21.4824 40.9206C17.6474 40.2606 16.0513 36.6606 16.0403 32.7386Z" fill="#172224"/>
<path d="M32.9643 18.0745C32.4713 17.7925 31.6453 18.5525 31.3013 19.0155C31.3013 19.0215 31.3013 19.0285 31.2943 19.0345C30.8013 19.7055 30.1853 21.2995 30.8663 21.6915C30.8743 21.6915 30.8883 21.6915 30.8973 21.6915C31.4833 21.9705 32.3423 21.0615 32.7123 20.4535C32.7123 20.4465 32.7253 20.4435 32.7303 20.4365C33.1573 19.7285 33.5253 18.3985 32.9643 18.0745Z" fill="#172224"/>
<path d="M27.7419 14.3015C21.8499 17.7015 17.0719 25.9725 17.0919 32.7355C17.1099 39.2775 21.5778 41.8355 27.2918 38.5415C33.1838 35.1415 37.9618 26.8645 37.9418 20.0955C37.9198 13.6095 33.4749 10.9905 27.7419 14.3015ZM34.0768 22.9355C33.9593 25.114 33.3288 27.234 32.2368 29.1227C31.1448 31.0115 29.6222 32.6156 27.7928 33.8045C24.0928 35.9445 20.9639 34.1155 20.9529 29.9045C21.0716 27.7262 21.7024 25.6066 22.7941 23.7179C23.8858 21.8292 25.4076 20.2246 27.2358 19.0345C28.2503 18.3973 29.4406 18.0979 30.6358 18.1795C31.3968 17.2675 32.5428 16.6155 33.4908 17.1635C34.6428 17.8245 34.4118 19.5805 33.7308 20.8115C33.9639 21.4952 34.0809 22.2131 34.0768 22.9355Z" fill="#172224"/>
<path d="M46.8684 13.6715L46.8534 13.6665C42.8049 11.4712 38.087 10.8525 33.6094 11.9295C37.4094 12.6295 38.9764 16.2296 38.9874 20.0926C38.8075 24.5976 37.3372 28.9561 34.7514 32.6495C41.6994 25.7075 46.7513 16.6995 48.0023 14.3605C47.7364 14.1815 47.3574 13.9395 46.8684 13.6715Z" fill="#172224"/>
<path d="M27.224 13.3776C31.5847 10.7102 36.7825 9.76263 41.804 10.7196L40.144 9.74958C37.344 8.12558 29.837 4.9186 20.7 10.2006C12.507 14.9276 4.459 26.0146 0 34.3406L6.12997 37.9116C8.26297 33.9606 16.558 19.5436 27.224 13.3776Z" fill="#172224"/>
</svg>
