<svg width="48" height="49" viewBox="0 0 48 49" fill="none" xmlns="http://www.w3.org/2000/svg">
<path d="M14.2082 23.6844L16.7491 25.1647C16.7281 25.1207 16.7141 25.0718 16.6941 25.0278C16.1509 23.746 15.8786 22.3656 15.8945 20.9735C15.8755 14.6143 20.3645 6.83669 25.9011 3.63508C27.1807 2.88247 28.6035 2.40583 30.0783 2.23573L27.5334 0.76036C23.6521 -1.50165 18.1135 3.09334 15.5176 6.75774C13.1443 9.99497 11.7848 13.8636 11.6113 17.8739C11.6233 20.6607 12.5449 22.7188 14.2082 23.6844Z" fill="#172224"/>
<path d="M18.9473 27.6526L21.3462 33.781L25.2245 36.0339L22.2328 28.4163C21.0862 28.493 19.9426 28.2272 18.9473 27.6526Z" fill="#172224"/>
<path d="M45.7722 31.7241C45.2117 31.4442 44.5939 31.2986 43.9675 31.2986C43.341 31.2986 42.7232 31.4442 42.1627 31.7241C41.9327 31.8415 41.7443 32.0268 41.623 32.2548L31.4624 33.4863C30.985 32.7907 30.3487 32.2188 29.6062 31.818C29.219 31.5963 28.8157 31.4039 28.3997 31.2423L26.7635 37.3686C26.7418 37.4454 26.703 37.5162 26.65 37.5758C26.597 37.6354 26.5311 37.6821 26.4574 37.7125C26.3836 37.7429 26.304 37.7563 26.2243 37.7514C26.1447 37.7465 26.0673 37.7236 25.9978 37.6845L20.6671 34.5858C20.5654 34.5267 20.4868 34.4346 20.4442 34.3249L19.1928 31.1433C18.6884 31.326 18.2005 31.5514 17.7344 31.817C16.262 32.6747 15.4524 33.7862 15.4544 34.9437C15.4563 35.1038 15.4734 35.2635 15.5054 35.4204L4.99895 36.6949C4.43861 36.4153 3.82096 36.2698 3.19474 36.2698C2.56852 36.2698 1.95087 36.4153 1.39052 36.6949C1.01569 36.9128 0.800781 37.1827 0.800781 37.4355C0.800781 37.6884 1.02068 37.9653 1.40052 38.1852C1.96086 38.4648 2.57851 38.6103 3.20473 38.6103C3.83095 38.6103 4.4486 38.4648 5.00894 38.1852C5.22798 38.0725 5.40984 37.899 5.53271 37.6854L15.9282 36.425C16.4037 37.1218 17.0396 37.6943 17.7824 38.0943C18.9489 38.73 20.2214 39.148 21.5377 39.3277L19.1528 45.8249C18.5585 45.823 17.9729 45.9672 17.4475 46.2448C17.0717 46.4627 16.8568 46.7325 16.8578 46.9844C16.8588 47.2363 17.0777 47.5142 17.4575 47.7351C18.0181 48.0144 18.6359 48.1599 19.2622 48.1599C19.8886 48.1599 20.5064 48.0144 21.0669 47.7351C21.4418 47.5172 21.6567 47.2463 21.6557 46.9944C21.6547 46.7425 21.4368 46.4647 21.0559 46.2448C20.7957 46.099 20.5155 45.9922 20.2243 45.9279L22.6013 39.4547C25.0334 39.698 27.4836 39.2259 29.6512 38.0963C31.1256 37.2386 31.9382 36.1302 31.9362 34.9737C31.9348 34.8114 31.9174 34.6497 31.8842 34.4908L42.2207 33.2384C42.7769 33.5056 43.3867 33.6424 44.0037 33.6382C44.6207 33.634 45.2286 33.4891 45.7812 33.2144C46.156 32.9965 46.3709 32.7256 46.3709 32.4737C46.3709 32.2218 46.154 31.944 45.7722 31.7241Z" fill="#172224"/>
<path d="M26.4263 4.54282C21.1795 7.5715 16.9304 14.9383 16.9434 20.9736C16.9534 24.744 18.8006 27.7607 22.518 27.3389C22.6273 27.3327 22.7361 27.3589 22.8306 27.4144C22.925 27.4699 23.0009 27.5521 23.0487 27.6507C23.0947 27.7507 26.2473 35.6672 26.1644 35.5663L29.385 23.5015C29.4076 23.4162 29.4516 23.3381 29.5129 23.2746C33.1403 19.4943 35.4763 14.1586 35.4633 9.68059C35.4553 6.88181 34.5287 4.81371 32.8534 3.85013C30.8663 2.70762 28.3934 3.40631 26.4263 4.54282ZM30.7134 12.9931C30.6369 14.4793 30.2101 15.9264 29.4679 17.2162C28.7256 18.5061 27.6888 19.6021 26.4422 20.4149C23.8354 21.9053 21.7043 20.5818 21.6873 17.7161C21.7678 16.2259 22.1995 14.7759 22.9472 13.4843C23.6948 12.1927 24.7373 11.0963 25.9894 10.2843C28.5123 8.82497 30.7134 10.0764 30.7134 12.9931Z" fill="#172224"/>
</svg>
