<svg width="48" height="49" viewBox="0 0 48 49" fill="none" xmlns="http://www.w3.org/2000/svg">
<path d="M33.9957 20.2228L26.2386 15.7148L24.1387 16.9288L31.8956 21.4379L33.9957 20.2228Z" fill="#172224"/>
<path d="M30.8526 22.0377L23.1206 17.5437L21.0586 18.7337L28.7916 23.2267L30.8526 22.0377Z" fill="#172224"/>
<path d="M31.4028 22.9558L29.3398 24.1458L29.3538 26.8888L31.4169 25.6978L31.4028 22.9558Z" fill="#172224"/>
<path d="M25.6135 25.0628L27.7504 23.8288L19.9924 19.3208L17.8555 20.5548L25.6135 25.0628Z" fill="#172224"/>
<path d="M32.4617 25.9957C32.4622 26.0877 32.4384 26.1782 32.3928 26.2581C32.3471 26.338 32.2812 26.4045 32.2017 26.4507L29.1017 28.2417C29.0226 28.2875 28.9329 28.3117 28.8416 28.3118C28.7502 28.312 28.6605 28.2881 28.5812 28.2426C28.502 28.1971 28.4362 28.1316 28.3903 28.0527C28.3443 27.9737 28.32 27.8841 28.3196 27.7927L28.3027 24.7167L26.1387 25.9667C26.1387 26.0667 26.1666 35.3857 26.1656 34.8317L34.5486 29.9917L34.5226 21.1257L32.4457 22.3257L32.4617 25.9957Z" fill="#172224"/>
<path d="M25.8989 36.1897C25.8195 36.2356 25.7295 36.2598 25.6378 36.2598C25.5462 36.2598 25.4562 36.2356 25.3768 36.1897L16.5768 31.0757C16.498 31.03 16.4325 30.9643 16.3868 30.8854C16.3412 30.8064 16.3171 30.7169 16.3168 30.6257L16.2979 23.3877L7.50586 28.4657L28.0579 40.4057L42.7728 31.9167L35.5839 27.7347L35.5908 30.2887C35.5912 30.3807 35.5673 30.4711 35.5214 30.5508C35.4756 30.6306 35.4095 30.6968 35.3298 30.7427L25.8989 36.1897Z" fill="#172224"/>
<path d="M17.3658 30.3209L25.1188 34.8259C25.1188 34.6709 25.0908 25.4998 25.0918 25.9658L17.3398 21.4658V22.4868V22.4949L17.3658 30.3209Z" fill="#172224"/>
<path d="M43.6086 35.7769L41.8086 36.8179C42.1043 37.4912 42.2464 38.2218 42.2246 38.9568L43.4516 38.2399C43.6084 38.1094 43.7306 37.9424 43.8076 37.7535C43.8845 37.5646 43.9136 37.3597 43.8926 37.1569C43.8825 36.6834 43.7862 36.2158 43.6086 35.7769Z" fill="#172224"/>
<path d="M28.3311 44.5999C27.9031 44.8499 27.6221 44.4188 26.5371 43.8618C27.3066 44.855 27.719 46.0785 27.7081 47.3348L28.9451 46.6188C29.1053 46.4914 29.23 46.3247 29.3071 46.135C29.3841 45.9453 29.411 45.7389 29.3851 45.5358C29.3738 45.0629 29.2755 44.5961 29.0951 44.1588L28.3311 44.5999Z" fill="#172224"/>
<path d="M24.5246 43.4018C23.5106 42.8148 22.8946 43.2358 22.8926 44.3288C22.9382 45.0691 23.1552 45.7886 23.5264 46.4307C23.8976 47.0728 24.4129 47.6199 25.0316 48.0288C25.8036 48.4748 26.4756 48.3898 26.6316 47.4888V47.4778C26.6613 46.6744 26.4829 45.8771 26.1137 45.1629C25.7446 44.4488 25.1972 43.8422 24.5246 43.4018Z" fill="#172224"/>
<path d="M40.9141 37.3897C40.9081 37.3757 40.8992 37.3587 40.8942 37.3438L38.4941 38.7297C38.7829 39.0999 39.1367 39.4143 39.5381 39.6577C40.3381 40.1187 41.0301 39.9757 41.1561 39.0577V39.0427C41.2077 38.4803 41.1248 37.9137 40.9141 37.3897Z" fill="#172224"/>
<path d="M43.3051 34.7478L43.298 32.8198L28.321 41.4588C28.2417 41.5052 28.1514 41.5297 28.0595 41.5297C27.9676 41.5297 27.8774 41.5052 27.798 41.4588L6.99805 29.3728L7.00403 31.3028C31.95 45.7978 2.98901 28.9718 28.075 43.5458L43.3051 34.7478Z" fill="#172224"/>
<path d="M9.80731 36.9457L11.0493 36.2247C11.2087 36.0944 11.3326 35.9258 11.4094 35.7347C11.4861 35.5436 11.5133 35.3361 11.4883 35.1317V35.1187L8.65234 33.4697C9.41164 34.4685 9.81785 35.6911 9.80731 36.9457Z" fill="#172224"/>
<path d="M19.4382 0.330801C19.4008 0.302689 19.3548 0.288498 19.3081 0.290762C19.1762 0.303764 19.0493 0.348359 18.9382 0.420767L8.49815 6.44079C7.93029 6.81721 7.53477 7.40333 7.39817 8.07079C7.32556 8.31729 7.35064 8.58227 7.46818 8.81078L12.2582 15.0608C12.4682 15.362 12.5736 15.7238 12.5581 16.0907L12.5882 24.3208L14.4281 23.2608L14.4081 14.4308C14.4127 14.0387 14.4943 13.6514 14.6482 13.2908L19.4081 1.51079C19.6681 0.860793 19.5582 0.440801 19.4382 0.330801ZM13.3681 11.6308C13.3471 11.6906 13.3089 11.7427 13.2582 11.7808L12.7682 12.0608L9.82817 8.22075C9.83517 8.10779 9.86755 7.99785 9.92295 7.89916C9.97836 7.80047 10.0554 7.71555 10.1482 7.65075L16.4382 4.0208L13.3681 11.6308Z" fill="#172224"/>
<path d="M6.63202 32.9967C5.66802 32.4407 5.002 32.7858 5 33.9298C5.04576 34.67 5.26279 35.3894 5.63397 36.0315C6.00516 36.6736 6.5204 37.2207 7.13904 37.6297C7.98604 38.1197 8.60503 37.9658 8.75403 36.9818C8.76426 36.1926 8.57516 35.4137 8.20422 34.7171C7.83329 34.0205 7.2925 33.4287 6.63202 32.9967Z" fill="#172224"/>
</svg>
