<svg width="48" height="49" viewBox="0 0 48 49" fill="none" xmlns="http://www.w3.org/2000/svg">
<path d="M46.1009 16.3869L46.0799 16.3969L28.3429 6.32788C28.3058 6.30353 28.2624 6.29053 28.2179 6.29053C28.1735 6.29053 28.1301 6.30353 28.0929 6.32788C28.0514 6.34818 28.016 6.37912 27.9903 6.4176C27.9647 6.45608 27.9497 6.50071 27.9469 6.54688L27.7469 10.1049C27.7391 10.2869 27.8018 10.4649 27.9219 10.6019C28.0419 10.7389 28.2102 10.8244 28.3917 10.8405C28.5732 10.8566 28.7539 10.8022 28.8962 10.6884C29.0386 10.5747 29.1316 10.4104 29.1559 10.2299C29.1798 10.004 29.2617 9.78828 29.3938 9.60358C29.5259 9.41887 29.7036 9.27155 29.9096 9.17596C30.1155 9.08038 30.3428 9.03978 30.5691 9.05817C30.7954 9.07655 31.0131 9.15331 31.2009 9.28088L43.7229 17.7639L18.0859 32.5709C18.2219 32.6439 19.3379 33.2908 19.4319 33.3528L47.4589 17.1799L46.1009 16.3869Z" fill="#172224"/>
<path d="M17.5637 33.4779C15.7277 32.4349 1.86365 24.5569 0.430655 23.7429C0.36692 23.7725 0.311586 23.8176 0.269674 23.874C0.227763 23.9304 0.200601 23.9964 0.190653 24.0659L0.000654216 27.6249C-0.00717298 27.807 0.055477 27.985 0.17557 28.122C0.295662 28.259 0.463953 28.3445 0.645437 28.3606C0.826921 28.3767 1.00762 28.3222 1.14996 28.2084C1.2923 28.0947 1.38531 27.9305 1.40965 27.7499C1.43285 27.5243 1.51426 27.3085 1.64591 27.1237C1.77755 26.939 1.95492 26.7915 2.16065 26.6959C2.36447 26.5985 2.59034 26.5565 2.81555 26.574C3.04076 26.5916 3.25739 26.6682 3.44366 26.796L17.5727 36.4169L17.5937 41.3629C17.5937 41.5819 17.6457 41.7489 17.7397 41.8009L18.9397 42.4899L18.9077 34.257C18.7747 34.178 17.6687 33.5409 17.5637 33.4779Z" fill="#172224"/>
<path d="M34.4014 29.2439C34.2421 29.3406 34.1042 29.4686 33.9959 29.6202C33.8876 29.7719 33.8112 29.9438 33.7714 30.1259L33.4004 31.8829L35.2494 32.9449C35.2984 33.1639 34.4284 29.3449 34.4054 29.2449L34.4014 29.2439Z" fill="#172224"/>
<path d="M47.9801 18.0769L19.9531 34.2609L19.9841 42.7549C19.9841 43.2659 20.2141 43.3079 20.5681 43.0989L30.4191 37.4119C30.9652 37.0498 31.3472 36.4879 31.4831 35.8469L32.7461 29.9099C32.8523 29.428 33.099 28.9885 33.4551 28.6469C34.2551 27.8749 35.2291 28.1259 35.4171 28.9919C35.6781 30.1189 36.1781 32.3619 36.4391 33.4919C36.5121 33.8049 36.7321 33.7739 37.0131 33.6069L46.8951 27.8989C47.2153 27.6855 47.4816 27.4008 47.6733 27.0671C47.8651 26.7335 47.9769 26.36 48.0001 25.976L47.9801 18.0769ZM28.7491 36.463L22.3111 40.1879C22.2883 40.194 22.2669 40.2046 22.2481 40.2189V40.1569L22.2381 35.9829C22.2527 35.7839 22.3119 35.5906 22.4112 35.4175C22.5106 35.2444 22.6476 35.0959 22.8121 34.9829L29.2501 31.2679C29.2811 31.2469 29.2921 31.2369 29.3131 31.2369V31.2999L29.3231 35.473C29.3071 35.6703 29.2472 35.8615 29.1479 36.0328C29.0487 36.204 28.9124 36.351 28.7491 36.463ZM45.1421 26.9779L38.7001 30.692C38.6812 30.7003 38.6634 30.7111 38.6471 30.7239C38.639 30.704 38.6355 30.6824 38.6371 30.6609L38.6271 26.4869C38.6429 26.2882 38.7025 26.0954 38.8018 25.9225C38.9011 25.7496 39.0374 25.6008 39.2011 25.4869C43.9191 22.7739 45.2771 21.9949 45.6171 21.8029C45.6424 21.7923 45.6671 21.7802 45.6911 21.7669L45.7001 21.7609C45.7211 21.8969 45.7111 22.4809 45.7211 25.9769C45.7037 26.176 45.6428 26.3688 45.5428 26.5417C45.4427 26.7147 45.306 26.8636 45.1421 26.9779Z" fill="#172224"/>
</svg>
