<svg width="48" height="49" viewBox="0 0 48 49" fill="none" xmlns="http://www.w3.org/2000/svg">
<path d="M1 38.0564L18.538 48.1834L18.62 26.9434L1.07898 16.8164L1 38.0564ZM8.39999 39.6774C8.32779 39.6766 8.25669 39.6595 8.19199 39.6274L5.04199 37.7974C4.98088 37.7593 4.93046 37.7062 4.89548 37.6432C4.86049 37.5803 4.84207 37.5094 4.84198 37.4374L4.82498 34.9064C4.82433 34.8318 4.84344 34.7584 4.8804 34.6936C4.91736 34.6288 4.97084 34.575 5.03537 34.5376C5.0999 34.5002 5.17321 34.4806 5.2478 34.4807C5.32239 34.4808 5.3956 34.5008 5.45999 34.5384L8.60199 36.3684C8.66636 36.4034 8.71989 36.4553 8.75674 36.5186C8.7936 36.582 8.81235 36.6542 8.81097 36.7274L8.819 39.2594C8.82022 39.3145 8.81027 39.3694 8.78976 39.4206C8.76925 39.4718 8.7386 39.5183 8.69965 39.5573C8.66069 39.5964 8.61423 39.6271 8.56308 39.6478C8.51193 39.6684 8.45712 39.6785 8.40198 39.6774H8.39999ZM8.42099 33.5074C8.34674 33.5034 8.27431 33.4829 8.20898 33.4474L5.01898 31.5944C4.95755 31.5556 4.90699 31.5019 4.87201 31.4382C4.83703 31.3746 4.81879 31.3031 4.819 31.2304L4.802 28.6664C4.80263 28.5916 4.82233 28.5181 4.85925 28.453C4.89617 28.388 4.9491 28.3333 5.013 28.2944C5.07871 28.2566 5.15316 28.2367 5.22897 28.2367C5.30479 28.2367 5.37927 28.2566 5.44498 28.2944L8.62698 30.1474C8.69113 30.1841 8.74444 30.2371 8.78149 30.301C8.81855 30.3649 8.83803 30.4375 8.83798 30.5114L8.84698 33.0754C8.84846 33.1319 8.83855 33.188 8.81787 33.2406C8.79719 33.2932 8.76615 33.341 8.72659 33.3813C8.68703 33.4216 8.63977 33.4536 8.58762 33.4752C8.53546 33.4969 8.47945 33.5078 8.42297 33.5074H8.42099ZM14.581 43.0984C14.5175 43.1353 14.4454 43.1547 14.372 43.1547C14.2986 43.1547 14.2265 43.1353 14.163 43.0984L11.011 41.2594C10.9473 41.2234 10.8944 41.171 10.8577 41.1077C10.8209 41.0445 10.8017 40.9726 10.802 40.8994L10.794 38.3664C10.7949 38.2935 10.8146 38.222 10.8513 38.159C10.8879 38.0959 10.9401 38.0434 11.003 38.0064C11.0665 37.9695 11.1386 37.9501 11.212 37.9501C11.2854 37.9501 11.3575 37.9695 11.421 38.0064L14.573 39.8374C14.636 39.8741 14.6885 39.9266 14.7251 39.9898C14.7617 40.0529 14.7813 40.1244 14.782 40.1974L14.79 42.7304C14.7915 42.8046 14.773 42.8779 14.7366 42.9426C14.7002 43.0073 14.6472 43.0611 14.583 43.0984H14.581ZM14.586 36.8914C14.5225 36.9288 14.4502 36.9485 14.3765 36.9485C14.3028 36.9485 14.2305 36.9288 14.167 36.8914L11.007 35.0564C10.9446 35.0188 10.8927 34.9662 10.856 34.9033C10.8193 34.8403 10.799 34.7692 10.797 34.6964L10.789 32.1484C10.7908 32.0754 10.811 32.0041 10.8477 31.941C10.8844 31.8779 10.9365 31.8251 10.999 31.7874C11.0627 31.7505 11.1349 31.7311 11.2085 31.7311C11.2821 31.7311 11.3543 31.7505 11.418 31.7874L14.578 33.6234C14.641 33.6602 14.6933 33.7127 14.73 33.7758C14.7666 33.8389 14.7862 33.9104 14.787 33.9834L14.795 36.5234C14.7965 36.5976 14.778 36.6709 14.7416 36.7356C14.7052 36.8003 14.6522 36.8541 14.588 36.8914H14.586ZM10.91 25.2384C10.9766 25.1991 11.0526 25.1783 11.13 25.1783C11.2074 25.1783 11.2833 25.1991 11.35 25.2384L14.666 27.1644C14.7315 27.2039 14.7859 27.2592 14.8244 27.3252C14.8628 27.3913 14.884 27.466 14.886 27.5424L14.895 30.2084C14.896 30.2861 14.8765 30.3628 14.8383 30.4305C14.8001 30.4982 14.7446 30.5546 14.6776 30.5939C14.6105 30.6333 14.5342 30.6541 14.4565 30.6544C14.3787 30.6546 14.3023 30.6343 14.235 30.5954L10.919 28.6684C10.8527 28.6298 10.7977 28.5747 10.7591 28.5084C10.7205 28.4422 10.6998 28.3671 10.699 28.2904L10.69 25.6254C10.6909 25.5473 10.7117 25.4707 10.7505 25.403C10.7894 25.3352 10.845 25.2786 10.912 25.2384H10.91ZM4.939 21.7694C5.0071 21.7301 5.08435 21.7094 5.16299 21.7094C5.24163 21.7094 5.31889 21.7301 5.38699 21.7694L8.70398 23.6954C8.76939 23.7364 8.82316 23.7935 8.86011 23.8613C8.89706 23.9291 8.91595 24.0052 8.91498 24.0824L8.92398 26.7484C8.92451 26.8063 8.91349 26.8638 8.89157 26.9174C8.86965 26.971 8.83726 27.0198 8.7963 27.0607C8.75533 27.1017 8.70661 27.1341 8.65298 27.156C8.59936 27.1779 8.54191 27.1889 8.48398 27.1884C8.40632 27.1885 8.33015 27.1671 8.26398 27.1264L4.948 25.1994C4.8827 25.1604 4.82876 25.105 4.79156 25.0387C4.75437 24.9724 4.73521 24.8974 4.73599 24.8214L4.71899 22.1564C4.71953 22.0786 4.73993 22.0022 4.77826 21.9345C4.81658 21.8667 4.87156 21.8099 4.93799 21.7694H4.939Z" fill="#172224"/>
<path d="M10.4844 17.4745L19.1434 22.4745L37.1434 12.0115L28.4844 7.01147L10.4844 17.4745Z" fill="#172224"/>
<path d="M7.74805 15.8965L9.43405 16.8695L28.22 5.95047C28.3 5.90382 28.391 5.87923 28.4836 5.87923C28.5761 5.87923 28.6671 5.90382 28.747 5.95047L38.1931 11.4065L39.881 10.4255L28.481 3.84546L7.74805 15.8965Z" fill="#172224"/>
<path d="M37.2291 39.1466L41.1021 41.3826C41.1818 41.4287 41.248 41.4949 41.2941 41.5747C41.3401 41.6545 41.3644 41.745 41.3644 41.8371C41.3644 41.9292 41.3401 42.0196 41.2941 42.0994C41.248 42.1792 41.1818 42.2455 41.1021 42.2916L34.7861 45.9626C34.7061 46.009 34.6152 46.0335 34.5226 46.0335C34.4301 46.0335 34.3392 46.009 34.2591 45.9626L29.8591 43.4246L27.7441 44.6546L34.0441 48.2896L45.2332 41.7896L38.9331 38.1536L37.2291 39.1466Z" fill="#172224"/>
<path d="M28.4814 0.290527L1.60938 15.9065L19.1494 26.0335L46.0214 10.4175L28.4814 0.290527ZM19.4104 23.5385C19.3303 23.585 19.2394 23.6094 19.1469 23.6094C19.0543 23.6094 18.9634 23.585 18.8834 23.5385L6.43839 16.3535C6.35867 16.3073 6.29252 16.2409 6.24652 16.1611C6.20052 16.0812 6.1763 15.9907 6.1763 15.8985C6.1763 15.8064 6.20052 15.7158 6.24652 15.636C6.29252 15.5561 6.35867 15.4898 6.43839 15.4435L28.2244 2.78252C28.3044 2.73587 28.3953 2.71129 28.4879 2.71129C28.5805 2.71129 28.6714 2.73587 28.7514 2.78252L41.1974 9.96852C41.2771 10.0148 41.3433 10.0811 41.3893 10.161C41.4352 10.2408 41.4594 10.3314 41.4594 10.4235C41.4594 10.5157 41.4352 10.6062 41.3893 10.6861C41.3433 10.7659 41.2771 10.8323 41.1974 10.8785L19.4104 23.5385Z" fill="#172224"/>
<path d="M19.6748 26.9445L19.5918 48.1765L29.3248 42.5195L29.3498 36.0675C29.35 35.9758 29.3743 35.8858 29.4203 35.8064C29.4663 35.7271 29.5324 35.6613 29.6118 35.6155L36.0118 31.8955C36.0918 31.849 36.1826 31.8244 36.2751 31.8243C36.3675 31.8241 36.4584 31.8485 36.5385 31.8947C36.6186 31.941 36.685 32.0076 36.7311 32.0878C36.7771 32.1681 36.8012 32.259 36.8008 32.3515L36.7778 38.1875L46.4568 32.5625L46.5378 11.3335L19.6748 26.9445ZM34.0528 21.2725C34.0538 21.1995 34.0737 21.128 34.1105 21.0649C34.1473 21.0018 34.1998 20.9493 34.2628 20.9125L37.4218 19.0775C37.4853 19.0401 37.5576 19.0204 37.6313 19.0204C37.705 19.0204 37.7773 19.0401 37.8408 19.0775C37.9055 19.1124 37.9594 19.1645 37.9964 19.228C38.0334 19.2915 38.0523 19.364 38.0508 19.4375L38.0428 21.9775C38.0418 22.0505 38.0219 22.122 37.9851 22.1851C37.9483 22.2481 37.8958 22.3006 37.8328 22.3375L34.6728 24.1725C34.6093 24.2099 34.537 24.2296 34.4633 24.2296C34.3896 24.2296 34.3173 24.2099 34.2538 24.1725C34.1907 24.1358 34.1382 24.0833 34.1016 24.0202C34.0649 23.9571 34.0453 23.8855 34.0448 23.8125L34.0528 21.2725ZM22.1018 28.1985C22.1037 28.1249 22.1241 28.053 22.1612 27.9893C22.1982 27.9257 22.2507 27.8725 22.3138 27.8345L25.5038 25.9815C25.5681 25.9442 25.641 25.9245 25.7153 25.9245C25.7896 25.9245 25.8626 25.9442 25.9268 25.9815C25.9908 26.0204 26.0439 26.075 26.081 26.14C26.1181 26.2051 26.138 26.2786 26.1388 26.3535L26.1298 28.9175C26.1291 28.9912 26.1094 29.0636 26.0724 29.1274C26.0354 29.1912 25.9825 29.2443 25.9188 29.2815L22.7278 31.1335C22.6637 31.1704 22.591 31.1898 22.517 31.1899C22.443 31.1899 22.3703 31.1705 22.3062 31.1337C22.242 31.0969 22.1886 31.0439 22.1514 30.9799C22.1141 30.916 22.0943 30.8435 22.0938 30.7695L22.1018 28.1985ZM26.2098 35.3545C26.208 35.4311 26.1869 35.506 26.1484 35.5722C26.11 35.6385 26.0554 35.6939 25.9898 35.7335L22.6738 37.6595C22.6065 37.6984 22.53 37.7187 22.4523 37.7185C22.3746 37.7182 22.2983 37.6973 22.2312 37.658C22.1641 37.6187 22.1087 37.5623 22.0705 37.4946C22.0323 37.4269 22.0127 37.3502 22.0138 37.2725L22.0218 34.6075C22.0229 34.5308 22.0437 34.4556 22.0822 34.3892C22.1207 34.3228 22.1757 34.2675 22.2418 34.2285L25.5588 32.3025C25.6256 32.2637 25.7015 32.2432 25.7788 32.2432C25.8561 32.2432 25.932 32.2637 25.9988 32.3025C26.0654 32.343 26.1205 32.3997 26.159 32.4675C26.1975 32.5352 26.2181 32.6116 26.2188 32.6895L26.2098 35.3545ZM32.1718 31.8855C32.1727 31.9616 32.1536 32.0366 32.1166 32.103C32.0796 32.1695 32.0259 32.2252 31.9608 32.2645L28.6448 34.1905C28.5775 34.2294 28.5011 34.2497 28.4233 34.2495C28.3456 34.2492 28.2693 34.2284 28.2022 34.189C28.1351 34.1497 28.0797 34.0933 28.0415 34.0256C28.0033 33.9579 27.9837 33.8812 27.9848 33.8035L27.9938 31.1385C27.9938 31.0615 28.0141 30.9859 28.0527 30.9193C28.0914 30.8528 28.1469 30.7976 28.2138 30.7595L31.5208 28.8335C31.5886 28.794 31.6657 28.7731 31.7441 28.773C31.8226 28.7729 31.8997 28.7935 31.9677 28.8328C32.0356 28.8721 32.0919 28.9287 32.1309 28.9967C32.1699 29.0648 32.1903 29.142 32.1898 29.2205L32.1718 31.8855ZM32.1718 25.4625C32.1727 25.5386 32.1536 25.6136 32.1166 25.68C32.0796 25.7465 32.0259 25.8022 31.9608 25.8415L28.6448 27.7675C28.578 27.8063 28.5021 27.8268 28.4248 27.8268C28.3475 27.8268 28.2716 27.8063 28.2048 27.7675C28.1373 27.7303 28.0812 27.6755 28.0424 27.609C28.0037 27.5424 27.9838 27.4665 27.9848 27.3895L27.9938 24.7235C27.9916 24.6463 28.0111 24.5699 28.05 24.5032C28.0888 24.4364 28.1456 24.3818 28.2138 24.3455L31.5208 22.4195C31.5877 22.3772 31.6649 22.354 31.744 22.3524C31.8232 22.3508 31.9013 22.3709 31.9698 22.4105C32.0364 22.4509 32.0916 22.5077 32.1301 22.5754C32.1686 22.6431 32.1892 22.7196 32.1898 22.7975L32.1718 25.4625ZM38.0618 28.4025C38.0609 28.4763 38.041 28.5487 38.0038 28.6125C37.9667 28.6763 37.9136 28.7293 37.8498 28.7665L34.6598 30.6195C34.5956 30.6568 34.5226 30.6765 34.4483 30.6765C34.374 30.6765 34.3011 30.6568 34.2368 30.6195C34.1737 30.5815 34.1212 30.5283 34.0842 30.4646C34.0471 30.401 34.0267 30.3291 34.0248 30.2555L34.0338 27.6915C34.0344 27.6167 34.0541 27.5432 34.0911 27.4781C34.128 27.413 34.1809 27.3584 34.2448 27.3195L37.4378 25.4665C37.5019 25.4287 37.5749 25.4087 37.6493 25.4087C37.7237 25.4087 37.7967 25.4287 37.8608 25.4665C37.9259 25.5042 37.9797 25.5585 38.0168 25.6239C38.0539 25.6892 38.0729 25.7633 38.0718 25.8385L38.0618 28.4025ZM44.1128 24.9485C44.112 25.0251 44.0913 25.1003 44.0527 25.1665C44.0142 25.2328 43.9591 25.2879 43.8928 25.3265L40.5758 27.2525C40.5092 27.2918 40.4332 27.3125 40.3558 27.3125C40.2784 27.3125 40.2025 27.2918 40.1358 27.2525C40.0684 27.2153 40.0123 27.1604 39.9736 27.0939C39.9349 27.0273 39.9149 26.9515 39.9158 26.8745L39.9248 24.2095C39.9226 24.1321 39.942 24.0556 39.9809 23.9887C40.0197 23.9217 40.0765 23.8669 40.1448 23.8305L43.4618 21.9045C43.5277 21.8636 43.6038 21.8419 43.6813 21.8419C43.7589 21.8419 43.8349 21.8636 43.9008 21.9045C43.9678 21.9422 44.0235 21.9971 44.0622 22.0636C44.1009 22.13 44.1211 22.2056 44.1208 22.2825L44.1128 24.9485ZM44.1128 18.5255C44.112 18.6022 44.0913 18.6773 44.0527 18.7435C44.0142 18.8098 43.9591 18.8649 43.8928 18.9035L40.5758 20.8305C40.509 20.8693 40.4331 20.8898 40.3558 20.8898C40.2785 20.8898 40.2026 20.8693 40.1358 20.8305C40.0683 20.7931 40.0122 20.7381 39.9735 20.6714C39.9347 20.6046 39.9148 20.5286 39.9158 20.4515L39.9248 17.7865C39.9238 17.7095 39.9437 17.6336 39.9825 17.567C40.0212 17.5004 40.0773 17.4456 40.1448 17.4085L43.4618 15.4815C43.5284 15.4427 43.6042 15.4222 43.6813 15.4222C43.7585 15.4222 43.8342 15.4427 43.9008 15.4815C43.9671 15.5201 44.0222 15.5752 44.0607 15.6414C44.0993 15.7077 44.12 15.7828 44.1208 15.8595L44.1128 18.5255Z" fill="#172224"/>
<path d="M34.5211 44.9016L39.7901 41.8396L36.1811 39.7556L30.9121 42.8176L34.5211 44.9016Z" fill="#172224"/>
<path d="M30.3789 41.8946L35.7259 38.7876L35.7479 33.2646L30.4009 36.3727L30.3789 41.8946Z" fill="#172224"/>
</svg>
