<svg width="48" height="49" viewBox="0 0 48 49" fill="none" xmlns="http://www.w3.org/2000/svg">
<path d="M30.2387 12.5075C22.9387 16.7136 16.7866 27.3397 16.8106 35.711C16.8316 42.7445 20.9396 45.0092 27.0266 41.5034C34.3396 37.2903 40.4967 26.6583 40.4727 18.2869C40.4527 11.3273 36.4007 8.95585 30.2387 12.5075ZM34.8126 24.4934L27.4606 34.1287C27.3364 34.2947 27.1751 34.4296 26.9896 34.5226C26.804 34.6156 26.5993 34.6642 26.3916 34.6644C26.2126 34.6663 26.0351 34.6327 25.8693 34.5655C25.7034 34.4984 25.5526 34.3991 25.4255 34.2733C25.2984 34.1476 25.1977 33.9979 25.129 33.833C25.0604 33.6681 25.0252 33.4912 25.0256 33.3126L24.9946 22.5379C24.9941 22.3425 25.036 22.1493 25.1174 21.9715C25.1989 21.7938 25.318 21.6357 25.4666 21.5083C25.6151 21.3809 25.7895 21.2871 25.9779 21.2334C26.1662 21.1796 26.364 21.1673 26.5576 21.1971L33.9386 22.3324C34.1708 22.3684 34.3898 22.4639 34.5739 22.6095C34.7581 22.7552 34.9012 22.9461 34.9893 23.1634C35.0773 23.3808 35.1073 23.6172 35.0764 23.8496C35.0454 24.0821 34.9545 24.3025 34.8126 24.4894V24.4934Z" fill="#172224"/>
<path d="M33.78 23.365L26.3991 22.2297C26.3544 22.2226 26.3087 22.2253 26.2652 22.2376C26.2217 22.2499 26.1814 22.2715 26.1471 22.301C26.1128 22.3304 26.0854 22.367 26.0668 22.4081C26.0481 22.4492 26.0387 22.4939 26.0391 22.539L26.069 33.3137C26.0663 33.3802 26.0858 33.4457 26.1246 33.5C26.1633 33.5542 26.2191 33.5939 26.2831 33.613C26.3448 33.6353 26.4121 33.6369 26.4748 33.6175C26.5375 33.598 26.592 33.5586 26.6301 33.5052L33.9821 23.8708C34.0149 23.8278 34.0359 23.777 34.0432 23.7234C34.0505 23.6698 34.0438 23.6152 34.0236 23.565C34.0035 23.5147 33.9706 23.4706 33.9283 23.4367C33.886 23.4029 33.8356 23.3806 33.7821 23.372L33.78 23.365Z" fill="#172224"/>
<path d="M7.6921 41.8974L13.2441 45.1148C11.7856 42.5853 11.0542 39.7036 11.1301 36.7864C11.0991 25.7603 18.9381 12.4825 28.3051 7.07221C30.8085 5.53234 33.6871 4.7063 36.6281 4.68382C36.6501 4.68382 36.6731 4.68382 36.6951 4.68382C36.7171 4.68382 36.7551 4.68382 36.7841 4.68382L31.2431 1.48234C19.7431 -5.20195 2.95808 17.799 3.00008 31.4649C3.01608 36.4472 4.6821 40.1525 7.6921 41.8974Z" fill="#172224"/>
<path d="M28.8358 7.98005C19.6528 13.2676 12.1438 26.2372 12.1778 36.7834C12.2088 47.179 19.3978 51.2274 28.4258 46.0307C37.6548 40.7141 45.1379 27.7875 45.1089 17.2144C45.0789 6.98439 37.9978 2.70345 28.8358 7.98005ZM41.5148 18.2838C41.5398 26.9824 35.1438 38.0285 27.5468 42.4042C20.8468 46.2641 15.7878 43.6931 15.7668 35.7139C15.7418 27.0163 22.1298 15.9763 29.7158 11.6055C36.4888 7.7027 41.4948 10.3764 41.5148 18.2838Z" fill="#172224"/>
</svg>
