<svg width="159" height="30" viewBox="0 0 159 30" fill="none" xmlns="http://www.w3.org/2000/svg">
<path d="M13.1364 29.0909C4.69464 29.0909 0 24.3071 0 14.5239C0 4.78384 4.65158 0 13.1364 0H21.1038V5.08553H13.1364C7.4942 5.08553 5.08227 7.88687 5.08227 14.5239C5.08227 21.204 7.53727 24.0055 13.1364 24.0055H29.8287V29.0909H13.1364Z" fill="black"/>
<path d="M44.3789 0L53.9522 25.4069C55.0111 28.2016 57.1714 29.0909 59.9673 29.0909C62.9325 29.0909 64.8811 28.0745 65.94 25.4069L76.0216 0H70.4725L61.3651 22.9933C61.0685 23.6707 60.6451 23.9671 59.9673 23.9671C59.2894 23.9671 58.8236 23.6707 58.5695 22.9933L49.8856 0H44.3789Z" fill="black"/>
<path d="M105.144 6.09765C105.44 5.42015 105.906 5.12373 106.584 5.12373C107.262 5.12373 107.728 5.42015 107.982 6.09765L116.666 29.0909H122.215L112.557 3.684C111.54 1.01628 109.592 0 106.627 0C103.619 0 101.67 1.01628 100.612 3.684L90.5723 29.0909H96.079L105.144 6.09765Z" fill="black"/>
<path d="M136.766 0V4.97745H145.078V29.0909H150.1V4.97745H158.413V0H136.766Z" fill="black"/>
</svg>
