<svg width="253" height="40" viewBox="0 0 253 40" fill="none" xmlns="http://www.w3.org/2000/svg">
<mask id="mask0_3583_54" style="mask-type:luminance" maskUnits="userSpaceOnUse" x="0" y="0" width="40" height="40">
<path d="M39.1911 0H0V40H39.1911V0Z" fill="white"/>
</mask>
<g mask="url(#mask0_3583_54)">
<path d="M34.2142 6.46906H4.66602V35.1222H34.2142V6.46906Z" fill="#323131"/>
<path fill-rule="evenodd" clip-rule="evenodd" d="M11.0225 11.25H0V0H11.0225V11.25ZM39.1917 11.25H28.1692V4.23573e-05H39.1917V11.25ZM0 40.0003H11.0225V28.7503H0V40.0003ZM39.1917 40.0003H28.1692V28.7503H39.1917V40.0003ZM3.67361 11.2502H7.34778V28.7502H3.67361V11.2502ZM35.5171 11.2502H31.843V28.7502H35.5171V11.2502ZM11.0228 3.7503H28.1689V7.50028H11.0228V3.7503ZM28.1689 32.4998H11.0228V36.2497H28.1689V32.4998Z" fill="black"/>
</g>
<path d="M53.891 7.07422V29.1999H66.2061V33.4143H49.5898V7.07422H53.891Z" fill="black"/>
<path d="M86.2216 33.4144H82.1042V30.8556C81.6634 31.7085 80.9037 32.4109 79.8251 32.9628C78.7465 33.5147 77.5949 33.7906 76.3696 33.7906C74.7765 33.7906 73.3184 33.3642 71.9946 32.5113C70.6715 31.6584 69.6301 30.5044 68.8701 29.0495C68.1103 27.5945 67.7305 25.9764 67.7305 24.1953C67.7305 22.4393 68.1103 20.8338 68.8701 19.3789C69.6301 17.9239 70.6715 16.77 71.9946 15.9171C73.3184 15.0641 74.7765 14.6377 76.3696 14.6377C77.5949 14.6377 78.7465 14.9136 79.8251 15.4655C80.9037 16.0174 81.6634 16.7198 82.1042 17.5727V15.014H86.2216V33.4144ZM71.7377 24.1953C71.7377 25.249 71.9705 26.2022 72.4361 27.0551C72.9258 27.908 73.5877 28.5854 74.4211 29.087C75.2786 29.5637 76.2105 29.802 77.2147 29.802C78.2196 29.802 79.1756 29.5386 80.0827 29.0118C80.9891 28.485 81.6634 27.8077 82.1042 26.9799V21.4861C81.6875 20.6582 81.0263 19.9809 80.1192 19.4542C79.2121 18.9023 78.2444 18.6263 77.2147 18.6263C76.1857 18.6263 75.2545 18.8772 74.4211 19.3789C73.5877 19.8555 72.9258 20.5203 72.4361 21.3732C71.9705 22.201 71.7377 23.1417 71.7377 24.1953Z" fill="black"/>
<path d="M94.5926 17.5726C95.0334 16.7197 95.7931 16.0173 96.8717 15.4654C97.9744 14.9135 99.1267 14.6376 100.327 14.6376C101.92 14.6376 103.378 15.064 104.702 15.9169C106.025 16.7698 107.067 17.9238 107.826 19.3787C108.586 20.8337 108.966 22.4392 108.966 24.1952C108.966 25.9763 108.586 27.5944 107.826 29.0493C107.067 30.5043 106.025 31.6582 104.702 32.5112C103.378 33.3641 101.92 33.7905 100.327 33.7905C99.1267 33.7905 97.9744 33.5146 96.8717 32.9627C95.7931 32.4108 95.0334 31.7084 94.5926 30.8555V33.4143H90.5117V7.07422H94.5926V17.5726ZM94.5926 26.9797C95.0334 27.8076 95.7077 28.4849 96.6141 29.0117C97.5212 29.5385 98.4772 29.8019 99.4814 29.8019C100.486 29.8019 101.406 29.5636 102.239 29.0869C103.097 28.5852 103.759 27.9079 104.224 27.055C104.714 26.2021 104.959 25.2488 104.959 24.1952C104.959 23.1416 104.714 22.2009 104.224 21.3731C103.759 20.5201 103.109 19.8554 102.276 19.3787C101.442 18.8771 100.511 18.6262 99.4814 18.6262C98.4524 18.6262 97.484 18.9022 96.5776 19.454C95.6705 19.9808 95.0093 20.6581 94.5926 21.486V26.9797Z" fill="black"/>
<path d="M120.433 33.7906C118.742 33.7906 117.186 33.3767 115.765 32.5489C114.343 31.696 113.216 30.5295 112.382 29.0495C111.55 27.5694 111.133 25.9263 111.133 24.1201C111.133 22.3641 111.537 20.7712 112.346 19.3413C113.179 17.8863 114.307 16.7449 115.727 15.9171C117.149 15.0641 118.706 14.6377 120.397 14.6377C121.99 14.6377 123.448 15.0265 124.772 15.8042C126.095 16.5819 127.136 17.6354 127.896 18.965C128.655 20.2945 129.036 21.7746 129.036 23.4052C129.036 23.8567 128.987 24.4587 128.888 25.2113H115.103C115.323 26.7416 115.911 27.9456 116.867 28.8237C117.847 29.7017 119.085 30.1407 120.58 30.1407C121.585 30.1407 122.517 29.9275 123.374 29.501C124.256 29.0495 124.893 28.4725 125.286 27.77L128.521 29.802C127.859 31.0563 126.805 32.0346 125.359 32.737C123.938 33.4394 122.296 33.7906 120.433 33.7906ZM124.882 22.201C124.734 21.022 124.22 20.0562 123.338 19.3036C122.455 18.5511 121.414 18.1748 120.213 18.1748C118.914 18.1748 117.823 18.5385 116.941 19.266C116.083 19.9684 115.507 20.9467 115.213 22.201H124.882Z" fill="black"/>
<path d="M136.524 33.4143H132.443V7.07422H136.524V33.4143Z" fill="black"/>
<path d="M157.488 6.69824C159.13 6.69824 160.772 7.06195 162.414 7.78944C164.08 8.49183 165.355 9.38238 166.237 10.4611L163.737 13.8853C162.879 12.9822 161.85 12.2672 160.649 11.7405C159.473 11.2137 158.309 10.9502 157.156 10.9502C155.98 10.9502 155.012 11.2262 154.253 11.7781C153.517 12.33 153.15 13.0449 153.15 13.9229C153.15 14.6755 153.383 15.3026 153.848 15.8043C154.338 16.306 154.939 16.7074 155.649 17.0085C156.384 17.2844 157.389 17.6105 158.664 17.9868C160.404 18.4885 161.813 19.0028 162.892 19.5295C163.994 20.0313 164.926 20.7964 165.685 21.8249C166.47 22.8284 166.862 24.1579 166.862 25.8135C166.862 27.2434 166.482 28.573 165.722 29.8021C164.987 31.0063 163.921 31.972 162.524 32.6995C161.127 33.427 159.509 33.7908 157.672 33.7908C155.76 33.7908 153.872 33.3643 152.01 32.5114C150.148 31.6585 148.64 30.5798 147.488 29.2754L150.245 26.0393C151.373 27.1431 152.524 28.0085 153.701 28.6356C154.877 29.2377 156.201 29.5387 157.672 29.5387C159.092 29.5387 160.245 29.2001 161.127 28.5228C162.009 27.8455 162.45 26.9549 162.45 25.8512C162.45 25.1237 162.217 24.5342 161.752 24.0826C161.286 23.606 160.698 23.2297 159.987 22.9538C159.276 22.6779 158.296 22.3643 157.046 22.013C155.306 21.5364 153.885 21.0598 152.782 20.5832C151.703 20.0814 150.772 19.3289 149.988 18.3255C149.204 17.297 148.811 15.9423 148.811 14.2616C148.811 12.8567 149.179 11.5774 149.915 10.4234C150.674 9.26951 151.703 8.36641 153.002 7.71421C154.326 7.03685 155.821 6.69824 157.488 6.69824Z" fill="black"/>
<path d="M177.804 33.6781C175.769 33.6781 174.127 33.051 172.877 31.7967C171.652 30.5173 171.039 28.7613 171.039 26.5287V19.003H167.584V15.0143H171.039V10.085H175.12V15.0143H179.825V19.003H175.12V26.3405C175.12 27.3941 175.426 28.2345 176.039 28.8616C176.676 29.4637 177.46 29.7647 178.392 29.7647C178.833 29.7647 179.298 29.6895 179.789 29.5389L180.009 33.2266C179.421 33.5276 178.686 33.6781 177.804 33.6781Z" fill="black"/>
<path d="M195.713 30.9692C195.174 31.8221 194.414 32.512 193.434 33.0387C192.454 33.5405 191.4 33.7913 190.272 33.7913C188.017 33.7913 186.229 33.0513 184.905 31.5712C183.582 30.0661 182.92 28.0467 182.92 25.513V15.0146H187.001V24.8358C187.001 26.3158 187.38 27.4822 188.14 28.3352C188.924 29.1881 189.966 29.6146 191.265 29.6146C192.172 29.6146 193.017 29.3888 193.802 28.9372C194.61 28.4857 195.247 27.8711 195.713 27.0934L195.75 15.0146H199.867V33.4151H195.713V30.9692Z" fill="black"/>
<path d="M217.628 21.486C217.211 20.6581 216.549 19.9808 215.643 19.454C214.735 18.9022 213.768 18.6262 212.738 18.6262C211.709 18.6262 210.778 18.8771 209.944 19.3787C209.111 19.8554 208.449 20.5201 207.959 21.3731C207.493 22.2009 207.26 23.1416 207.26 24.1952C207.26 25.2488 207.493 26.2021 207.959 27.055C208.449 27.9079 209.111 28.5852 209.944 29.0869C210.802 29.5636 211.733 29.8019 212.738 29.8019C213.743 29.8019 214.699 29.5385 215.605 29.0117C216.512 28.4849 217.186 27.8076 217.628 26.9797V21.486ZM203.254 24.1952C203.254 22.4392 203.633 20.8337 204.393 19.3787C205.153 17.9238 206.195 16.7698 207.518 15.9169C208.841 15.064 210.3 14.6376 211.893 14.6376C213.118 14.6376 214.27 14.9135 215.348 15.4654C216.426 16.0173 217.186 16.7197 217.628 17.5726V7.07422H221.708V33.4143H217.628V30.8555C217.186 31.7084 216.426 32.4108 215.348 32.9627C214.27 33.5146 213.118 33.7905 211.893 33.7905C210.3 33.7905 208.841 33.3641 207.518 32.5112C206.195 31.6582 205.153 30.5043 204.393 29.0493C203.633 27.5944 203.254 25.9763 203.254 24.1952Z" fill="black"/>
<path d="M230.114 15.0143V33.4148H226.034V15.0143H230.114ZM228.093 6.47266C228.804 6.47266 229.416 6.73604 229.931 7.26289C230.47 7.78966 230.74 8.41683 230.74 9.14431C230.74 9.8969 230.47 10.5365 229.931 11.0634C229.416 11.5902 228.804 11.8535 228.093 11.8535C227.382 11.8535 226.769 11.5902 226.255 11.0634C225.74 10.5365 225.482 9.8969 225.482 9.14431C225.482 8.41683 225.74 7.78966 226.255 7.26289C226.769 6.73604 227.382 6.47266 228.093 6.47266Z" fill="black"/>
<path d="M242.853 14.6377C244.569 14.6377 246.137 15.0641 247.559 15.9171C248.98 16.7449 250.108 17.8988 250.941 19.3789C251.775 20.8338 252.191 22.4519 252.191 24.233C252.191 26.0141 251.775 27.6321 250.941 29.087C250.108 30.542 248.98 31.696 247.559 32.5489C246.137 33.3767 244.569 33.7906 242.853 33.7906C241.113 33.7906 239.533 33.3767 238.111 32.5489C236.689 31.696 235.563 30.542 234.729 29.087C233.921 27.6321 233.516 26.0141 233.516 24.233C233.516 22.4519 233.921 20.8338 234.729 19.3789C235.563 17.8988 236.689 16.7449 238.111 15.9171C239.557 15.0641 241.138 14.6377 242.853 14.6377ZM237.523 24.233C237.523 25.2615 237.756 26.2022 238.221 27.0551C238.687 27.883 239.325 28.5477 240.133 29.0495C240.967 29.526 241.873 29.7644 242.853 29.7644C243.834 29.7644 244.728 29.526 245.537 29.0495C246.346 28.5477 246.983 27.883 247.448 27.0551C247.914 26.2022 248.147 25.2615 248.147 24.233C248.147 23.2045 247.914 22.2637 247.448 21.4108C246.983 20.5579 246.346 19.8932 245.537 19.4165C244.728 18.9148 243.834 18.6639 242.853 18.6639C241.873 18.6639 240.967 18.9148 240.133 19.4165C239.325 19.8932 238.687 20.5579 238.221 21.4108C237.756 22.2637 237.523 23.2045 237.523 24.233Z" fill="black"/>
</svg>
