<svg width="134" height="138" viewBox="0 0 134 138" fill="none" xmlns="http://www.w3.org/2000/svg">
<path d="M119.611 16.4918V15.9918H119.111H60.0556V2.08026H133.5V75.6381H119.611V16.4918ZM0.5 2.08026H14.3889V15.9918H0.5V2.08026ZM0.5 31.9034H14.3889V45.815H0.5V31.9034ZM0.5 75.6381V61.7265H14.3889V75.6381H0.5ZM0.5 91.5497H14.3889V105.461H0.5V91.5497ZM0.5 135.284V121.373H14.3889V135.284H0.5ZM30.2778 121.373H44.1667V135.284H30.2778V121.373ZM60.0556 135.284V121.373H73.9444V135.284H60.0556ZM89.8333 121.373H103.722V135.284H89.8333V121.373ZM119.611 135.284V121.373H133.5V135.284H119.611ZM119.611 91.5497H133.5V105.461H119.611V91.5497ZM30.2778 2.08026H44.1667V15.9918H30.2778V2.08026Z" stroke="#58A439"/>
</svg>
