<svg width="197" height="30" viewBox="0 0 197 30" fill="none" xmlns="http://www.w3.org/2000/svg">
<path fill-rule="evenodd" clip-rule="evenodd" d="M26.851 17.3426C24.6114 13.7048 15.6959 12.0547 16.0209 7.88143C16.2741 4.61493 20.8377 4.9311 20.8377 4.9311C20.8377 4.9311 13.6638 4.16591 12.665 9.31494C11.64 14.5949 22.3026 16.5903 23.7925 19.7059C26.1745 24.6898 18.5552 25.1695 18.5552 25.1695C26.768 25.5495 28.7461 20.4206 26.851 17.3426Z" fill="#1A1A1A"/>
<path opacity="0.5" fill-rule="evenodd" clip-rule="evenodd" d="M14.1231 17.6389C14.083 18.427 14.0733 19.1431 14.1604 19.8081C14.2448 20.4718 14.4357 21.0571 14.758 21.5574C14.9212 21.8068 15.108 22.0464 15.3335 22.2666C15.5631 22.4832 15.8107 22.6992 16.0929 22.8943C16.2271 23.0014 16.382 23.0849 16.5259 23.1897C16.6767 23.2842 16.8316 23.3771 16.9879 23.4773C17.147 23.5678 17.3089 23.6644 17.4721 23.7655C17.6381 23.8573 17.8055 23.9598 17.9729 24.0734C17.7211 24.1166 17.4652 24.1379 17.2107 24.1379C16.667 24.1379 16.1234 24.0408 15.5935 23.8497L15.303 23.7368C15.2076 23.693 15.1163 23.6421 15.0208 23.5945L14.8797 23.5209C14.8341 23.4941 14.7912 23.4628 14.7456 23.4338C14.657 23.3733 14.5657 23.3171 14.4786 23.2515C14.1355 22.9883 13.8243 22.6612 13.5863 22.2837C13.3456 21.9079 13.1824 21.4835 13.0994 21.0553C13.0178 20.6261 13.0136 20.1937 13.0759 19.7825C13.1395 19.3712 13.2626 18.9792 13.4356 18.6166C13.6126 18.2567 13.8298 17.9166 14.1231 17.6389ZM22.4369 5.8382C22.9791 5.8382 23.5241 5.9352 24.054 6.12646L24.3445 6.23946C24.4385 6.28297 24.5312 6.33386 24.6253 6.38175L24.7664 6.45508C24.8134 6.48203 24.8563 6.51322 24.9019 6.54236C24.9905 6.60283 25.0818 6.65893 25.1675 6.7246C25.512 6.98796 25.8218 7.31494 26.0612 7.6924C26.3019 8.06808 26.4651 8.49274 26.5481 8.92069C26.6297 9.35 26.6325 9.7826 26.5702 10.1936C26.5066 10.6051 26.3849 10.9969 26.2119 11.3595C26.0349 11.7193 25.8177 12.0596 25.5244 12.3371C25.5645 11.5492 25.5742 10.833 25.4871 10.1681C25.4027 9.50433 25.2118 8.91905 24.8895 8.41873C24.7263 8.16932 24.5395 7.92977 24.314 7.70936C24.083 7.49293 23.8368 7.27704 23.5532 7.08195C23.4204 6.97482 23.2655 6.89123 23.1216 6.78644C22.9708 6.69204 22.8159 6.599 22.6596 6.49886C22.4991 6.40829 22.3386 6.3117 22.1754 6.21046C22.008 6.1188 21.842 6.01646 21.6733 5.90263C21.9264 5.85954 22.1809 5.8382 22.4369 5.8382Z" fill="#1A1A1A"/>
<path fill-rule="evenodd" clip-rule="evenodd" d="M81.2207 12.3239C83.8624 12.3239 85.8885 14.6885 85.8885 17.5102C85.8885 20.3319 83.8624 22.6965 81.2207 22.6965C79.9307 22.6965 78.9223 22.0804 78.4273 21.4778L78.3405 21.3651V26.6309H75.6193V12.5425H78.3405V13.6553C78.7974 13.0194 79.8501 12.3239 81.2207 12.3239ZM56.7295 8.13116C59.7685 8.13116 61.5761 10.317 61.6754 12.4233H58.8151C58.4973 11.231 57.5637 10.7939 56.7295 10.7939C55.7165 10.7939 54.9219 11.2708 54.9021 12.1053C54.8822 12.9797 55.5178 13.4566 56.6699 13.7944L58.3185 14.2514C60.6028 14.8873 61.9733 16.3378 61.9733 18.5236C61.9733 20.928 60.0267 22.7164 57.0671 22.7164C53.6904 22.7164 51.7637 20.4312 51.6445 18.1063H54.5247C54.7233 19.3781 55.8158 20.0537 57.0671 20.0537C58.2192 20.0537 59.0733 19.5172 59.0733 18.623C59.0733 17.8679 58.537 17.2916 57.1863 16.9141L55.6966 16.4769C53.4719 15.8411 52.0219 14.4501 52.0021 12.304C51.9822 9.70096 53.9089 8.13116 56.7295 8.13116ZM191.183 12.3239C194.035 12.3239 196.394 14.3144 196.373 17.8881L196.367 18.1461H188.62C188.74 19.3184 189.613 20.3319 191.302 20.3319C192.192 20.3319 192.978 19.9684 193.337 19.3706L193.407 19.239H196.248C195.652 21.2459 193.685 22.6965 191.163 22.6965C188.124 22.6965 185.959 20.5107 185.959 17.4903C185.959 14.5296 188.163 12.3239 191.183 12.3239ZM150.682 12.3239C153.562 12.3239 155.906 14.6091 155.906 17.5102C155.906 20.4113 153.562 22.6965 150.682 22.6965C147.802 22.6965 145.458 20.4113 145.458 17.5102C145.458 14.6091 147.802 12.3239 150.682 12.3239ZM170.028 12.3239C171.318 12.3239 172.327 12.94 172.805 13.5426L172.889 13.6553V12.5425H175.61V22.4779H172.889V21.3651C172.452 22.001 171.399 22.6965 170.028 22.6965C167.387 22.6965 165.361 20.3319 165.361 17.5102C165.361 14.6885 167.387 12.3239 170.028 12.3239ZM92.4632 12.3239C95.3151 12.3239 97.6744 14.3144 97.653 17.8881L97.6474 18.1461H89.9008C90.02 19.3184 90.894 20.3319 92.5823 20.3319C93.4722 20.3319 94.2583 19.9684 94.6175 19.3706L94.6878 19.239H97.5282C96.9324 21.2459 94.9659 22.6965 92.4433 22.6965C89.4042 22.6965 87.2392 20.5107 87.2392 17.4903C87.2392 14.5296 89.444 12.3239 92.4632 12.3239ZM66.5418 12.5425V17.848C66.5418 19.3383 67.0583 20.2126 68.2302 20.2126C69.4418 20.2126 70.2761 19.3184 70.2761 17.391V12.5425H72.9973V22.4779H70.2761V21.3453C69.7597 22.1401 68.8261 22.6965 67.5549 22.6965C65.1514 22.6965 63.8206 20.9479 63.8206 18.305V12.5425H66.5418ZM161.388 9.78044V12.5425H164.189V14.927H161.388V18.464C161.388 19.6761 161.904 20.153 163.076 20.153C163.513 20.153 163.871 20.0934 164.189 19.9742V22.3786C163.752 22.5177 163.215 22.5971 162.461 22.5971C160.355 22.5971 158.667 21.4248 158.667 19.0005V14.927H156.661V12.5425H158.667V9.78044H161.388ZM181.986 9.78044V12.5425H184.787V14.927H181.986V18.464C181.986 19.6761 182.503 20.153 183.674 20.153C184.111 20.153 184.469 20.0934 184.787 19.9742V22.3786C184.35 22.5177 183.813 22.5971 183.059 22.5971C180.953 22.5971 179.265 21.4248 179.265 19.0005V14.927H177.259V12.5425H179.265V9.78044H181.986ZM139.777 12.3239C142.18 12.3239 143.611 14.0725 143.611 16.6558V22.4779H140.889V17.1128C140.889 15.6821 140.274 14.8078 139.141 14.8078C137.89 14.8078 136.937 15.7218 136.937 17.6294V22.4779H134.215V12.5425H136.937V13.6751C137.453 12.8803 138.486 12.3239 139.777 12.3239ZM127.879 12.3239C130.282 12.3239 131.713 14.0725 131.713 16.6558V22.4779H128.991V17.1128C128.991 15.6821 128.376 14.8078 127.243 14.8078C125.992 14.8078 125.039 15.7218 125.039 17.6294V22.4779H122.317V12.5425H125.039V13.6751C125.555 12.8803 126.588 12.3239 127.879 12.3239ZM104.818 12.4233C105.096 12.4233 105.394 12.4431 105.732 12.5425V15.3045C105.315 15.1654 104.937 15.086 104.5 15.086C103.209 15.086 102.355 16.0994 102.355 17.7288V22.4779H99.6337V12.5425H102.355V14.1322C102.693 13.1585 103.706 12.4233 104.818 12.4233ZM114.908 8.36961L121.006 22.4779H117.987L116.617 19.2588H110.618L109.247 22.4779H106.268L112.346 8.36961H114.908ZM170.605 14.8078C169.115 14.8078 168.102 15.9603 168.102 17.5102C168.102 19.0601 169.115 20.2126 170.605 20.2126C172.094 20.2126 173.107 19.0601 173.107 17.5102C173.107 15.9603 172.094 14.8078 170.605 14.8078ZM80.6248 14.8078C79.135 14.8078 78.122 15.9603 78.122 17.5102C78.122 19.0601 79.135 20.2126 80.6248 20.2126C82.1145 20.2126 83.1275 19.0601 83.1275 17.5102C83.1275 15.9603 82.1145 14.8078 80.6248 14.8078ZM150.682 14.8674C149.252 14.8674 148.199 15.9801 148.199 17.5102C148.199 19.0403 149.252 20.153 150.682 20.153C152.112 20.153 153.145 19.0403 153.145 17.5102C153.145 15.9801 152.112 14.8674 150.682 14.8674ZM113.617 12.1451L111.671 16.7352H115.564L113.617 12.1451ZM92.3837 14.5296C91.1982 14.5296 90.3514 15.1894 90.046 16.1882L90.0001 16.3577H94.668C94.3303 15.0263 93.3173 14.5296 92.3837 14.5296ZM191.103 14.5296C189.918 14.5296 189.071 15.1894 188.766 16.1882L188.72 16.3577H193.387C193.05 15.0263 192.037 14.5296 191.103 14.5296Z" fill="#172224"/>
</svg>
