<svg width="206" height="79" fill="none" xmlns="http://www.w3.org/2000/svg"><mask id="a" maskUnits="userSpaceOnUse" x="-2" y="-1.709" width="210" height="83" fill="#000"><path fill="#fff" d="M-2-1.709h210v83H-2z"/><path d="M45.7 2.29v75h-23v-66.7l10.5 9.7-32.7 5.7V8.19l28.2-5.9h17zm53.713 76.7c-8.666 0-16.233-1.633-22.7-4.9-6.4-3.266-11.366-7.833-14.9-13.7-3.533-5.866-5.3-12.733-5.3-20.6 0-7.866 1.767-14.733 5.3-20.6 3.534-5.866 8.5-10.433 14.9-13.7 6.467-3.266 14.034-4.9 22.7-4.9 8.6 0 16.1 1.634 22.5 4.9 6.467 3.267 11.467 7.834 15 13.7 3.6 5.867 5.4 12.734 5.4 20.6 0 7.867-1.8 14.734-5.4 20.6-3.533 5.867-8.533 10.434-15 13.7-6.4 3.267-13.9 4.9-22.5 4.9zm0-18.8c6.267 0 11.1-1.766 14.5-5.3 3.467-3.6 5.2-8.633 5.2-15.1 0-6.533-1.733-11.566-5.2-15.1-3.4-3.533-8.233-5.3-14.5-5.3-6.2 0-11.066 1.767-14.6 5.3-3.466 3.534-5.2 8.567-5.2 15.1 0 6.467 1.734 11.5 5.2 15.1 3.534 3.534 8.4 5.3 14.6 5.3zm69.457 9.7v-56h16.4v56h-16.4zm-19.8-19.8v-16.4h56v16.4h-56z"/></mask><path d="M45.7 2.29h2v-2h-2v2zm0 75v2h2v-2h-2zm-23 0h-2v2h2v-2zm0-66.7l1.357-1.469-3.357-3.1v4.57h2zm10.5 9.7l.343 1.97 3.985-.694-2.97-2.744L33.2 20.29zM.5 25.99h-2v2.38l2.343-.41L.5 25.99zm0-17.8L.09 6.234l-1.59.333V8.19h2zm28.2-5.9v-2h-.207l-.203.043.41 1.958zm15 0v75h4v-75h-4zm2 73h-23v4h23v-4zm-21 2v-66.7h-4v66.7h4zm-3.357-65.23l10.5 9.7 2.714-2.939-10.5-9.7-2.714 2.939zm11.514 6.26l-32.7 5.7.686 3.94 32.7-5.7-.686-3.94zM2.5 25.99V8.19h-4v17.8h4zM.91 10.149l28.2-5.9-.82-3.915-28.2 5.9.82 3.915zM28.7 4.291h17v-4h-17v4zm48.013 69.8l-.909 1.78.007.005.902-1.785zm-14.9-13.7l1.714-1.032-1.714 1.032zm0-41.2l1.714 1.031-1.714-1.032zm14.9-13.7l-.901-1.786-.008.004.91 1.782zm45.2 0l-.909 1.78.008.005.901-1.785zm15 13.7l-1.713 1.031.004.008.005.007 1.704-1.046zm0 41.2l-1.704-1.047-.005.008-.004.007 1.713 1.032zm-15 13.7l-.902-1.786-.007.004.909 1.782zm-8-19.2l-1.44-1.388h-.001l1.441 1.388zm0-30.2l-1.441 1.386.007.007.007.007 1.427-1.4zm-29.1 0L83.4 23.276l-.007.007-.006.007 1.427 1.4zm0 30.2l-1.44 1.387.013.013.013.014 1.414-1.414zm14.6 22.1c-8.414 0-15.66-1.585-21.798-4.686l-1.803 3.57c6.796 3.434 14.682 5.115 23.601 5.115v-4zm-21.79-4.682c-6.085-3.105-10.766-7.42-14.096-12.95L60.1 61.422c3.736 6.203 8.988 11.022 15.704 14.45l1.819-3.563zM63.526 59.36c-3.32-5.512-5.014-12.01-5.014-19.569h-4c0 8.176 1.84 15.41 5.587 21.632l3.427-2.063zm-5.013-19.57c0-7.558 1.694-14.056 5.014-19.568L60.1 18.16c-3.747 6.222-5.587 13.456-5.587 21.632h4zm5.014-19.568c3.33-5.53 8.011-9.845 14.096-12.95l-1.819-3.563C69.088 7.137 63.836 11.956 60.1 18.16l3.427 2.063zM77.615 7.276C83.752 4.176 91 2.59 99.413 2.59v-4c-8.919 0-16.805 1.681-23.602 5.114l1.804 3.57zM99.413 2.59c8.346 0 15.523 1.584 21.591 4.68l1.819-3.562C116.091.272 108.268-1.41 99.413-1.41v4zm21.599 4.685c6.151 3.107 10.86 7.421 14.188 12.946l3.427-2.063c-3.739-6.208-9.03-11.028-15.812-14.454l-1.803 3.57zm14.197 12.96c3.38 5.51 5.104 12.003 5.104 19.555h4c0-8.182-1.876-15.422-5.695-21.646l-3.409 2.092zm5.104 19.555c0 7.55-1.724 14.045-5.104 19.553l3.409 2.093c3.819-6.225 5.695-13.465 5.695-21.646h-4zM135.2 59.359c-3.328 5.525-8.037 9.84-14.188 12.946l1.803 3.57c6.782-3.425 12.073-8.245 15.812-14.453L135.2 59.36zm-14.196 12.95c-6.068 3.097-13.245 4.681-21.59 4.681v4c8.854 0 16.677-1.682 23.409-5.118l-1.819-3.563zm-21.59-10.118c6.65 0 12.066-1.887 15.94-5.914l-2.882-2.773c-2.925 3.04-7.176 4.687-13.059 4.687v4zm15.94-5.913c3.922-4.073 5.759-9.661 5.759-16.487h-4c0 6.107-1.629 10.585-4.64 13.712l2.881 2.775zm5.759-16.487c0-6.884-1.833-12.486-5.772-16.501l-2.855 2.801c2.994 3.052 4.627 7.517 4.627 13.7h4zm-5.759-16.487c-3.874-4.027-9.29-5.913-15.94-5.913v4c5.882 0 10.133 1.647 13.058 4.686l2.882-2.773zm-15.94-5.913c-6.596 0-12.02 1.891-16.015 5.885l2.829 2.829c3.072-3.073 7.38-4.715 13.185-4.715v-4zM83.385 23.29c-3.94 4.015-5.773 9.617-5.773 16.5h4c0-6.182 1.634-10.647 4.628-13.699l-2.855-2.801zm-5.773 16.5c0 6.827 1.838 12.415 5.76 16.488l2.88-2.775c-3.01-3.127-4.64-7.605-4.64-13.712h-4zM83.4 56.306c3.994 3.994 9.42 5.886 16.014 5.886v-4c-5.804 0-10.113-1.642-13.185-4.715L83.4 56.306zm85.47 13.584h-2v2h2v-2zm0-56v-2h-2v2h2zm16.4 0h2v-2h-2v2zm0 56v2h2v-2h-2zm-36.2-19.8h-2v2h2v-2zm0-16.4v-2h-2v2h2zm56 0h2v-2h-2v2zm0 16.4v2h2v-2h-2zm-34.2 19.8v-56h-4v56h4zm-2-54h16.4v-4h-16.4v4zm14.4-2v56h4v-56h-4zm2 54h-16.4v4h16.4v-4zm-34.2-17.8v-16.4h-4v16.4h4zm-2-14.4h56v-4h-56v4zm54-2v16.4h4v-16.4h-4zm2 14.4h-56v4h56v-4z" fill="#172224" mask="url(#a)"/></svg>