<svg width="197" height="78" fill="none" xmlns="http://www.w3.org/2000/svg"><mask id="a" maskUnits="userSpaceOnUse" x="-2" y="-1.709" width="201" height="81" fill="#000"><path fill="#fff" d="M-2-1.709h201v81H-2z"/><path d="M45.7 2.29v75h-23v-66.7l10.5 9.7-32.7 5.7V8.19l28.2-5.9h17zm10.013 27.4c.467-6 2.467-11.166 6-15.5 3.6-4.4 8.367-7.766 14.3-10.1 5.934-2.333 12.6-3.5 20-3.5 7.067 0 13.234 1.067 18.5 3.2 5.334 2.134 9.467 5.1 12.4 8.9 2.934 3.734 4.4 8.1 4.4 13.1 0 3.934-1.1 7.567-3.3 10.9-2.133 3.334-5.466 6.6-10 9.8-4.533 3.134-10.433 6.334-17.7 9.6l-19.1 8.8-.5-5.8h52.6v18.2h-75.7v-16l32.3-17.7c4.867-2.666 8.6-4.866 11.2-6.6 2.6-1.8 4.434-3.433 5.5-4.9 1.067-1.533 1.6-3.166 1.6-4.9 0-1.8-.5-3.366-1.5-4.7-1-1.333-2.5-2.366-4.5-3.1-1.933-.733-4.3-1.1-7.1-1.1-3.666 0-6.666.534-9 1.6-2.266 1-4 2.367-5.2 4.1a13.42 13.42 0 00-2.1 5.7h-23.1zm104.661 40.2v-56h16.4v56h-16.4zm-19.8-19.8v-16.4h56v16.4h-56z"/></mask><path d="M45.7 2.29h2v-2h-2v2zm0 75v2h2v-2h-2zm-23 0h-2v2h2v-2zm0-66.7l1.357-1.469-3.357-3.1v4.57h2zm10.5 9.7l.343 1.97 3.985-.694-2.97-2.744L33.2 20.29zM.5 25.99h-2v2.38l2.343-.41L.5 25.99zm0-17.8L.09 6.234l-1.59.333V8.19h2zm28.2-5.9v-2h-.207l-.203.043.41 1.958zm15 0v75h4v-75h-4zm2 73h-23v4h23v-4zm-21 2v-66.7h-4v66.7h4zm-3.357-65.23l10.5 9.7 2.714-2.939-10.5-9.7-2.714 2.939zm11.514 6.26l-32.7 5.7.686 3.94 32.7-5.7-.686-3.94zM2.5 25.99V8.19h-4v17.8h4zM.91 10.149l28.2-5.9-.82-3.915-28.2 5.9.82 3.915zM28.7 4.291h17v-4h-17v4zm27.013 25.4l-1.994-.156-.167 2.155h2.161v-2zm6-15.5l-1.548-1.267-.002.003 1.55 1.264zm14.3-10.1l-.732-1.862.732 1.862zm38.5-.3l-.751 1.853.009.003.742-1.856zm12.4 8.9l-1.583 1.222.005.006.006.007 1.572-1.236zm1.1 24l-1.669-1.102-.008.012-.007.011 1.684 1.078zm-10 9.8l1.137 1.645.009-.006.008-.006-1.154-1.634zm-17.7 9.6l-.82-1.825-.008.004-.009.004.837 1.816zm-19.1 8.8l-1.992.171.244 2.836 2.585-1.191-.837-1.816zm-.5-5.8v-2h-2.18l.188 2.171 1.992-.172zm52.6 0h2v-2h-2v2zm0 18.2v2h2v-2h-2zm-75.7 0h-2v2h2v-2zm0-16l-.96-1.754-1.04.569v1.184h2zm32.3-17.7l-.96-1.754.96 1.753zm11.2-6.6l1.11 1.664.014-.01.015-.01-1.139-1.645zm5.5-4.9l1.618 1.176.012-.017.012-.017-1.642-1.142zm.1-9.6l-1.6 1.2 1.6-1.2zm-4.5-3.1l-.709 1.87.01.004.011.003.688-1.878zm-16.1.5l.808 1.83.012-.006.012-.006-.832-1.819zm-5.2 4.1l-1.644-1.139-.015.022-.015.022 1.674 1.095zm-2.1 5.7v2h1.759l.225-1.744-1.984-.256zm-21.106.155c.438-5.627 2.3-10.398 5.556-14.392l-3.1-2.527c-3.81 4.673-5.948 10.235-6.444 16.608l3.988.31zm5.554-14.389c3.358-4.104 7.83-7.282 13.484-9.505l-1.464-3.723c-6.212 2.443-11.274 6-15.116 10.695l3.096 2.533zm13.484-9.505c5.666-2.228 12.08-3.361 19.268-3.361v-4c-7.61 0-14.53 1.2-20.732 3.638l1.464 3.723zM96.013 2.59c6.87 0 12.772 1.037 17.749 3.053l1.502-3.707c-5.555-2.25-11.987-3.346-19.25-3.346v4zm17.758 3.056c5.066 2.027 8.884 4.8 11.559 8.266l3.166-2.445c-3.191-4.134-7.64-7.295-13.24-9.534l-1.485 3.713zm11.57 8.28c2.641 3.36 3.972 7.286 3.972 11.864h4c0-5.423-1.601-10.23-4.827-14.336l-3.145 2.471zm3.972 11.864c0 3.535-.981 6.786-2.969 9.798l3.338 2.203c2.413-3.655 3.631-7.67 3.631-12.002h-4zm-2.984 9.821c-1.95 3.047-5.068 6.138-9.469 9.245l2.307 3.267c4.665-3.293 8.214-6.735 10.531-10.355l-3.369-2.157zm-9.453 9.233c-4.4 3.041-10.183 6.185-17.383 9.421l1.64 3.649c7.334-3.297 13.351-6.554 18.017-9.78l-2.274-3.29zm-17.4 9.429l-19.1 8.8 1.674 3.633 19.1-8.8-1.674-3.633zm-16.27 10.445l-.5-5.8-3.985.343.5 5.8 3.985-.343zm-2.493-3.628h52.6v-4h-52.6v4zm50.6-2v18.2h4v-18.2h-4zm2 16.2h-75.7v4h75.7v-4zm-73.7 2v-16h-4v16h4zm-1.039-14.247l32.3-17.7-1.922-3.507-32.3 17.7 1.922 3.507zm32.3-17.7c4.885-2.676 8.677-4.909 11.349-6.69l-2.219-3.328c-2.529 1.686-6.204 3.854-11.052 6.51l1.922 3.508zm11.378-6.71c2.668-1.847 4.717-3.632 5.979-5.367l-3.235-2.353c-.871 1.198-2.49 2.68-5.021 4.432l2.277 3.289zm6.003-5.401c1.281-1.841 1.958-3.869 1.958-6.042h-4c0 1.292-.389 2.532-1.242 3.757l3.284 2.285zm1.958-6.042c0-2.197-.619-4.193-1.9-5.9l-3.2 2.4c.719.958 1.1 2.096 1.1 3.5h4zm-1.9-5.9c-1.288-1.719-3.148-2.948-5.411-3.778l-1.377 3.755c1.737.637 2.877 1.474 3.588 2.422l3.2-2.4zm-5.39-3.77c-2.225-.844-4.848-1.23-7.81-1.23v4c2.638 0 4.749.347 6.391.97l1.419-3.74zm-7.81-1.23c-3.84 0-7.15.555-9.831 1.78l1.663 3.638c1.985-.907 4.674-1.418 8.168-1.418v-4zm-9.807 1.77c-2.544 1.122-4.593 2.705-6.037 4.791l3.289 2.277c.955-1.38 2.373-2.531 4.363-3.409l-1.615-3.66zm-6.067 4.835a15.423 15.423 0 00-2.41 6.539l3.968.512c.228-1.77.823-3.383 1.79-4.862l-3.348-2.189zm-.426 4.794h-23.1v4h23.1v-4zm81.561 42.2h-2v2h2v-2zm0-56v-2h-2v2h2zm16.4 0h2v-2h-2v2zm0 56v2h2v-2h-2zm-36.2-19.8h-2v2h2v-2zm0-16.4v-2h-2v2h2zm56 0h2v-2h-2v2zm0 16.4v2h2v-2h-2zm-34.2 19.8v-56h-4v56h4zm-2-54h16.4v-4h-16.4v4zm14.4-2v56h4v-56h-4zm2 54h-16.4v4h16.4v-4zm-34.2-17.8v-16.4h-4v16.4h4zm-2-14.4h56v-4h-56v4zm54-2v16.4h4v-16.4h-4zm2 14.4h-56v4h56v-4z" fill="#172224" mask="url(#a)"/></svg>