<svg width="381" height="79" fill="none" xmlns="http://www.w3.org/2000/svg"><mask id="a" maskUnits="userSpaceOnUse" x="-2" y="-1.709" width="385" height="83" fill="#000"><path fill="#fff" d="M-2-1.709h385v83H-2z"/><path d="M45.7 2.29v75h-23v-66.7l10.5 9.7-32.7 5.7V8.19l28.2-5.9h17zm19.213 0h60.1v16.9h-53.3l9.1-3.6-4.1 25.4h-5.5c1.467-2.533 3.434-4.833 5.9-6.9 2.534-2.066 5.634-3.7 9.3-4.9 3.734-1.266 8.1-1.9 13.1-1.9 6.4 0 11.934 1.034 16.6 3.1 4.667 2.067 8.267 4.934 10.8 8.6 2.6 3.667 3.9 7.934 3.9 12.8 0 5.334-1.466 10.034-4.4 14.1-2.933 4.067-7.2 7.267-12.8 9.6-5.533 2.334-12.2 3.5-20 3.5-7.533 0-14.133-1.1-19.8-3.3-5.6-2.2-10-5.166-13.2-8.9-3.133-3.8-4.866-8-5.2-12.6h23c.534 2.067 2.1 3.767 4.7 5.1 2.667 1.334 6.167 2 10.5 2 2.934 0 5.434-.366 7.5-1.1 2.134-.8 3.767-1.9 4.9-3.3 1.134-1.466 1.7-3.2 1.7-5.2 0-1.866-.533-3.533-1.6-5-1.066-1.466-2.633-2.6-4.7-3.4-2.066-.8-4.566-1.2-7.5-1.2-2.466 0-4.7.267-6.7.8-2 .467-3.733 1.134-5.2 2-1.4.8-2.633 1.667-3.7 2.6h-20.2l6.8-45.2zm116.239 76.7c-8.667 0-16.234-1.633-22.7-4.9-6.4-3.266-11.367-7.833-14.9-13.7-3.534-5.866-5.3-12.733-5.3-20.6 0-7.866 1.766-14.733 5.3-20.6 3.533-5.866 8.5-10.433 14.9-13.7 6.466-3.266 14.033-4.9 22.7-4.9 8.6 0 16.1 1.634 22.5 4.9 6.466 3.267 11.466 7.834 15 13.7 3.6 5.867 5.4 12.734 5.4 20.6 0 7.867-1.8 14.734-5.4 20.6-3.534 5.867-8.534 10.434-15 13.7-6.4 3.267-13.9 4.9-22.5 4.9zm0-18.8c6.266 0 11.1-1.766 14.5-5.3 3.466-3.6 5.2-8.633 5.2-15.1 0-6.533-1.734-11.566-5.2-15.1-3.4-3.533-8.234-5.3-14.5-5.3-6.2 0-11.067 1.767-14.6 5.3-3.467 3.534-5.2 8.567-5.2 15.1 0 6.467 1.733 11.5 5.2 15.1 3.533 3.534 8.4 5.3 14.6 5.3zm93.457 18.8c-8.667 0-16.234-1.633-22.7-4.9-6.4-3.266-11.367-7.833-14.9-13.7-3.534-5.866-5.3-12.733-5.3-20.6 0-7.866 1.766-14.733 5.3-20.6 3.533-5.866 8.5-10.433 14.9-13.7 6.466-3.266 14.033-4.9 22.7-4.9 8.6 0 16.1 1.634 22.5 4.9 6.466 3.267 11.466 7.834 15 13.7 3.6 5.867 5.4 12.734 5.4 20.6 0 7.867-1.8 14.734-5.4 20.6-3.534 5.867-8.534 10.434-15 13.7-6.4 3.267-13.9 4.9-22.5 4.9zm0-18.8c6.266 0 11.1-1.766 14.5-5.3 3.466-3.6 5.2-8.633 5.2-15.1 0-6.533-1.734-11.566-5.2-15.1-3.4-3.533-8.234-5.3-14.5-5.3-6.2 0-11.067 1.767-14.6 5.3-3.467 3.534-5.2 8.567-5.2 15.1 0 6.467 1.733 11.5 5.2 15.1 3.533 3.534 8.4 5.3 14.6 5.3zm69.457 9.7v-56h16.4v56h-16.4zm-19.8-19.8v-16.4h56v16.4h-56z"/></mask><path d="M45.7 2.29h2v-2h-2v2zm0 75v2h2v-2h-2zm-23 0h-2v2h2v-2zm0-66.7l1.357-1.469-3.357-3.1v4.57h2zm10.5 9.7l.343 1.97 3.985-.694-2.97-2.744L33.2 20.29zM.5 25.99h-2v2.38l2.343-.41L.5 25.99zm0-17.8L.09 6.234l-1.59.333V8.19h2zm28.2-5.9v-2h-.207l-.203.043.41 1.958zm15 0v75h4v-75h-4zm2 73h-23v4h23v-4zm-21 2v-66.7h-4v66.7h4zm-3.357-65.23l10.5 9.7 2.714-2.939-10.5-9.7-2.714 2.939zm11.514 6.26l-32.7 5.7.686 3.94 32.7-5.7-.686-3.94zM2.5 25.99V8.19h-4v17.8h4zM.91 10.149l28.2-5.9-.82-3.915-28.2 5.9.82 3.915zM28.7 4.291h17v-4h-17v4zm36.213-2v-2h-1.721l-.257 1.702 1.978.298zm60.1 0h2v-2h-2v2zm0 16.9v2h2v-2h-2zm-53.3 0l-.735-1.86.735 3.86v-2zm9.1-3.6l1.975.318.56-3.472-3.27 1.294.735 1.86zm-4.1 25.4v2h1.703l.272-1.682-1.975-.319zm-5.5 0l-1.73-1.002-1.739 3.002h3.47v-2zm5.9-6.9l-1.264-1.55-.01.008-.01.008 1.284 1.533zm9.3-4.9l.622 1.9.01-.003.01-.004-.642-1.893zm29.7 1.2l.81-1.83-.81 1.83zm10.8 8.6l-1.645 1.136.007.01.007.01 1.631-1.157zm-13.3 36.5l-.769-1.847-.008.004.777 1.843zm-39.8.2l-.731 1.861.007.003.724-1.865zm-13.2-8.9l-1.543 1.272.012.015.013.014 1.518-1.302zm-5.2-12.6v-2h-2.15l.156 2.144 1.994-.145zm23 0l1.937-.5-.387-1.5h-1.55v2zm4.7 5.1l-.912 1.78.009.004.009.004.894-1.788zm18 .9l.669 1.884.017-.006.017-.006-.703-1.873zm4.9-3.3l1.555 1.258.014-.018.014-.018-1.583-1.222zm.1-10.2l1.618-1.177-1.618 1.176zm-4.7-3.4l-.722 1.865.722-1.865zm-14.2-.4l.455 1.947.03-.007.03-.008-.515-1.932zm-5.2 2l.993 1.736.012-.007.013-.008-1.018-1.721zm-3.7 2.6v2h.752l.565-.495-1.317-1.506zm-20.2 0l-1.977-.298-.346 2.297h2.323v-2zm6.8-43.2h60.1v-4h-60.1v4zm58.1-2v16.9h4V2.29h-4zm2 14.9h-53.3v4h53.3v-4zm-52.564 3.86l9.1-3.6-1.471-3.72-9.1 3.6 1.471 3.72zm6.39-5.78l-4.1 25.4 3.949.638 4.1-25.4-3.95-.637zm-2.126 23.72h-5.5v4h5.5v-4zm-3.769 3.002c1.339-2.313 3.148-4.438 5.454-6.37l-2.57-3.066c-2.627 2.202-4.751 4.677-6.346 7.431l3.462 2.005zm5.433-6.353c2.312-1.886 5.184-3.412 8.658-4.549l-1.244-3.801c-3.859 1.263-7.187 3.003-9.942 5.25l2.528 3.1zm8.679-4.556c3.48-1.18 7.62-1.793 12.457-1.793v-4c-5.162 0-9.755.653-13.742 2.006l1.285 3.787zm12.457-1.793c6.19 0 11.435 1 15.79 2.928l1.62-3.657c-4.978-2.205-10.799-3.271-17.41-3.271v4zm15.79 2.928c4.38 1.94 7.67 4.587 9.965 7.908l3.291-2.273c-2.772-4.012-6.682-7.098-11.636-9.292l-1.62 3.657zm9.979 7.928c2.34 3.3 3.531 7.155 3.531 11.644h4c0-5.245-1.408-9.924-4.268-13.957l-3.263 2.313zm3.531 11.644c0 4.941-1.35 9.226-4.022 12.93l3.244 2.34c3.195-4.43 4.778-9.546 4.778-15.27h-4zm-4.022 12.93c-2.675 3.709-6.616 6.702-11.947 8.923l1.539 3.693c5.869-2.446 10.461-5.852 13.652-10.276l-3.244-2.34zm-11.955 8.927c-5.226 2.203-11.613 3.343-19.223 3.343v4c7.991 0 14.936-1.195 20.777-3.658l-1.554-3.685zM93.613 76.99c-7.343 0-13.688-1.073-19.076-3.165l-1.448 3.729c5.946 2.308 12.8 3.435 20.524 3.435v-4zm-19.068-3.162c-5.363-2.107-9.468-4.904-12.413-8.34l-3.037 2.603c3.455 4.031 8.15 7.167 13.987 9.46l1.463-3.723zm-12.389-8.31c-2.888-3.504-4.447-7.315-4.748-11.473l-3.99.29c.366 5.041 2.274 9.63 5.652 13.727l3.086-2.545zm-6.743-9.329h23v-4h-23v4zm21.064-1.5c.723 2.803 2.81 4.886 5.724 6.38l1.825-3.56c-2.287-1.172-3.333-2.488-3.676-3.82l-3.873 1zm5.742 6.39c3.041 1.52 6.88 2.21 11.394 2.21v-4c-4.153 0-7.313-.642-9.605-1.788l-1.79 3.577zm11.394 2.21c3.09 0 5.829-.384 8.169-1.215l-1.338-3.77c-1.793.637-4.053.986-6.83.986v4zm8.203-1.227c2.379-.892 4.342-2.173 5.752-3.914l-3.109-2.517c-.857 1.059-2.161 1.978-4.048 2.686l1.405 3.745zm5.78-3.95c1.426-1.845 2.117-4.017 2.117-6.422h-4c0 1.594-.442 2.889-1.282 3.977l3.165 2.445zm2.117-6.422c0-2.277-.659-4.358-1.982-6.177l-3.235 2.353c.81 1.114 1.217 2.366 1.217 3.824h4zm-1.982-6.177c-1.339-1.84-3.251-3.18-5.596-4.089l-1.444 3.73c1.789.693 3.01 1.619 3.805 2.712l3.235-2.353zm-5.596-4.089c-2.358-.912-5.117-1.334-8.222-1.334v4c2.762 0 5.003.377 6.778 1.065l1.444-3.73zm-8.222-1.334c-2.608 0-5.019.281-7.215.867l1.03 3.865c1.804-.48 3.86-.733 6.185-.733v-4zm-7.154.852c-2.159.504-4.09 1.237-5.763 2.226l2.035 3.443c1.26-.744 2.795-1.344 4.637-1.774l-.91-3.895zm-5.738 2.211c-1.5.857-2.845 1.8-4.025 2.831l2.634 3.01c.954-.834 2.076-1.625 3.376-2.368l-1.985-3.473zm-2.708 2.336h-20.2v4h20.2v-4zm-18.222 2.298l6.8-45.2-3.956-.595-6.8 45.2 3.956.595zm98.361 26.303l-.91 1.78.008.005.902-1.785zm-14.9-13.7l1.713-1.032-1.713 1.032zm0-41.2l1.713 1.031-1.713-1.032zm14.9-13.7l-.902-1.786-.008.004.91 1.782zm45.2 0l-.91 1.78.008.005.902-1.785zm15 13.7l-1.714 1.031.005.008.004.007 1.705-1.046zm0 41.2l-1.705-1.047-.004.008-.005.007 1.714 1.032zm-15 13.7l-.902-1.786-.008.004.91 1.782zm-8-19.2l-1.441-1.388h-.001l1.442 1.388zm0-30.2l-1.442 1.386.007.007.007.007 1.428-1.4zm-29.1 0l-1.415-1.415-.006.007-.007.007 1.428 1.4zm0 30.2l-1.441 1.387.013.013.013.014 1.415-1.414zm14.6 22.1c-8.415 0-15.661-1.585-21.799-4.686l-1.803 3.57c6.796 3.434 14.683 5.115 23.602 5.115v-4zm-21.791-4.682c-6.085-3.105-10.765-7.42-14.096-12.95l-3.427 2.063c3.736 6.203 8.989 11.022 15.704 14.45l1.819-3.563zm-14.096-12.95c-3.319-5.512-5.013-12.01-5.013-19.569h-4c0 8.176 1.839 15.41 5.586 21.632l3.427-2.063zm-5.013-19.569c0-7.558 1.694-14.056 5.013-19.568l-3.427-2.063c-3.747 6.222-5.586 13.456-5.586 21.632h4zm5.013-19.568c3.331-5.53 8.011-9.845 14.096-12.95l-1.819-3.563c-6.715 3.428-11.968 8.247-15.704 14.45l3.427 2.063zm14.088-12.946c6.138-3.1 13.384-4.685 21.799-4.685v-4c-8.919 0-16.806 1.681-23.602 5.114l1.803 3.57zm21.799-4.685c8.345 0 15.522 1.584 21.59 4.68l1.819-3.562C197.829.272 190.006-1.41 181.152-1.41v4zm21.598 4.685c6.151 3.107 10.861 7.421 14.188 12.946l3.427-2.063c-3.739-6.208-9.029-11.028-15.812-14.454l-1.803 3.57zm14.197 12.96c3.38 5.51 5.105 12.003 5.105 19.555h4c0-8.182-1.876-15.422-5.696-21.646l-3.409 2.092zm5.105 19.555c0 7.55-1.725 14.045-5.105 19.553l3.409 2.093c3.82-6.225 5.696-13.465 5.696-21.646h-4zm-5.114 19.568c-3.327 5.525-8.037 9.84-14.188 12.946l1.803 3.57c6.783-3.425 12.073-8.245 15.812-14.453l-3.427-2.063zm-14.196 12.95c-6.068 3.097-13.245 4.681-21.59 4.681v4c8.854 0 16.677-1.682 23.409-5.118l-1.819-3.563zm-21.59-10.118c6.651 0 12.066-1.887 15.941-5.914l-2.883-2.773c-2.925 3.04-7.176 4.687-13.058 4.687v4zm15.94-5.913c3.922-4.073 5.76-9.661 5.76-16.487h-4c0 6.107-1.63 10.585-4.641 13.712l2.881 2.775zm5.76-16.487c0-6.884-1.834-12.486-5.773-16.501l-2.855 2.801c2.994 3.052 4.628 7.517 4.628 13.7h4zm-5.759-16.487c-3.875-4.027-9.29-5.913-15.941-5.913v4c5.882 0 10.133 1.647 13.058 4.686l2.883-2.773zm-15.941-5.913c-6.596 0-12.02 1.891-16.015 5.885l2.829 2.829c3.072-3.073 7.381-4.715 13.186-4.715v-4zm-16.028 5.899c-3.939 4.015-5.772 9.617-5.772 16.5h4c0-6.182 1.633-10.647 4.627-13.699l-2.855-2.801zm-5.772 16.5c0 6.827 1.837 12.415 5.759 16.488l2.881-2.775c-3.011-3.127-4.64-7.605-4.64-13.712h-4zm5.785 16.515c3.995 3.994 9.419 5.886 16.015 5.886v-4c-5.805 0-10.114-1.642-13.186-4.715l-2.829 2.829zm86.772 17.786l-.91 1.78.008.005.902-1.785zm-14.9-13.7l1.713-1.032-1.713 1.032zm0-41.2l1.713 1.031-1.713-1.032zm14.9-13.7l-.902-1.786-.008.004.91 1.782zm45.2 0l-.91 1.78.008.005.902-1.785zm15 13.7l-1.714 1.031.005.008.004.007 1.705-1.046zm0 41.2l-1.705-1.047-.004.008-.005.007 1.714 1.032zm-15 13.7l-.902-1.786-.008.004.91 1.782zm-8-19.2l-1.441-1.388h-.001l1.442 1.388zm0-30.2l-1.442 1.386.007.007.007.007 1.428-1.4zm-29.1 0l-1.415-1.415-.006.007-.007.007 1.428 1.4zm0 30.2l-1.441 1.387.013.013.013.014 1.415-1.414zm14.6 22.1c-8.415 0-15.661-1.585-21.799-4.686l-1.803 3.57c6.796 3.434 14.683 5.115 23.602 5.115v-4zm-21.791-4.682c-6.085-3.105-10.765-7.42-14.096-12.95l-3.427 2.063c3.736 6.203 8.989 11.022 15.704 14.45l1.819-3.563zm-14.096-12.95c-3.319-5.512-5.013-12.01-5.013-19.569h-4c0 8.176 1.839 15.41 5.586 21.632l3.427-2.063zm-5.013-19.569c0-7.558 1.694-14.056 5.013-19.568l-3.427-2.063c-3.747 6.222-5.586 13.456-5.586 21.632h4zm5.013-19.568c3.331-5.53 8.011-9.845 14.096-12.95l-1.819-3.563c-6.715 3.428-11.968 8.247-15.704 14.45l3.427 2.063zM252.81 7.276c6.138-3.1 13.384-4.685 21.799-4.685v-4c-8.919 0-16.806 1.681-23.602 5.114l1.803 3.57zm21.799-4.685c8.345 0 15.522 1.584 21.59 4.68l1.819-3.562c-6.732-3.436-14.555-5.118-23.409-5.118v4zm21.598 4.685c6.151 3.107 10.861 7.421 14.188 12.946l3.427-2.063c-3.739-6.208-9.029-11.028-15.812-14.454l-1.803 3.57zm14.197 12.96c3.38 5.51 5.105 12.003 5.105 19.555h4c0-8.182-1.876-15.422-5.696-21.646l-3.409 2.092zm5.105 19.555c0 7.55-1.725 14.045-5.105 19.553l3.409 2.093c3.82-6.225 5.696-13.465 5.696-21.646h-4zm-5.114 19.568c-3.327 5.525-8.037 9.84-14.188 12.946l1.803 3.57c6.783-3.425 12.073-8.245 15.812-14.453l-3.427-2.063zm-14.196 12.95c-6.068 3.097-13.245 4.681-21.59 4.681v4c8.854 0 16.677-1.682 23.409-5.118l-1.819-3.563zm-21.59-10.118c6.651 0 12.066-1.887 15.941-5.914l-2.883-2.773c-2.925 3.04-7.176 4.687-13.058 4.687v4zm15.94-5.913c3.922-4.073 5.76-9.661 5.76-16.487h-4c0 6.107-1.63 10.585-4.641 13.712l2.881 2.775zm5.76-16.487c0-6.884-1.834-12.486-5.773-16.501l-2.855 2.801c2.994 3.052 4.628 7.517 4.628 13.7h4zm-5.759-16.487c-3.875-4.027-9.29-5.913-15.941-5.913v4c5.882 0 10.133 1.647 13.058 4.686l2.883-2.773zm-15.941-5.913c-6.596 0-12.02 1.891-16.015 5.885l2.829 2.829c3.072-3.073 7.381-4.715 13.186-4.715v-4zm-16.028 5.899c-3.939 4.015-5.772 9.617-5.772 16.5h4c0-6.182 1.633-10.647 4.627-13.699l-2.855-2.801zm-5.772 16.5c0 6.827 1.837 12.415 5.759 16.488l2.881-2.775c-3.011-3.127-4.64-7.605-4.64-13.712h-4zm5.785 16.515c3.995 3.994 9.419 5.886 16.015 5.886v-4c-5.805 0-10.114-1.642-13.186-4.715l-2.829 2.829zm85.472 13.586h-2v2h2v-2zm0-56v-2h-2v2h2zm16.4 0h2v-2h-2v2zm0 56v2h2v-2h-2zm-36.2-19.8h-2v2h2v-2zm0-16.4v-2h-2v2h2zm56 0h2v-2h-2v2zm0 16.4v2h2v-2h-2zm-34.2 19.8v-56h-4v56h4zm-2-54h16.4v-4h-16.4v4zm14.4-2v56h4v-56h-4zm2 54h-16.4v4h16.4v-4zm-34.2-17.8v-16.4h-4v16.4h4zm-2-14.4h56v-4h-56v4zm54-2v16.4h4v-16.4h-4zm2 14.4h-56v4h56v-4z" fill="#172224" mask="url(#a)"/></svg>