<svg width="48" height="49" fill="none" xmlns="http://www.w3.org/2000/svg"><path d="M30.339 22.603c-1.075-.618-.926-2.2-.4-3.335.012-.024.02-.05.031-.073a5.274 5.274 0 00-2.211.75A12.711 12.711 0 0022 29.903c.01 3.409 2.274 4.72 5.265 2.993a12.694 12.694 0 005.758-9.956 6.347 6.347 0 00-.085-1.06 2.274 2.274 0 01-2.599.724zM16.04 32.739a23.456 23.456 0 014.161-12.44 84.332 84.332 0 00-12.356 16.7 68.52 68.52 0 00-.818 1.478c.078.053.085.062.174.12.2.127.4.252.61.375a18.42 18.42 0 0013.671 1.949c-3.835-.66-5.43-4.26-5.442-8.182z" fill="#172224"/><path d="M32.964 18.075c-.493-.282-1.319.477-1.663.94 0 .006 0 .014-.007.02-.493.67-1.109 2.264-.428 2.657h.031c.586.279 1.445-.63 1.815-1.239 0-.006.013-.01.018-.017.427-.707.795-2.038.234-2.361z" fill="#172224"/><path d="M27.742 14.302c-5.892 3.4-10.67 11.67-10.65 18.434.018 6.542 4.486 9.1 10.2 5.806 5.892-3.4 10.67-11.678 10.65-18.447-.022-6.485-4.467-9.104-10.2-5.793zm6.335 8.634a13.852 13.852 0 01-6.284 10.868c-3.7 2.14-6.83.311-6.84-3.9a13.87 13.87 0 016.283-10.87 5.667 5.667 0 013.4-.854c.76-.913 1.907-1.564 2.855-1.017 1.152.662.92 2.418.24 3.648.233.684.35 1.402.346 2.125z" fill="#172224"/><path d="M46.868 13.671l-.015-.005A18.64 18.64 0 0033.61 11.93c3.8.7 5.367 4.3 5.378 8.163a23.531 23.531 0 01-4.236 12.557c6.948-6.942 12-15.95 13.251-18.29a14.49 14.49 0 00-1.134-.688z" fill="#172224"/><path d="M27.224 13.378a20.564 20.564 0 0114.58-2.658l-1.66-.97c-2.8-1.624-10.307-4.831-19.444.45C12.507 14.929 4.459 26.016 0 34.34l6.13 3.572c2.133-3.951 10.428-18.368 21.094-24.534z" fill="#172224"/></svg>