<svg width="48" height="49" fill="none" xmlns="http://www.w3.org/2000/svg"><path d="M14.208 23.684l2.541 1.48c-.02-.043-.035-.092-.055-.136a10.095 10.095 0 01-.8-4.054c-.018-6.36 4.47-14.137 10.007-17.339a10.645 10.645 0 014.177-1.4L27.533.76c-3.88-2.262-9.42 2.333-12.015 5.998a20.284 20.284 0 00-3.907 11.116c.012 2.787.934 4.845 2.597 5.81zm4.739 3.969l2.4 6.128 3.877 2.253-2.991-7.618a5.797 5.797 0 01-3.286-.763z" fill="#172224"/><path d="M45.772 31.724a4.04 4.04 0 00-3.61 0 1.26 1.26 0 00-.539.53l-10.16 1.232a5.311 5.311 0 00-1.857-1.668 8.95 8.95 0 00-1.206-.576l-1.636 6.127a.528.528 0 01-.766.316l-5.33-3.1a.52.52 0 01-.224-.26l-1.251-3.182a9.438 9.438 0 00-1.459.674c-1.472.858-2.282 1.97-2.28 3.127.002.16.02.32.051.476L5 36.695a4.04 4.04 0 00-3.608 0c-.375.218-.59.488-.59.74 0 .253.22.53.6.75a4.04 4.04 0 003.608 0c.219-.113.4-.286.524-.5l10.395-1.26a5.27 5.27 0 001.854 1.67 10.94 10.94 0 003.756 1.233l-2.385 6.497a3.625 3.625 0 00-1.705.42c-.376.218-.591.488-.59.74 0 .251.22.53.6.75a4.047 4.047 0 003.609 0c.375-.218.59-.489.589-.74-.001-.252-.22-.53-.6-.75a3.044 3.044 0 00-.832-.317l2.377-6.473a12.551 12.551 0 007.05-1.359c1.475-.857 2.287-1.966 2.285-3.122a2.465 2.465 0 00-.052-.483l10.337-1.253a4.054 4.054 0 003.56-.024c.375-.218.59-.488.59-.74s-.217-.53-.599-.75z" fill="#172224"/><path d="M26.426 4.543c-5.246 3.029-9.496 10.395-9.483 16.43.01 3.771 1.858 6.788 5.575 6.366a.555.555 0 01.53.312c.047.1 3.2 8.016 3.116 7.915l3.221-12.065a.517.517 0 01.128-.226c3.627-3.78 5.963-9.116 5.95-13.594-.008-2.8-.934-4.867-2.61-5.83-1.987-1.143-4.46-.445-6.427.692zm4.287 8.45a9.44 9.44 0 01-4.27 7.422c-2.608 1.49-4.739.167-4.756-2.699a9.466 9.466 0 014.302-7.432c2.523-1.459 4.724-.208 4.724 2.71z" fill="#172224"/></svg>