<svg width="48" height="49" fill="none" xmlns="http://www.w3.org/2000/svg"><path d="M33.996 20.223l-7.757-4.508-2.1 1.214 7.757 4.509 2.1-1.215zm-3.143 1.815l-7.732-4.494-2.062 1.19 7.733 4.493 2.06-1.19zm.55.918l-2.063 1.19.014 2.743 2.063-1.191-.014-2.742zm-5.79 2.107l2.137-1.234-7.758-4.508-2.137 1.234 7.758 4.508z" fill="#172224"/><path d="M32.462 25.996a.524.524 0 01-.26.455l-3.1 1.79a.52.52 0 01-.782-.448l-.017-3.076-2.164 1.25.027 8.865 8.383-4.84-.026-8.866-2.077 1.2.016 3.67z" fill="#172224"/><path d="M25.899 36.19a.522.522 0 01-.522 0l-8.8-5.114a.523.523 0 01-.26-.45l-.02-7.238-8.791 5.078 20.552 11.94 14.715-8.49-7.19-4.181.008 2.554a.52.52 0 01-.261.454l-9.431 5.447z" fill="#172224"/><path d="M17.366 30.32l7.753 4.506-.027-8.86-7.752-4.5v1.029l.026 7.826zm26.243 5.457l-1.8 1.04c.295.674.437 1.405.416 2.14l1.227-.717a1.243 1.243 0 00.44-1.083 3.9 3.9 0 00-.283-1.38zM28.331 44.6c-.428.25-.709-.181-1.794-.738a5.591 5.591 0 011.171 3.473l1.237-.716a1.191 1.191 0 00.44-1.083 3.852 3.852 0 00-.29-1.377l-.764.44zm-3.806-1.198c-1.014-.587-1.63-.166-1.632.927a4.788 4.788 0 002.139 3.7c.772.446 1.444.36 1.6-.54v-.011a4.665 4.665 0 00-2.107-4.076zm16.389-6.012c-.006-.014-.015-.031-.02-.046l-2.4 1.386c.289.37.643.684 1.044.928.8.46 1.492.318 1.618-.6v-.015a3.56 3.56 0 00-.242-1.653z" fill="#172224"/><path d="M43.305 34.748l-.007-1.928-14.977 8.639a.518.518 0 01-.523 0l-20.8-12.086.006 1.93c24.946 14.495-4.015-2.331 21.071 12.243l15.23-8.798zM9.807 36.946l1.242-.721a1.221 1.221 0 00.44-1.093v-.013l-2.837-1.65a5.665 5.665 0 011.155 3.477zM19.438.33a.2.2 0 00-.13-.04.826.826 0 00-.37.13L8.498 6.44a2.575 2.575 0 00-1.1 1.63 1 1 0 00.07.74l4.79 6.25c.21.302.316.664.3 1.03l.03 8.23 1.84-1.06-.02-8.83c.005-.391.086-.779.24-1.14l4.76-11.78c.26-.65.15-1.07.03-1.18zm-6.07 11.3a.32.32 0 01-.11.15l-.49.28-2.94-3.84a.752.752 0 01.32-.57l6.29-3.63-3.07 7.61zM6.632 32.997c-.964-.556-1.63-.211-1.632.933a4.79 4.79 0 002.139 3.7c.847.49 1.466.336 1.615-.648a4.689 4.689 0 00-2.122-3.985z" fill="#172224"/></svg>