<svg width="48" height="49" fill="none" xmlns="http://www.w3.org/2000/svg"><path d="M46.1 16.387l-.02.01-17.737-10.07a.228.228 0 00-.25 0 .262.262 0 00-.146.22l-.2 3.558a.708.708 0 001.409.125 1.314 1.314 0 012.045-.95l12.522 8.484L18.086 32.57c.136.073 1.252.72 1.346.782L47.459 17.18l-1.358-.793zM17.564 33.478L.43 23.743a.422.422 0 00-.24.323L0 27.625a.708.708 0 001.409.125 1.31 1.31 0 01.75-1.054 1.288 1.288 0 011.284.1l14.129 9.62.02 4.947c0 .219.053.386.147.438l1.2.689-.032-8.233c-.133-.079-1.24-.716-1.344-.78zm16.837-4.234a1.375 1.375 0 00-.63.882l-.37 1.757 1.848 1.062c.05.219-.82-3.6-.844-3.7l-.004-.001z" fill="#172224"/><path d="M47.98 18.077L19.953 34.26l.031 8.494c0 .51.23.553.584.344l9.851-5.687a2.5 2.5 0 001.064-1.565l1.263-5.937c.106-.482.353-.922.71-1.263.8-.772 1.773-.521 1.961.345.261 1.127.761 3.37 1.022 4.5.073.313.293.282.574.115l9.882-5.708A2.49 2.49 0 0048 25.976l-.02-7.9zM28.75 36.463l-6.439 3.725a.182.182 0 00-.063.03v-.061l-.01-4.174a1.332 1.332 0 01.574-1l6.438-3.715c.031-.021.042-.031.063-.031v.063l.01 4.173a1.33 1.33 0 01-.574.99zm16.392-9.485L38.7 30.692a.246.246 0 00-.053.032.14.14 0 01-.01-.063l-.01-4.174a1.348 1.348 0 01.574-1c4.718-2.713 6.076-3.492 6.416-3.684a.754.754 0 00.074-.036l.01-.006c.02.136.01.72.02 4.216a1.366 1.366 0 01-.579 1z" fill="#172224"/></svg>