<svg width="48" height="49" fill="none" xmlns="http://www.w3.org/2000/svg"><path d="M1 38.056l17.538 10.127.082-21.24L1.079 16.816 1 38.056zm7.4 1.621a.48.48 0 01-.208-.05l-3.15-1.83a.425.425 0 01-.2-.36l-.017-2.53a.422.422 0 01.635-.369l3.142 1.83a.4.4 0 01.209.36l.008 2.531a.41.41 0 01-.417.418H8.4zm.021-6.17a.5.5 0 01-.212-.06l-3.19-1.853a.429.429 0 01-.2-.364l-.017-2.564a.44.44 0 01.211-.372.433.433 0 01.432 0l3.182 1.853a.42.42 0 01.211.364l.009 2.564a.421.421 0 01-.424.432h-.002zm6.16 9.591a.416.416 0 01-.418 0l-3.152-1.839a.411.411 0 01-.209-.36l-.008-2.533a.422.422 0 01.418-.416c.073 0 .146.02.209.056l3.152 1.831a.42.42 0 01.209.36l.008 2.533a.416.416 0 01-.207.368h-.002zm.005-6.207a.413.413 0 01-.419 0l-3.16-1.835a.434.434 0 01-.21-.36l-.008-2.548a.434.434 0 01.21-.36.418.418 0 01.419 0l3.16 1.835a.422.422 0 01.209.36l.008 2.54a.416.416 0 01-.207.368h-.002zM10.91 25.238a.433.433 0 01.44 0l3.316 1.926a.456.456 0 01.22.378l.009 2.666a.44.44 0 01-.66.387l-3.316-1.927a.443.443 0 01-.22-.378l-.009-2.665a.458.458 0 01.222-.387h-.002zM4.939 21.77a.448.448 0 01.448 0l3.317 1.926a.45.45 0 01.211.387l.009 2.666a.436.436 0 01-.66.378L4.948 25.2a.435.435 0 01-.212-.378l-.017-2.665a.457.457 0 01.219-.387h.001zm5.545-4.296l8.66 5 18-10.463-8.66-5-18 10.463z" fill="#172224"/><path d="M7.748 15.896l1.686.973L28.22 5.95a.523.523 0 01.527 0l9.446 5.456 1.688-.98-11.4-6.58-20.733 12.05zM37.23 39.147l3.872 2.236a.526.526 0 010 .909l-6.316 3.67a.525.525 0 01-.527 0l-4.4-2.537-2.115 1.23 6.3 3.635 11.19-6.5-6.3-3.636-1.705.993z" fill="#172224"/><path d="M28.481.29L1.61 15.908l17.54 10.127 26.872-15.616L28.481.29zm-9.07 23.248a.525.525 0 01-.528 0L6.438 16.354a.526.526 0 010-.91L28.224 2.783a.523.523 0 01.527 0l12.446 7.186a.526.526 0 010 .91L19.41 23.538zm.264 3.407l-.083 21.231 9.733-5.657.025-6.451a.523.523 0 01.262-.453l6.4-3.72a.525.525 0 01.789.457l-.023 5.836 9.679-5.626.08-21.228-26.862 15.61zm14.378-5.672a.424.424 0 01.21-.36l3.159-1.835a.413.413 0 01.419 0 .4.4 0 01.21.36l-.008 2.54a.424.424 0 01-.21.36l-3.16 1.834a.413.413 0 01-.42 0 .42.42 0 01-.208-.36l.008-2.54zm-11.951 6.925a.438.438 0 01.212-.364l3.19-1.852a.421.421 0 01.635.372l-.01 2.564a.427.427 0 01-.21.364l-3.191 1.852a.424.424 0 01-.634-.364l.008-2.572zm4.108 7.157a.454.454 0 01-.22.379l-3.316 1.925a.44.44 0 01-.66-.386l.008-2.666a.448.448 0 01.22-.379l3.317-1.925a.438.438 0 01.66.387l-.01 2.665zm5.962-3.47a.436.436 0 01-.211.38l-3.316 1.925a.44.44 0 01-.66-.386l.009-2.666a.437.437 0 01.22-.379l3.307-1.925a.445.445 0 01.669.387l-.018 2.665zm0-6.423a.436.436 0 01-.211.38l-3.316 1.925a.438.438 0 01-.44 0 .426.426 0 01-.22-.377l.009-2.666a.414.414 0 01.22-.378l3.307-1.927a.434.434 0 01.61.156.47.47 0 01.059.223l-.018 2.665zm5.89 2.94a.427.427 0 01-.212.364l-3.19 1.854a.421.421 0 01-.576-.155.437.437 0 01-.06-.21l.01-2.563a.44.44 0 01.21-.372l3.194-1.854a.416.416 0 01.423 0 .423.423 0 01.21.372l-.01 2.564zm6.05-3.454a.442.442 0 01-.22.378l-3.316 1.927a.433.433 0 01-.44 0 .426.426 0 01-.22-.378l.009-2.666a.416.416 0 01.22-.378l3.317-1.927a.416.416 0 01.439 0 .432.432 0 01.22.378l-.008 2.666zm0-6.422a.442.442 0 01-.22.378l-3.316 1.927a.438.438 0 01-.44 0 .427.427 0 01-.22-.38l.009-2.665a.425.425 0 01.22-.378l3.317-1.927a.436.436 0 01.599.16.456.456 0 01.06.219l-.008 2.666zm-9.591 26.376l5.27-3.062-3.61-2.084-5.269 3.062 3.61 2.084z" fill="#172224"/><path d="M30.379 41.895l5.347-3.107.022-5.523-5.347 3.108-.022 5.522z" fill="#172224"/></svg>