<svg width="48" height="49" fill="none" xmlns="http://www.w3.org/2000/svg"><path d="M30.239 12.508c-7.3 4.206-13.452 14.832-13.428 23.203.02 7.034 4.129 9.298 10.216 5.792 7.313-4.213 13.47-14.845 13.446-23.216-.02-6.96-4.072-9.331-10.234-5.78zm4.574 11.985L27.46 34.13a1.336 1.336 0 01-1.07.535 1.352 1.352 0 01-1.365-1.351l-.031-10.775a1.352 1.352 0 011.563-1.34l7.38 1.134a1.36 1.36 0 011.051.831 1.353 1.353 0 01-.176 1.326v.004z" fill="#172224"/><path d="M33.78 23.365L26.4 22.23a.312.312 0 00-.36.309l.029 10.775a.3.3 0 00.214.299.302.302 0 00.347-.108l7.352-9.634a.312.312 0 00-.2-.499l-.002-.007z" fill="#172224"/><path d="M7.692 41.897l5.552 3.218a15.847 15.847 0 01-2.114-8.329C11.1 25.76 18.938 12.483 28.305 7.072a16.122 16.122 0 018.323-2.388h.157l-5.542-3.202C19.743-5.202 2.958 17.8 3 31.465c.016 4.982 1.682 8.688 4.692 10.432z" fill="#172224"/><path d="M28.836 7.98c-9.183 5.288-16.692 18.257-16.658 28.803.03 10.396 7.22 14.444 16.248 9.248 9.229-5.317 16.712-18.243 16.683-28.817-.03-10.23-7.111-14.51-16.273-9.234zm12.679 10.304c.025 8.698-6.371 19.745-13.968 24.12-6.7 3.86-11.76 1.29-11.78-6.69-.025-8.698 6.363-19.738 13.949-24.108 6.773-3.903 11.779-1.23 11.799 6.678z" fill="#172224"/></svg>