<svg width="36" height="49" fill="none" xmlns="http://www.w3.org/2000/svg"><path d="M1.016 17.378l4.847 2.813L35.088 3.324 30.242.5 1.016 17.378zm-.516.917l.074 27.392L5.41 48.5l-.074-27.392L.5 18.295zm5.893 2.813c.1 37.554.067 24.582.074 27.392l29.226-16.867-.075-27.4L6.393 21.108zM8.53 39.429l-.05-16.815a.548.548 0 01.264-.463l24.01-13.865a.527.527 0 01.79.453l.053 16.825a.55.55 0 01-.263.464L9.322 39.893a.529.529 0 01-.794-.464h.003zm25.49-9.561L13.975 41.442v1.236a.525.525 0 11-1.053.003v-.632l-2.723 1.572a.527.527 0 11-.526-.913l3.245-1.874v-1.435a.526.526 0 111.054-.003v.831l19.522-11.271a.527.527 0 01.526.913l.003-.001z" fill="#172224"/><path d="M20.755 18.31a10.634 10.634 0 00-4.88 8.46c.01 3.35 2.53 4.77 5.44 3.09a10.765 10.765 0 004.88-8.44c-.01-3.35-2.52-4.79-5.44-3.11zm2.93 4.84l-3.23 4.24a.532.532 0 01-.59.18.54.54 0 01-.36-.49l-.01-4.75a.537.537 0 01.18-.4.524.524 0 01.43-.12l3.24.5a.505.505 0 01.41.32.516.516 0 01-.07.52z" fill="#172224"/></svg>