<svg width="28" height="49" fill="none" xmlns="http://www.w3.org/2000/svg"><path d="M27.86 7.037l-4.79 2.764a.527.527 0 01-.79-.455l-.016-5.64-16.772 9.683.1 35.111L27.94 35.6l-.08-28.563zM7.884 15.553L19.56 8.814a.526.526 0 11.526.912l-11.674 6.74a.527.527 0 01-.526-.913zm17.75 17.9L8.411 43.396a.529.529 0 01-.526-.917l17.224-9.943a.527.527 0 01.526.913v.004zm0-5.386L8.411 38.011a.527.527 0 01-.526-.912l17.224-9.944a.526.526 0 11.526.912zm0-5.385L8.411 32.626a.527.527 0 01-.526-.913L25.11 21.77a.527.527 0 01.526.913zm0-5.386L8.411 27.24a.527.527 0 01-.526-.912l17.224-9.944a.527.527 0 11.526.912zm0-5.384L8.411 21.855a.527.527 0 01-.526-.913L25.11 11a.527.527 0 01.526.913zM17.794.5L1.02 10.184l3.945 2.292 16.772-9.683L17.794.5z" fill="#172224"/><path d="M23.333 8.425l4.014-2.317L23.32 3.72v1.288l.013 3.417zM4.44 13.389L.5 11.099l.1 35.106 3.939 2.29-.099-35.106z" fill="#172224"/></svg>