<svg width="37" height="49" fill="none" xmlns="http://www.w3.org/2000/svg"><path d="M6.857 20.098l-5.29-3.112a4.276 4.276 0 00-1.551 2.718l5.29 3.108a5.552 5.552 0 011.551-2.714zm.939-.661L35.109 3.473l.1-.052L30.35.56a.977.977 0 00-.949.152L2.584 16.37l5.212 3.067zM5.208 23.97L0 20.913l.019 11.16c.005.02.017.022.017.054l.02 11.734a1.011 1.011 0 00.344.894l4.867 2.864v-.08l-.06-23.567zm31.73-18.842c0-.95-.529-1.2-1.306-.748L8.056 20.494c-.523.35-.958.82-1.272 1.37a4.143 4.143 0 00-.536 1.799l.06 23.87c0 .884.48 1.232 1.305.748L35.19 32.17c.524-.35.96-.82 1.274-1.37.314-.55.498-1.167.536-1.801l-.062-23.87zm-2.166 24.38C14.402 41.41 21.11 37.495 9.046 44.54a.514.514 0 01-.706-.192.53.53 0 01-.07-.261l-.06-20.479a.534.534 0 01.259-.456L34.196 8.13a.513.513 0 01.707.19c.046.08.07.17.07.262l.058 20.479a.53.53 0 01-.26.452v-.004z" fill="#172224"/><path d="M9.248 23.913l.054 19.27 1.361-.795 4.604-11.453a.523.523 0 01.41-.324.512.512 0 01.48.2l3.024 3.922 5.62-13.978a.525.525 0 01.409-.321.503.503 0 01.48.2l6.885 8.955 1.42-.83-.054-19.27L9.248 23.913zm8.616 4.19a1.565 1.565 0 01-2.388-.543 1.61 1.61 0 01-.15-.919 4.47 4.47 0 01.58-2.012c.35-.614.84-1.135 1.43-1.518a1.57 1.57 0 012.385.559c.139.284.19.604.15.919a4.45 4.45 0 01-.58 2.004 4.388 4.388 0 01-1.427 1.51z" fill="#172224"/></svg>