<svg width="35" height="49" fill="none" xmlns="http://www.w3.org/2000/svg"><path d="M12.729 44.76l3.659 3.144a3.674 3.674 0 003.675.182l7.767-4.508a.917.917 0 00.55-.682v-1.137l-.017.01-7.761 4.506h-.006a4.916 4.916 0 01-4.44.012c-.382-.234-1.462-1.2-2.483-2.073l-.944.547zM.054 40.667v4.46a1.13 1.13 0 00.4 1.024l2 1.16c-.01-.166 0 1.064-.033-13.637L2.396 22.14a5.61 5.61 0 012.562-4.447L32.427 1.835a3.4 3.4 0 01.187-.1L30.624.578a1.15 1.15 0 00-1.121.163L2.037 16.59A4.584 4.584 0 000 20.13l.048 20.526c.002.006.006.005.006.012z" fill="#172224"/><path d="M16.667 45.368a3.893 3.893 0 003.413 0l7.76-4.514c.926-.538.552-1.206-.341-1.525l-3.211-1.245-9.657 5.576c1.816 1.557 2.139 1.793 2.036 1.708zm5.058-15.163a.522.522 0 00.52-.523l-.038-13.246a.522.522 0 00-.52-.521.51.51 0 00-.523.524l.038 13.246a.522.522 0 00.523.52zm2.675-3.833a.52.52 0 00.52-.523l-.024-8.687a.522.522 0 10-1.043.003l.025 8.687a.52.52 0 00.523.52zm2.61-3.774a.52.52 0 00.522-.523l-.012-4.161a.523.523 0 00-1.004-.197.52.52 0 00-.04.2l.013 4.16a.521.521 0 00.522.52zM13.657 32.879a.52.52 0 00.52-.524l-.026-9.284a.523.523 0 00-.522-.52.5.5 0 00-.521.523l.026 9.285a.522.522 0 00.523.52zm2.639-4.095a.522.522 0 00.52-.523l-.012-4.16a.522.522 0 00-1.042.003l.01 4.16a.522.522 0 00.524.52zm-5.308 3.463a.522.522 0 00.52-.523l-.014-4.947a.523.523 0 00-.522-.52.571.571 0 00-.52.524l.013 4.946a.52.52 0 00.523.52zm8.048-2.649a.522.522 0 00.52-.523l-.025-8.928a.52.52 0 10-1.04.003l.024 8.928a.521.521 0 00.521.52z" fill="#172224"/><path d="M3.45 22.134l.022 11.558.03 13.435c0 1.072.624 1.4 1.535.87 9.338-5.433 14.981-8.671 27.46-15.854a4.578 4.578 0 002.04-3.535l-.055-24.99c0-1.115-.674-1.374-1.535-.876L5.49 18.598a4.582 4.582 0 00-2.04 3.536zm16.62 15.814l-1.578.91a.521.521 0 11-.522-.9l1.578-.91a.522.522 0 01.521.9zm11.8-32.464a.523.523 0 01.782.45l.054 21.719a.52.52 0 01-.26.453L6.112 43.31a.521.521 0 01-.782-.451l-.055-21.718a.522.522 0 01.261-.454L31.87 5.484z" fill="#172224"/></svg>