<svg width="527" height="447" fill="none" xmlns="http://www.w3.org/2000/svg"><path d="M395.214 235.326l1.404-20.398-12.546 35.284 11.142-14.886z" stroke="#292929" stroke-opacity=".7" stroke-width="1.5" stroke-miterlimit="10" stroke-linejoin="round"/><path d="M395.214 235.326l-11.142 14.886c-.289 11.484-.384 17.161-.537 28.044l11.679-42.93zm-11.143 14.886c-2.311-12.428-3.484-18.8-5.919-31.422 7.234-1.38 14.827-2.476 18.465-3.856l-12.546 35.278z" stroke="#292929" stroke-opacity=".7" stroke-width="1.5" stroke-miterlimit="10" stroke-linejoin="round"/><path d="M384.071 250.212c-.289 11.484-.383 17.161-.536 28.044-2.494-22.674-3.555-35.166-5.383-59.466 2.435 12.621 3.608 18.988 5.919 31.422z" stroke="#292929" stroke-opacity=".7" stroke-width="1.5" stroke-miterlimit="10" stroke-linejoin="round"/><path d="M378.154 218.784c-2.682 20.716-3.932 31.298-6.668 50.971 5.4 3.419 7.835 5.117 12.05 8.495-2.499-22.668-3.56-35.166-5.382-59.466z" stroke="#292929" stroke-opacity=".7" stroke-width="1.5" stroke-miterlimit="10" stroke-linejoin="round"/><path d="M371.486 269.761c-2.117 15.729-3.184 23.345-5.666 37.034 8.637-10.682 12.18-16.489 17.716-28.539-4.221-3.378-6.65-5.082-12.05-8.495zm-.001 0c-5.607-4.416-8.719-6.644-15.428-11.131 10.334-15.634 14.756-23.764 22.095-39.84-2.682 20.71-3.932 31.298-6.667 50.971z" stroke="#292929" stroke-opacity=".7" stroke-width="1.5" stroke-miterlimit="10" stroke-linejoin="round"/><path d="M356.057 258.63c3.896 20.569 5.854 30.597 9.762 48.165 2.482-13.689 3.549-21.306 5.666-37.035-5.613-4.415-8.719-6.644-15.428-11.13z" stroke="#292929" stroke-opacity=".7" stroke-width="1.5" stroke-miterlimit="10" stroke-linejoin="round"/><path d="M356.057 258.63c-7.823 23.67-12.457 35.62-22.178 54.455 14.178-2.37 20.905-3.743 31.941-6.29-3.909-17.568-5.872-27.596-9.763-48.165z" stroke="#292929" stroke-opacity=".7" stroke-width="1.5" stroke-miterlimit="10" stroke-linejoin="round"/><path d="M333.879 313.086c2.264 8.112 3.401 11.879 5.689 18.605 11.561-8.365 17.191-13.695 26.246-24.896-11.03 2.547-17.757 3.921-31.935 6.291zm45.27-129.633c-.531 13.854-.737 21.046-.997 35.336 7.234-1.379 14.827-2.476 18.465-3.855l-17.468-31.481zm17.469 31.475l-2.989-17.898-14.479-13.577 17.468 31.475z" stroke="#292929" stroke-opacity=".7" stroke-width="1.5" stroke-miterlimit="10" stroke-linejoin="round"/><path d="M378.153 218.783c-7.576-13.099-12.257-19.672-23.128-32.453 11.319-1.126 16.283-1.704 24.13-2.877-.536 13.854-.743 21.046-1.002 35.33z" stroke="#292929" stroke-opacity=".7" stroke-width="1.5" stroke-miterlimit="10" stroke-linejoin="round"/><path d="M378.153 218.783c-7.34 16.077-11.761 24.213-22.096 39.841-.631-28.327-.825-43.897-1.032-72.3 10.871 12.787 15.546 19.36 23.128 32.459z" stroke="#292929" stroke-opacity=".7" stroke-width="1.5" stroke-miterlimit="10" stroke-linejoin="round"/><path d="M355.025 186.33c10.689-12.669 15.476-18.883 23.641-30.745.153 10.718.235 16.366.483 27.868-7.841 1.173-12.805 1.751-24.124 2.877zm1.033 72.3c-13.754 18.458-22.491 27.926-40.513 43.614 7.558 4.451 11.242 6.62 18.334 10.841 9.722-18.835 14.356-30.785 22.179-54.455zm-1.032-72.3c-3.024 22.202-4.469 34.069-7.452 56.701a925.284 925.284 0 018.484 15.599c-.631-28.327-.826-43.896-1.032-72.3z" stroke="#292929" stroke-opacity=".7" stroke-width="1.5" stroke-miterlimit="10" stroke-linejoin="round"/><path d="M347.574 243.031c-11.348 25.155-18.146 38.261-32.029 59.213 18.022-15.694 26.759-25.162 40.513-43.614a996.686 996.686 0 00-8.484-15.599zm-13.695 70.054c-6.19 15.552-9.32 22.084-15.775 31.299 8.931-4.221 13.264-6.762 21.47-12.693-2.287-6.726-3.431-10.488-5.695-18.606zm-28.427 20.563c5.117 4.716 7.652 6.874 12.651 10.736-11.732 1.332-17.892 1.939-30.343 3.159l17.692-13.895z" stroke="#292929" stroke-opacity=".7" stroke-width="1.5" stroke-miterlimit="10" stroke-linejoin="round"/><path d="M305.451 333.648c11.826-6.997 17.592-11.118 28.428-20.563-6.191 15.552-9.321 22.084-15.776 31.299-5-3.856-7.535-6.013-12.652-10.736z" stroke="#292929" stroke-opacity=".7" stroke-width="1.5" stroke-miterlimit="10" stroke-linejoin="round"/><path d="M305.451 333.648c4.038-10.323 6.031-16.807 10.093-31.404 7.558 4.451 11.242 6.62 18.335 10.841-10.836 9.45-16.602 13.565-28.428 20.563zm-54.461-7.145c9.238-1.715 13.89-2.57 23.11-4.315 12.752 4.822 19.101 7.104 31.345 11.46-21.081-2.995-32.436-4.386-54.455-7.145z" stroke="#292929" stroke-opacity=".7" stroke-width="1.5" stroke-miterlimit="10" stroke-linejoin="round"/><path d="M274.1 322.188c16.984-7.199 25.485-11.131 41.438-19.944-4.062 14.597-6.055 21.081-10.093 31.404-12.245-4.357-18.594-6.638-31.345-11.46zm73.473-79.157c-11.767.861-18.411 1.297-32.501 2.228.301 24.407.195 36.728.472 56.985 13.878-20.952 20.681-34.052 32.029-59.213z" stroke="#292929" stroke-opacity=".7" stroke-width="1.5" stroke-miterlimit="10" stroke-linejoin="round"/><path d="M315.545 302.244c-18.823-5.784-29.058-8.725-49.385-14.898 3.19 15.605 4.769 22.792 7.947 34.842 16.979-7.199 25.486-11.131 41.438-19.944z" stroke="#292929" stroke-opacity=".7" stroke-width="1.5" stroke-miterlimit="10" stroke-linejoin="round"/><path d="M315.545 302.244c-12.398-21.972-18.723-35.113-32.07-61.931 13.111 1.981 19.531 2.966 31.599 4.947.3 24.406.194 36.728.471 56.984z" stroke="#292929" stroke-opacity=".7" stroke-width="1.5" stroke-miterlimit="10" stroke-linejoin="round"/><path d="M283.475 240.319c-6.998 19.909-10.5 29.713-17.321 47.033 20.327 6.173 30.562 9.12 49.386 14.898-12.392-21.978-18.718-35.119-32.065-61.931z" stroke="#292929" stroke-opacity=".7" stroke-width="1.5" stroke-miterlimit="10" stroke-linejoin="round"/><path d="M266.153 287.346c-6.108 17.922-9.12 26.069-15.163 39.157 9.238-1.716 13.89-2.57 23.11-4.315-3.172-12.05-4.752-19.237-7.947-34.842zm81.42-44.315c2.983-22.632 4.428-34.505 7.452-56.701-14.113 22.98-22.108 35.242-39.947 58.93 14.084-.932 20.728-1.368 32.495-2.229zm31.093-87.445c-8.165 11.861-12.952 18.075-23.641 30.744 2.459-23.77 3.779-35.39 6.332-54.962l17.309 24.218z" stroke="#292929" stroke-opacity=".7" stroke-width="1.5" stroke-miterlimit="10" stroke-linejoin="round"/><path d="M355.025 186.33c-16.065 3.608-25.839 5.382-46.685 8.925 2.865 19.826 4.186 30.202 6.738 50.005 17.84-23.682 25.834-35.95 39.947-58.93z" stroke="#292929" stroke-opacity=".7" stroke-width="1.5" stroke-miterlimit="10" stroke-linejoin="round"/><path d="M308.335 195.255c-9.521 17.651-14.455 26.901-24.86 45.064 13.111 1.981 19.531 2.965 31.599 4.946-2.553-19.808-3.868-30.184-6.739-50.01zm-24.861 45.064c-29.359 11.496-45.14 16.831-72.613 27.083 21.3 8.49 32.943 12.44 55.293 19.944 6.827-17.314 10.322-27.118 17.32-47.027z" stroke="#292929" stroke-opacity=".7" stroke-width="1.5" stroke-miterlimit="10" stroke-linejoin="round"/><path d="M210.867 267.403c.159 13.193.242 19.566.307 31.133 21.093-4.363 32.583-6.562 54.986-11.184-22.356-7.51-33.999-11.46-55.293-19.949zm144.159-81.073c-16.389-10.488-26.794-15.918-48.489-25.881.708 13.194 1.15 20.392 1.804 34.806 20.84-3.543 30.62-5.317 46.685-8.925z" stroke="#292929" stroke-opacity=".7" stroke-width="1.5" stroke-miterlimit="10" stroke-linejoin="round"/><path d="M361.357 131.368c-7.988 8.731-12.28 13.359-21.341 23.003 6.502 12.215 9.468 18.724 15.009 31.959 2.453-23.77 3.779-35.39 6.332-54.962z" stroke="#292929" stroke-opacity=".7" stroke-width="1.5" stroke-miterlimit="10" stroke-linejoin="round"/><path d="M340.011 154.371c-12.416 2.453-19.319 3.608-33.48 6.073 21.695 9.969 32.106 15.392 48.489 25.88-5.535-13.229-8.501-19.732-15.009-31.953zm-33.48 6.078c-8.831 29.347-13.099 47.033-23.056 79.87 10.405-18.163 15.339-27.413 24.86-45.064-.654-14.414-1.096-21.612-1.804-34.806zm-23.057 79.87c-10.706-7.009-16.253-10.605-27.283-17.851-18.913 18.671-28.121 27.791-45.33 44.94 27.478-10.257 43.254-15.593 72.613-27.089z" stroke="#292929" stroke-opacity=".7" stroke-width="1.5" stroke-miterlimit="10" stroke-linejoin="round"/><path d="M283.473 240.319c9.957-32.837 14.226-50.523 23.057-79.87-19.131 22.868-29.436 35.909-50.341 62.019 11.037 7.24 16.578 10.842 27.284 17.851zm-72.606 27.084c-7.275-12.186-10.712-18.488-17.297-31.075 6.58 26.317 10.382 40.047 17.604 62.208-.065-11.567-.153-17.94-.307-31.133z" stroke="#292929" stroke-opacity=".7" stroke-width="1.5" stroke-miterlimit="10" stroke-linejoin="round"/><path d="M193.57 236.328c22.703-5.453 36.009-8.165 62.626-13.86-18.912 18.671-28.12 27.791-45.329 44.94-7.275-12.191-10.712-18.493-17.297-31.08zm62.626-13.866c-6.809-8.147-10.164-12.191-16.766-20.126 27.372-17.922 41.574-26.27 67.1-41.893-19.13 22.868-29.435 35.909-50.334 62.019z" stroke="#292929" stroke-opacity=".7" stroke-width="1.5" stroke-miterlimit="10" stroke-linejoin="round"/><path d="M239.429 202.341c-10.629 2.417-15.852 3.602-25.839 5.949 16.241 5.571 24.984 8.377 42.605 14.172a8419.005 8419.005 0 01-16.766-20.121z" stroke="#292929" stroke-opacity=".7" stroke-width="1.5" stroke-miterlimit="10" stroke-linejoin="round"/><path d="M193.57 236.328c22.703-5.453 36.009-8.165 62.626-13.86-17.621-5.795-26.363-8.601-42.605-14.172-8.354 11.254-12.357 16.913-20.021 28.032zm146.441-81.957c-6.685-12.144-10.358-17.963-17.621-27.897-6.267 12.186-9.433 19.137-15.865 33.969 14.173-2.464 21.07-3.619 33.486-6.072z" stroke="#292929" stroke-opacity=".7" stroke-width="1.5" stroke-miterlimit="10" stroke-linejoin="round"/><path d="M322.395 126.474c17.137 1.793 25.385 2.848 38.962 4.893-7.988 8.731-12.28 13.359-21.341 23.004-6.686-12.144-10.364-17.963-17.621-27.897zM213.591 208.29c-16.448-.601-24.254-.914-37.913-1.556 6.773 11.761 10.346 17.745 17.892 29.594 7.664-11.118 11.667-16.778 20.021-28.038z" stroke="#292929" stroke-opacity=".7" stroke-width="1.5" stroke-miterlimit="10" stroke-linejoin="round"/><path d="M175.678 206.734c4.221-11.219 6.402-16.82 11.018-27.679 10.181 11.39 15.593 17.279 26.901 29.235-16.46-.601-24.266-.914-37.919-1.556z" stroke="#292929" stroke-opacity=".7" stroke-width="1.5" stroke-miterlimit="10" stroke-linejoin="round"/><path d="M186.689 179.055c13.023-5.3 20.392-8.089 35.255-13.229-3.373 16.094-5.171 25.002-8.36 42.458-11.301-11.944-16.713-17.839-26.895-29.229zm119.841-18.606c-17.314-9.049-26.47-13.194-44.492-21.029-8.89 21.819-13.353 35.272-22.608 62.921 27.372-17.921 41.574-26.269 67.1-41.892z" stroke="#292929" stroke-opacity=".7" stroke-width="1.5" stroke-miterlimit="10" stroke-linejoin="round"/><path d="M262.039 139.415c24.931-5.288 37.665-7.829 60.357-12.941-6.267 12.186-9.433 19.137-15.865 33.969-17.314-9.043-26.47-13.188-44.492-21.028zm-22.61 62.927c-7.145-15.175-10.617-22.621-17.485-36.51-3.373 16.094-5.171 25.002-8.36 42.458 9.993-2.346 15.216-3.531 25.845-5.948z" stroke="#292929" stroke-opacity=".7" stroke-width="1.5" stroke-miterlimit="10" stroke-linejoin="round"/><path d="M221.943 165.832c15.8-11.402 23.983-16.667 40.095-26.412-8.891 21.819-13.353 35.272-22.609 62.921-7.145-15.18-10.618-22.626-17.486-36.509zm100.452-39.358c-16.607-6.944-25.609-9.963-43.654-15.487-6.65 9.61-9.987 15.434-16.696 28.428 24.925-5.283 37.659-7.829 60.35-12.941z" stroke="#292929" stroke-opacity=".7" stroke-width="1.5" stroke-miterlimit="10" stroke-linejoin="round"/><path d="M322.395 126.475c-3.502-14.733-5.211-20.899-8.713-29.448-13.565 4.97-20.663 7.753-34.948 13.96 18.052 5.53 27.054 8.543 43.661 15.488z" stroke="#292929" stroke-opacity=".7" stroke-width="1.5" stroke-miterlimit="10" stroke-linejoin="round"/><path d="M339.438 116.382c-6.597 3.897-10.022 5.919-17.043 10.093-3.502-14.733-5.212-20.899-8.713-29.448l25.756 19.355z" stroke="#292929" stroke-opacity=".7" stroke-width="1.5" stroke-miterlimit="10" stroke-linejoin="round"/><path d="M339.438 116.381c-6.597 3.897-10.022 5.919-17.043 10.093 17.137 1.792 25.385 2.848 38.962 4.893l-21.919-14.986zM193.57 236.328c-14.485 2.341-21.182 3.508-32.595 5.866 5.553-14.072 8.471-21.282 14.703-35.46 6.773 11.761 10.346 17.745 17.892 29.594z" stroke="#292929" stroke-opacity=".7" stroke-width="1.5" stroke-miterlimit="10" stroke-linejoin="round"/><path d="M175.678 206.734c-12.739 5.995-18.417 8.984-27.643 14.968 4.705 8.218 7.299 12.333 12.946 20.486 5.548-14.072 8.466-21.282 14.697-35.454z" stroke="#292929" stroke-opacity=".7" stroke-width="1.5" stroke-miterlimit="10" stroke-linejoin="round"/><path d="M175.678 206.734c4.221-11.219 6.403-16.82 11.019-27.679-18.435 16.731-26.364 25.415-38.662 42.647 9.226-5.984 14.898-8.973 27.643-14.968zm17.891 29.594c-4.799 9.138-7.127 13.678-11.667 22.538 10.706 16.714 16.932 25.209 29.271 39.67-7.222-22.166-11.025-35.891-17.604-62.208z" stroke="#292929" stroke-opacity=".7" stroke-width="1.5" stroke-miterlimit="10" stroke-linejoin="round"/><path d="M160.975 242.194c11.407-2.358 18.11-3.525 32.595-5.866-4.799 9.138-7.128 13.678-11.667 22.538l-20.928-16.672zM278.74 110.987c-14.143 6.014-21.364 9.303-35.537 16.543 7.493 4.539 11.278 6.915 18.842 11.885 6.703-12.988 10.039-18.818 16.695-28.428zm0 0c3.131-6.903 4.699-9.88 7.823-14.62 11.078.336 16.566.454 27.125.666-13.571 4.964-20.669 7.752-34.948 13.954z" stroke="#292929" stroke-opacity=".7" stroke-width="1.5" stroke-miterlimit="10" stroke-linejoin="round"/><path d="M243.197 127.53c14.173-7.24 21.4-10.529 35.537-16.543 3.131-6.903 4.699-9.88 7.823-14.62l-43.36 31.163zm-.001 0c-8.507 13.341-12.746 21.217-21.253 38.296 15.8-11.402 23.983-16.666 40.095-26.411-7.558-4.964-11.343-7.34-18.842-11.885zm-32.022 171.006c15.487 12.71 23.617 18.317 39.823 27.973 6.043-13.088 9.055-21.235 15.163-39.157-22.403 4.622-33.893 6.821-54.986 11.184z" stroke="#292929" stroke-opacity=".7" stroke-width="1.5" stroke-miterlimit="10" stroke-linejoin="round"/><path d="M250.99 326.503c5.194 5.177 7.8 7.546 12.999 11.768 16.849-1.887 25.35-2.771 41.456-4.617-21.081-3-32.436-4.392-54.455-7.151z" stroke="#292929" stroke-opacity=".7" stroke-width="1.5" stroke-miterlimit="10" stroke-linejoin="round"/><path d="M287.76 347.543c-9.426-3.283-14.213-5.14-23.764-9.279 16.849-1.886 25.35-2.771 41.456-4.616l-17.692 13.895z" stroke="#292929" stroke-opacity=".7" stroke-width="1.5" stroke-miterlimit="10" stroke-linejoin="round"/><path d="M274.266 353.828l-10.276-15.557c9.551 4.138 14.338 5.989 23.764 9.279l-13.488 6.278z" stroke="#292929" stroke-opacity=".7" stroke-width="1.5" stroke-miterlimit="10" stroke-linejoin="round"/><path d="M263.995 338.271c-14.88-.024-22.408.041-36.946.294 9.462-4.415 14.284-6.832 23.947-12.062 5.193 5.177 7.793 7.546 12.999 11.768zm.001 0l10.276 15.557c-13.554-.536-23.723.006-37.2-.289l26.924-15.268z" stroke="#292929" stroke-opacity=".7" stroke-width="1.5" stroke-miterlimit="10" stroke-linejoin="round"/><path d="M263.995 338.27c-14.88-.023-22.408.042-36.946.295l10.022 14.974 26.924-15.269zm-13.004-11.767c-15.44-.342-23.181-.454-37.895-.636 5.506 5.665 8.3 8.224 13.948 12.698 9.468-4.415 14.29-6.827 23.947-12.062z" stroke="#292929" stroke-opacity=".7" stroke-width="1.5" stroke-miterlimit="10" stroke-linejoin="round"/><path d="M227.049 338.565c-9.709 2.565-14.502 3.809-23.77 6.238 3.909-6.255 5.878-10.117 9.822-18.936 5.506 5.671 8.301 8.224 13.948 12.698z" stroke="#292929" stroke-opacity=".7" stroke-width="1.5" stroke-miterlimit="10" stroke-linejoin="round"/><path d="M237.065 353.539c-14.797-2.323-19.961-2.323-33.786-8.731 9.268-2.429 14.061-3.673 23.77-6.237l10.016 14.968zm-23.963-27.666c-.731-9.569-1.109-15.157-1.928-27.337 15.487 12.71 23.617 18.317 39.823 27.973-15.44-.342-23.181-.454-37.895-.636z" stroke="#292929" stroke-opacity=".7" stroke-width="1.5" stroke-miterlimit="10" stroke-linejoin="round"/><path d="M213.101 325.873c-13.241-2.936-19.679-4.469-31.558-7.871 11.225-7.387 17.22-11.289 29.63-19.466.819 12.174 1.197 17.763 1.928 27.337z" stroke="#292929" stroke-opacity=".7" stroke-width="1.5" stroke-miterlimit="10" stroke-linejoin="round"/><path d="M184.585 334.255c10.871-3.301 16.648-4.975 28.516-8.383-13.241-2.936-19.679-4.468-31.558-7.87l3.042 16.253z" stroke="#292929" stroke-opacity=".7" stroke-width="1.5" stroke-miterlimit="10" stroke-linejoin="round"/><path d="M184.586 334.255c7.204 4.858 10.971 6.969 18.694 10.553 3.909-6.255 5.878-10.116 9.822-18.936-11.868 3.408-17.651 5.082-28.516 8.383zm-3.043-16.253c.218-20.067.136-33.031.354-59.136 10.706 16.713 16.931 25.209 29.27 39.67-12.398 8.177-18.399 12.079-29.624 19.466z" stroke="#292929" stroke-opacity=".7" stroke-width="1.5" stroke-miterlimit="10" stroke-linejoin="round"/><path d="M146.438 295.47c12.014-13.936 19.283-21.353 35.466-36.604-.218 26.105-.136 39.069-.354 59.136l-35.112-22.532z" stroke="#292929" stroke-opacity=".7" stroke-width="1.5" stroke-miterlimit="10" stroke-linejoin="round"/><path d="M181.904 258.866c-16.177 15.251-23.452 22.667-35.466 36.604 5.665-19.814 8.536-30.927 14.537-53.276l20.929 16.672z" stroke="#292929" stroke-opacity=".7" stroke-width="1.5" stroke-miterlimit="10" stroke-linejoin="round"/><path d="M146.438 295.47c5.665-19.814 8.536-30.927 14.538-53.276-13.96 2.706-19.726 4.074-27.402 6.803l12.864 46.473z" stroke="#292929" stroke-opacity=".7" stroke-width="1.5" stroke-miterlimit="10" stroke-linejoin="round"/><path d="M148.03 221.702c-6.821 10.965-9.734 16.471-14.456 27.295 7.676-2.735 13.442-4.103 27.402-6.803-5.648-8.153-8.242-12.274-12.946-20.492zm95.166-94.172c-23.622 17.226-36.132 28.521-56.507 51.525 13.023-5.3 20.392-8.089 35.255-13.229 8.512-17.073 12.745-24.949 21.252-38.296zm.001 0c4.504-17.333 6.733-24.395 11.225-32.967 12.899.825 19.413 1.173 32.135 1.804l-43.36 31.163z" stroke="#292929" stroke-opacity=".7" stroke-width="1.5" stroke-miterlimit="10" stroke-linejoin="round"/><path d="M254.428 94.563c-17.42 7.634-26.163 13.459-42.705 28.351 12.244 1.868 18.635 2.788 31.481 4.616 4.498-17.327 6.726-24.389 11.224-32.967z" stroke="#292929" stroke-opacity=".7" stroke-width="1.5" stroke-miterlimit="10" stroke-linejoin="round"/><path d="M186.689 179.055c9.321-25.268 14.745-37.754 25.026-56.141 12.245 1.868 18.635 2.788 31.481 4.616-23.622 17.232-36.132 28.527-56.507 51.525z" stroke="#292929" stroke-opacity=".7" stroke-width="1.5" stroke-miterlimit="10" stroke-linejoin="round"/><path d="M186.69 179.055c-6.437-9.161-9.538-13.648-15.493-22.273 14.308-15.062 23.098-22.331 40.519-33.868-10.282 18.393-15.705 30.879-25.026 56.141z" stroke="#292929" stroke-opacity=".7" stroke-width="1.5" stroke-miterlimit="10" stroke-linejoin="round"/><path d="M171.198 156.788c-10.8 24.271-15.192 38.113-23.169 64.92 12.298-17.233 20.227-25.916 38.662-42.647a2810.95 2810.95 0 01-15.493-22.273z" stroke="#292929" stroke-opacity=".7" stroke-width="1.5" stroke-miterlimit="10" stroke-linejoin="round"/><path d="M130.686 206.309c.141.578 2.888 42.694 2.888 42.694 4.722-10.824 7.635-16.33 14.456-27.295l-17.344-15.399z" stroke="#292929" stroke-opacity=".7" stroke-width="1.5" stroke-miterlimit="10" stroke-linejoin="round"/><path d="M148.028 221.702c-.26-24.43-.596-36.958-1.456-59.496-8.301 16.814-11.431 25.904-15.894 44.097l17.35 15.399z" stroke="#292929" stroke-opacity=".7" stroke-width="1.5" stroke-miterlimit="10" stroke-linejoin="round"/><path d="M171.197 156.788c-11.266 2.199-16.306 3.266-24.625 5.424.861 22.538 1.191 35.065 1.456 59.496 7.983-26.807 12.369-40.649 23.169-64.92zm83.231-62.225c-27.413 5.2-41.468 8.295-65.657 16.89 8.855 4.386 13.483 6.674 22.951 11.461 16.542-14.892 25.285-20.711 42.706-28.351z" stroke="#292929" stroke-opacity=".7" stroke-width="1.5" stroke-miterlimit="10" stroke-linejoin="round"/><path d="M286.557 96.367c-12.722-.625-19.236-.979-32.135-1.804l20.622-5.159 11.513 6.963zm-139.979 65.839c8.318-2.152 13.353-3.225 24.625-5.424 6.449-21.005 10.258-30.962 17.574-45.329l-42.199 50.753zm.001 0c-.401.814-18.96 31.004-18.96 31.004 1.108 5.205 1.722 7.829 3.066 13.093 4.462-18.193 7.587-27.283 15.894-44.097z" stroke="#292929" stroke-opacity=".7" stroke-width="1.5" stroke-miterlimit="10" stroke-linejoin="round"/><path d="M171.197 156.788c6.45-21.005 10.258-30.962 17.574-45.329 8.855 4.386 13.483 6.674 22.951 11.461-17.427 11.531-26.217 18.8-40.525 33.868zm13.389 177.468l-38.148-38.786 35.106 22.532 3.042 16.254zM393.628 197.03l-14.962-41.445.483 27.868 14.479 13.577zM274.266 353.828l43.837-9.444-30.343 3.159-13.494 6.285zM133.573 248.997l-7.458-28.333 4.569-14.355 2.889 42.688zm-7.458-28.333l1.504-27.449 3.065 13.094-4.569 14.355z" stroke="#292929" stroke-opacity=".7" stroke-width="1.5" stroke-miterlimit="10" stroke-linejoin="round"/><path d="M525.001 275.898l-218.617 140.38-125.04-267.118L399.955 8.78l125.046 267.118zM399.954 8.78L220.818 30.723 2.201 171.101l179.142-21.942M2.201 171.102L127.247 438.22l179.136-21.943" stroke="#292929" stroke-opacity=".7" stroke-width="2.5" stroke-miterlimit="10" stroke-linecap="round" stroke-linejoin="round"/><path d="M525 275.898l-179.141 21.943L220.818 30.723m125.041 267.118L127.248 438.22" stroke="#292929" stroke-opacity=".7" stroke-miterlimit="10" stroke-linejoin="round"/></svg>