<svg width="159" height="30" fill="none" xmlns="http://www.w3.org/2000/svg"><path d="M13.136 29.09C4.695 29.09 0 24.308 0 14.525 0 4.784 4.652 0 13.136 0h7.968v5.086h-7.968c-5.642 0-8.054 2.8-8.054 9.438 0 6.68 2.455 9.482 8.054 9.482H29.83v5.085H13.136zM44.379 0l9.573 25.407c1.06 2.795 3.22 3.684 6.015 3.684 2.965 0 4.914-1.017 5.973-3.684L76.022 0h-5.55l-9.107 22.993c-.297.678-.72.974-1.398.974-.678 0-1.143-.296-1.398-.974L49.886 0h-5.507zm60.765 6.098c.296-.678.762-.974 1.44-.974.678 0 1.144.296 1.398.974l8.684 22.993h5.549l-9.658-25.407C111.54 1.016 109.592 0 106.627 0c-3.008 0-4.957 1.016-6.015 3.684l-10.04 25.407h5.507l9.065-22.993zM136.766 0v4.977h8.312v24.114h5.022V4.977h8.313V0h-21.647z" fill="#000"/></svg>