<svg width="253" height="40" fill="none" xmlns="http://www.w3.org/2000/svg"><mask id="a" style="mask-type:luminance" maskUnits="userSpaceOnUse" x="0" y="0" width="40" height="40"><path d="M39.191 0H0v40h39.191V0z" fill="#fff"/></mask><g mask="url(#a)"><path d="M34.214 6.47H4.666v28.652h29.548V6.47z" fill="#323131"/><path fill-rule="evenodd" clip-rule="evenodd" d="M11.023 11.25H0V0h11.023v11.25zm28.169 0H28.169V0h11.023v11.25zM0 40h11.023V28.75H0V40zm39.192 0H28.169V28.75h11.023V40zM3.674 11.25h3.674v17.5H3.674v-17.5zm31.843 0h-3.674v17.5h3.674v-17.5zm-24.494-7.5h17.146V7.5H11.023V3.75zM28.169 32.5H11.023v3.75h17.146V32.5z" fill="#000"/></g><path d="M53.891 7.074V29.2h12.315v4.214H49.59V7.074h4.301zm32.331 26.34h-4.118v-2.558c-.44.852-1.2 1.555-2.279 2.107a7.479 7.479 0 01-3.455.828 7.913 7.913 0 01-4.375-1.28c-1.324-.853-2.365-2.007-3.125-3.462-.76-1.454-1.14-3.073-1.14-4.854 0-1.756.38-3.361 1.14-4.816.76-1.455 1.801-2.609 3.125-3.462a7.912 7.912 0 014.375-1.28c1.225 0 2.376.277 3.455.829 1.079.551 1.838 1.254 2.28 2.107v-2.559h4.117v18.4zm-14.484-9.219c0 1.054.233 2.007.698 2.86a5.566 5.566 0 001.985 2.032c.858.477 1.79.715 2.794.715 1.005 0 1.96-.263 2.868-.79.906-.527 1.58-1.204 2.021-2.032v-5.494c-.416-.828-1.078-1.505-1.985-2.032a5.493 5.493 0 00-2.904-.828c-1.03 0-1.96.251-2.794.753a5.28 5.28 0 00-1.985 1.994c-.466.828-.698 1.769-.698 2.822zm22.855-6.622c.44-.853 1.2-1.556 2.279-2.108a7.626 7.626 0 013.455-.827c1.593 0 3.051.426 4.375 1.279 1.323.853 2.365 2.007 3.124 3.462.76 1.455 1.14 3.06 1.14 4.816 0 1.781-.38 3.4-1.14 4.854-.759 1.455-1.801 2.61-3.124 3.462a7.913 7.913 0 01-4.375 1.28c-1.2 0-2.353-.276-3.455-.828-1.079-.552-1.839-1.255-2.28-2.108v2.56h-4.08V7.074h4.08v10.498zm0 9.407c.44.828 1.115 1.505 2.021 2.032.907.526 1.863.79 2.867.79a5.456 5.456 0 002.758-.715 5.207 5.207 0 001.985-2.032c.49-.853.735-1.806.735-2.86 0-1.053-.245-1.994-.735-2.822a5.022 5.022 0 00-1.948-1.994c-.834-.502-1.765-.753-2.795-.753a5.491 5.491 0 00-2.903.828c-.907.527-1.569 1.204-1.985 2.032v5.494zm25.84 6.81c-1.691 0-3.247-.413-4.668-1.241-1.422-.853-2.549-2.02-3.383-3.5-.832-1.48-1.249-3.123-1.249-4.929 0-1.756.404-3.349 1.213-4.779a9.153 9.153 0 013.381-3.424 8.912 8.912 0 014.67-1.28c1.593 0 3.051.39 4.375 1.167a8.498 8.498 0 013.124 3.161c.759 1.33 1.14 2.81 1.14 4.44 0 .452-.049 1.054-.148 1.806h-13.785c.22 1.53.808 2.735 1.764 3.613.98.878 2.218 1.317 3.713 1.317a6.185 6.185 0 002.794-.64c.882-.452 1.519-1.029 1.912-1.731l3.235 2.032c-.662 1.254-1.716 2.233-3.162 2.935-1.421.702-3.063 1.054-4.926 1.054zm4.449-11.589c-.148-1.179-.662-2.145-1.544-2.897-.883-.753-1.924-1.13-3.125-1.13-1.299 0-2.39.364-3.272 1.092-.858.702-1.434 1.68-1.728 2.935h9.669zm11.642 11.213h-4.081V7.074h4.081v26.34zm20.964-26.716c1.642 0 3.284.364 4.926 1.091 1.666.703 2.941 1.593 3.823 2.672l-2.5 3.424a9.427 9.427 0 00-3.088-2.144c-1.176-.527-2.34-.79-3.493-.79-1.176 0-2.144.275-2.903.827-.736.552-1.103 1.267-1.103 2.145 0 .752.233 1.38.698 1.881.49.502 1.091.903 1.801 1.205.735.275 1.74.601 3.015.978 1.74.502 3.149 1.016 4.228 1.543 1.102.501 2.034 1.266 2.793 2.295.785 1.003 1.177 2.333 1.177 3.989 0 1.43-.38 2.759-1.14 3.988-.735 1.204-1.801 2.17-3.198 2.898-1.397.727-3.015 1.09-4.852 1.09-1.912 0-3.8-.426-5.662-1.279s-3.37-1.931-4.522-3.236l2.757-3.236c1.128 1.104 2.279 1.97 3.456 2.597 1.176.602 2.5.903 3.971.903 1.42 0 2.573-.339 3.455-1.016.882-.677 1.323-1.568 1.323-2.672 0-.727-.233-1.317-.698-1.768-.466-.477-1.054-.853-1.765-1.13-.711-.275-1.691-.589-2.941-.94-1.74-.477-3.161-.953-4.264-1.43-1.079-.502-2.01-1.254-2.794-2.257-.784-1.029-1.177-2.384-1.177-4.064 0-1.405.368-2.685 1.104-3.839.759-1.153 1.788-2.057 3.087-2.709 1.324-.677 2.819-1.016 4.486-1.016zm20.316 26.98c-2.035 0-3.677-.627-4.927-1.881-1.225-1.28-1.838-3.036-1.838-5.268v-7.526h-3.455v-3.989h3.455v-4.929h4.081v4.93h4.705v3.988h-4.705v7.337c0 1.054.306 1.895.919 2.522.637.602 1.421.903 2.353.903.441 0 .906-.076 1.397-.226l.22 3.688c-.588.3-1.323.451-2.205.451zm17.909-2.708c-.539.852-1.299 1.542-2.279 2.069a6.838 6.838 0 01-3.162.752c-2.255 0-4.043-.74-5.367-2.22-1.323-1.505-1.985-3.524-1.985-6.058V15.015h4.081v9.82c0 1.48.379 2.647 1.139 3.5.784.853 1.826 1.28 3.125 1.28.907 0 1.752-.226 2.537-.678a5.066 5.066 0 001.911-1.844l.037-12.078h4.117v18.4h-4.154V30.97zm21.915-9.484c-.417-.828-1.079-1.505-1.985-2.032a5.497 5.497 0 00-2.905-.828c-1.029 0-1.96.251-2.794.753a5.285 5.285 0 00-1.985 1.994c-.466.828-.699 1.769-.699 2.822 0 1.054.233 2.007.699 2.86a5.572 5.572 0 001.985 2.032 5.658 5.658 0 002.794.715 5.618 5.618 0 002.867-.79c.907-.527 1.581-1.204 2.023-2.032v-5.494zm-14.374 2.71c0-1.757.379-3.362 1.139-4.817s1.802-2.61 3.125-3.462a7.911 7.911 0 014.375-1.28c1.225 0 2.377.277 3.455.828 1.078.552 1.838 1.255 2.28 2.108V7.074h4.08v26.34h-4.08v-2.559c-.442.853-1.202 1.556-2.28 2.108a7.476 7.476 0 01-3.455.828 7.911 7.911 0 01-4.375-1.28c-1.323-.853-2.365-2.007-3.125-3.462-.76-1.455-1.139-3.073-1.139-4.854zm26.86-9.182v18.4h-4.08v-18.4h4.08zm-2.021-8.541c.711 0 1.323.263 1.838.79.539.527.809 1.154.809 1.881 0 .753-.27 1.393-.809 1.92-.515.526-1.127.79-1.838.79-.711 0-1.324-.264-1.838-.79a2.644 2.644 0 01-.773-1.92 2.6 2.6 0 01.773-1.881c.514-.527 1.127-.79 1.838-.79zm14.76 8.165c1.716 0 3.284.426 4.706 1.28 1.421.827 2.549 1.98 3.382 3.46.834 1.456 1.25 3.074 1.25 4.855 0 1.781-.416 3.4-1.25 4.854a9.437 9.437 0 01-3.382 3.462c-1.422.828-2.99 1.242-4.706 1.242-1.74 0-3.32-.414-4.742-1.242a9.437 9.437 0 01-3.382-3.462c-.808-1.455-1.213-3.073-1.213-4.854 0-1.781.405-3.4 1.213-4.854.834-1.48 1.96-2.634 3.382-3.462 1.446-.853 3.027-1.28 4.742-1.28zm-5.33 9.595c0 1.029.233 1.97.698 2.822a5.473 5.473 0 001.912 1.994c.834.477 1.74.715 2.72.715a5.19 5.19 0 002.684-.715 5.454 5.454 0 001.911-1.994c.466-.853.699-1.793.699-2.822 0-1.029-.233-1.97-.699-2.822a5.095 5.095 0 00-1.911-1.995 4.99 4.99 0 00-2.684-.752c-.98 0-1.886.25-2.72.752a5.11 5.11 0 00-1.912 1.995c-.465.853-.698 1.793-.698 2.822z" fill="#000"/></svg>