<svg width="134" height="138" fill="none" xmlns="http://www.w3.org/2000/svg"><path d="M119.611 16.492v-.5H60.056V2.08H133.5v73.558h-13.889V16.492zM.5 2.08h13.889v13.912H.5V2.08zm0 29.823h13.889v13.912H.5V31.903zm0 43.735V61.726h13.889v13.912H.5zm0 15.912h13.889v13.911H.5V91.55zm0 43.734v-13.911h13.889v13.911H.5zm29.778-13.911h13.889v13.911h-13.89v-13.911zm29.778 13.911v-13.911h13.888v13.911H60.056zm29.777-13.911h13.889v13.911H89.833v-13.911zm29.778 13.911v-13.911H133.5v13.911h-13.889zm0-43.734H133.5v13.911h-13.889V91.55zM30.278 2.08h13.889v13.912h-13.89V2.08z" stroke="#58A439"/></svg>