<svg width="197" height="30" fill="none" xmlns="http://www.w3.org/2000/svg"><path fill-rule="evenodd" clip-rule="evenodd" d="M26.851 17.343c-2.24-3.638-11.155-5.288-10.83-9.462.253-3.266 4.817-2.95 4.817-2.95s-7.174-.765-8.173 4.384c-1.025 5.28 9.638 7.275 11.128 10.39 2.381 4.985-5.238 5.465-5.238 5.465 8.213.38 10.191-4.75 8.296-7.827z" fill="#1A1A1A"/><path opacity=".5" fill-rule="evenodd" clip-rule="evenodd" d="M14.123 17.639c-.04.788-.05 1.504.037 2.17.085.663.276 1.248.598 1.748.163.25.35.49.576.71.23.216.477.432.759.627.134.107.289.19.433.296.15.094.306.187.462.287.159.09.32.187.484.288.166.092.333.195.5.308a4.515 4.515 0 01-.761.065 4.756 4.756 0 01-1.617-.288l-.291-.113c-.095-.044-.187-.095-.282-.142l-.141-.074c-.046-.027-.089-.058-.134-.087-.089-.06-.18-.117-.267-.183a3.761 3.761 0 01-.893-.967c-.24-.376-.404-.8-.487-1.229a3.79 3.79 0 01-.023-1.273c.063-.41.187-.803.36-1.165.177-.36.394-.7.687-.978zm8.314-11.8c.542 0 1.087.096 1.617.287l.29.113c.095.044.187.095.281.143l.141.073c.047.027.09.058.136.087.088.06.18.117.265.183.345.263.655.59.894.967.24.376.404.8.487 1.229.082.429.085.862.022 1.273a4.191 4.191 0 01-.358 1.165c-.177.36-.394.7-.688.978.04-.788.05-1.504-.037-2.169-.084-.664-.275-1.249-.597-1.75a4.185 4.185 0 00-.576-.709 6.499 6.499 0 00-.76-.627c-.134-.107-.288-.19-.432-.296-.151-.094-.306-.187-.462-.287a13.6 13.6 0 01-.485-.289 6.347 6.347 0 01-.502-.307c.253-.043.508-.065.764-.065z" fill="#1A1A1A"/><path fill-rule="evenodd" clip-rule="evenodd" d="M81.22 12.324c2.642 0 4.668 2.364 4.668 5.186s-2.026 5.186-4.667 5.186c-1.29 0-2.299-.616-2.794-1.218l-.087-.113v5.266h-2.72V12.543h2.72v1.112c.457-.636 1.51-1.331 2.88-1.331zM56.73 8.13c3.039 0 4.846 2.186 4.945 4.292h-2.86c-.318-1.192-1.251-1.63-2.085-1.63-1.013 0-1.808.478-1.828 1.312-.02.875.616 1.352 1.768 1.69l1.648.456c2.285.636 3.655 2.087 3.655 4.273 0 2.404-1.946 4.192-4.906 4.192-3.377 0-5.303-2.285-5.422-4.61h2.88c.198 1.272 1.29 1.948 2.542 1.948 1.152 0 2.006-.537 2.006-1.431 0-.755-.536-1.331-1.887-1.709l-1.49-.437c-2.224-.636-3.674-2.027-3.694-4.173-.02-2.603 1.907-4.173 4.727-4.173zm134.453 4.193c2.852 0 5.211 1.99 5.19 5.564l-.006.258h-7.747c.12 1.172.993 2.186 2.682 2.186.89 0 1.676-.364 2.035-.961l.07-.132h2.841c-.596 2.007-2.563 3.457-5.085 3.457-3.039 0-5.204-2.185-5.204-5.206 0-2.96 2.204-5.166 5.224-5.166zm-40.501 0c2.88 0 5.224 2.285 5.224 5.186s-2.344 5.186-5.224 5.186c-2.88 0-5.224-2.285-5.224-5.186 0-2.9 2.344-5.186 5.224-5.186zm19.346 0c1.29 0 2.299.616 2.777 1.219l.084.112v-1.112h2.721v9.935h-2.721v-1.113c-.437.636-1.49 1.332-2.861 1.332-2.641 0-4.667-2.365-4.667-5.187s2.026-5.186 4.667-5.186zm-77.565 0c2.852 0 5.211 1.99 5.19 5.564l-.006.258h-7.746c.119 1.172.993 2.186 2.681 2.186.89 0 1.676-.364 2.036-.961l.07-.132h2.84c-.596 2.007-2.562 3.457-5.085 3.457-3.039 0-5.204-2.185-5.204-5.206 0-2.96 2.205-5.166 5.224-5.166zm-25.921.219v5.305c0 1.49.516 2.365 1.688 2.365 1.212 0 2.046-.895 2.046-2.822v-4.848h2.721v9.935h-2.72v-1.133c-.517.795-1.45 1.352-2.722 1.352-2.404 0-3.734-1.75-3.734-4.392v-5.762h2.72zm94.846-2.763v2.763h2.801v2.384h-2.801v3.537c0 1.212.516 1.689 1.688 1.689.437 0 .795-.06 1.113-.179v2.405c-.437.139-.974.218-1.728.218-2.106 0-3.794-1.172-3.794-3.597v-4.073h-2.006v-2.384h2.006V9.78h2.721zm20.598 0v2.763h2.801v2.384h-2.801v3.537c0 1.212.517 1.689 1.688 1.689.437 0 .795-.06 1.113-.179v2.405c-.437.139-.974.218-1.728.218-2.106 0-3.794-1.172-3.794-3.597v-4.073h-2.006v-2.384h2.006V9.78h2.721zm-42.209 2.544c2.403 0 3.834 1.748 3.834 4.332v5.822h-2.722v-5.365c0-1.43-.615-2.305-1.748-2.305-1.251 0-2.204.914-2.204 2.821v4.849h-2.722v-9.936h2.722v1.133c.516-.795 1.549-1.351 2.84-1.351zm-11.898 0c2.403 0 3.834 1.748 3.834 4.332v5.822h-2.722v-5.365c0-1.43-.615-2.305-1.748-2.305-1.251 0-2.204.914-2.204 2.821v4.849h-2.722v-9.936h2.722v1.133c.516-.795 1.549-1.351 2.84-1.351zm-23.061.1c.278 0 .576.02.914.119v2.762a3.742 3.742 0 00-1.232-.219c-1.291 0-2.145 1.013-2.145 2.643v4.749h-2.721v-9.936h2.721v1.59c.338-.973 1.351-1.709 2.463-1.709zm10.09-4.054l6.098 14.108h-3.019l-1.37-3.22h-5.999l-1.371 3.22h-2.979l6.078-14.108h2.562zm55.697 6.438c-1.49 0-2.503 1.152-2.503 2.702s1.013 2.703 2.503 2.703c1.489 0 2.502-1.153 2.502-2.703 0-1.55-1.013-2.702-2.502-2.702zm-89.98 0c-1.49 0-2.503 1.152-2.503 2.702s1.013 2.703 2.503 2.703c1.49 0 2.502-1.153 2.502-2.703 0-1.55-1.012-2.702-2.502-2.702zm70.057.06c-1.43 0-2.483 1.112-2.483 2.642 0 1.53 1.053 2.643 2.483 2.643 1.43 0 2.463-1.113 2.463-2.643 0-1.53-1.033-2.643-2.463-2.643zm-37.065-2.723l-1.946 4.59h3.893l-1.947-4.59zM92.384 14.53c-1.186 0-2.033.66-2.338 1.658l-.046.17h4.668c-.338-1.332-1.35-1.828-2.284-1.828zm98.719 0c-1.185 0-2.032.66-2.337 1.658l-.046.17h4.667c-.337-1.332-1.35-1.828-2.284-1.828z" fill="#172224"/></svg>