<svg width="527" height="447" viewBox="0 0 527 447" fill="none" xmlns="http://www.w3.org/2000/svg">
<path d="M395.214 235.326L396.618 214.928L384.072 250.212L395.214 235.326Z" stroke="#292929" stroke-opacity="0.7" stroke-width="1.5" stroke-miterlimit="10" stroke-linejoin="round"/>
<path d="M395.214 235.326L384.072 250.212C383.783 261.696 383.688 267.373 383.535 278.256L395.214 235.326Z" stroke="#292929" stroke-opacity="0.7" stroke-width="1.5" stroke-miterlimit="10" stroke-linejoin="round"/>
<path d="M384.071 250.212C381.76 237.784 380.587 231.412 378.152 218.79C385.386 217.41 392.979 216.314 396.617 214.934L384.071 250.212Z" stroke="#292929" stroke-opacity="0.7" stroke-width="1.5" stroke-miterlimit="10" stroke-linejoin="round"/>
<path d="M384.071 250.212C383.782 261.696 383.688 267.373 383.535 278.256C381.041 255.582 379.98 243.09 378.152 218.79C380.587 231.411 381.76 237.778 384.071 250.212Z" stroke="#292929" stroke-opacity="0.7" stroke-width="1.5" stroke-miterlimit="10" stroke-linejoin="round"/>
<path d="M378.154 218.784C375.472 239.5 374.222 250.082 371.486 269.755C376.886 273.174 379.321 274.872 383.536 278.25C381.037 255.582 379.976 243.084 378.154 218.784Z" stroke="#292929" stroke-opacity="0.7" stroke-width="1.5" stroke-miterlimit="10" stroke-linejoin="round"/>
<path d="M371.486 269.761C369.369 285.49 368.302 293.106 365.82 306.795C374.457 296.113 378 290.306 383.536 278.256C379.315 274.878 376.886 273.174 371.486 269.761Z" stroke="#292929" stroke-opacity="0.7" stroke-width="1.5" stroke-miterlimit="10" stroke-linejoin="round"/>
<path d="M371.485 269.761C365.878 265.345 362.766 263.117 356.057 258.63C366.391 242.996 370.813 234.866 378.152 218.79C375.47 239.5 374.22 250.088 371.485 269.761Z" stroke="#292929" stroke-opacity="0.7" stroke-width="1.5" stroke-miterlimit="10" stroke-linejoin="round"/>
<path d="M356.057 258.63C359.953 279.199 361.911 289.227 365.819 306.795C368.301 293.106 369.368 285.489 371.485 269.76C365.872 265.345 362.766 263.116 356.057 258.63Z" stroke="#292929" stroke-opacity="0.7" stroke-width="1.5" stroke-miterlimit="10" stroke-linejoin="round"/>
<path d="M356.057 258.63C348.234 282.3 343.6 294.25 333.879 313.085C348.057 310.715 354.784 309.342 365.82 306.795C361.911 289.227 359.948 279.199 356.057 258.63Z" stroke="#292929" stroke-opacity="0.7" stroke-width="1.5" stroke-miterlimit="10" stroke-linejoin="round"/>
<path d="M333.879 313.086C336.143 321.198 337.28 324.965 339.568 331.691C351.129 323.326 356.759 317.996 365.814 306.795C354.784 309.342 348.057 310.716 333.879 313.086Z" stroke="#292929" stroke-opacity="0.7" stroke-width="1.5" stroke-miterlimit="10" stroke-linejoin="round"/>
<path d="M379.149 183.453C378.618 197.307 378.412 204.499 378.152 218.789C385.386 217.41 392.979 216.313 396.617 214.934L379.149 183.453Z" stroke="#292929" stroke-opacity="0.7" stroke-width="1.5" stroke-miterlimit="10" stroke-linejoin="round"/>
<path d="M396.618 214.928L393.629 197.03L379.15 183.453L396.618 214.928Z" stroke="#292929" stroke-opacity="0.7" stroke-width="1.5" stroke-miterlimit="10" stroke-linejoin="round"/>
<path d="M378.153 218.783C370.577 205.684 365.896 199.111 355.025 186.33C366.344 185.204 371.308 184.626 379.155 183.453C378.619 197.307 378.412 204.499 378.153 218.783Z" stroke="#292929" stroke-opacity="0.7" stroke-width="1.5" stroke-miterlimit="10" stroke-linejoin="round"/>
<path d="M378.153 218.783C370.813 234.86 366.392 242.996 356.057 258.624C355.426 230.297 355.232 214.727 355.025 186.324C365.896 199.111 370.571 205.684 378.153 218.783Z" stroke="#292929" stroke-opacity="0.7" stroke-width="1.5" stroke-miterlimit="10" stroke-linejoin="round"/>
<path d="M355.025 186.33C365.714 173.661 370.501 167.447 378.666 155.585C378.819 166.303 378.901 171.951 379.149 183.453C371.308 184.626 366.344 185.204 355.025 186.33Z" stroke="#292929" stroke-opacity="0.7" stroke-width="1.5" stroke-miterlimit="10" stroke-linejoin="round"/>
<path d="M356.058 258.63C342.304 277.088 333.567 286.556 315.545 302.244C323.103 306.695 326.787 308.864 333.879 313.085C343.601 294.25 348.235 282.3 356.058 258.63Z" stroke="#292929" stroke-opacity="0.7" stroke-width="1.5" stroke-miterlimit="10" stroke-linejoin="round"/>
<path d="M355.026 186.33C352.002 208.532 350.557 220.399 347.574 243.031C351.07 249.333 352.762 252.458 356.058 258.63C355.427 230.303 355.232 214.734 355.026 186.33Z" stroke="#292929" stroke-opacity="0.7" stroke-width="1.5" stroke-miterlimit="10" stroke-linejoin="round"/>
<path d="M347.574 243.031C336.226 268.186 329.428 281.292 315.545 302.244C333.567 286.55 342.304 277.082 356.058 258.63C352.762 252.464 351.064 249.333 347.574 243.031Z" stroke="#292929" stroke-opacity="0.7" stroke-width="1.5" stroke-miterlimit="10" stroke-linejoin="round"/>
<path d="M333.879 313.085C327.689 328.637 324.559 335.169 318.104 344.384C327.035 340.163 331.368 337.622 339.574 331.691C337.287 324.965 336.143 321.203 333.879 313.085Z" stroke="#292929" stroke-opacity="0.7" stroke-width="1.5" stroke-miterlimit="10" stroke-linejoin="round"/>
<path d="M305.452 333.648C310.569 338.364 313.104 340.522 318.103 344.384C306.371 345.716 300.211 346.323 287.76 347.543L305.452 333.648Z" stroke="#292929" stroke-opacity="0.7" stroke-width="1.5" stroke-miterlimit="10" stroke-linejoin="round"/>
<path d="M305.451 333.648C317.277 326.651 323.043 322.53 333.879 313.085C327.688 328.637 324.558 335.169 318.103 344.384C313.103 340.528 310.568 338.371 305.451 333.648Z" stroke="#292929" stroke-opacity="0.7" stroke-width="1.5" stroke-miterlimit="10" stroke-linejoin="round"/>
<path d="M305.451 333.648C309.489 323.325 311.482 316.841 315.544 302.244C323.102 306.695 326.786 308.864 333.879 313.085C323.043 322.535 317.277 326.65 305.451 333.648Z" stroke="#292929" stroke-opacity="0.7" stroke-width="1.5" stroke-miterlimit="10" stroke-linejoin="round"/>
<path d="M250.99 326.503C260.228 324.788 264.88 323.933 274.1 322.188C286.852 327.01 293.201 329.292 305.445 333.648C284.364 330.653 273.009 329.262 250.99 326.503Z" stroke="#292929" stroke-opacity="0.7" stroke-width="1.5" stroke-miterlimit="10" stroke-linejoin="round"/>
<path d="M274.1 322.188C291.084 314.989 299.585 311.057 315.538 302.244C311.476 316.841 309.483 323.325 305.445 333.648C293.2 329.291 286.851 327.01 274.1 322.188Z" stroke="#292929" stroke-opacity="0.7" stroke-width="1.5" stroke-miterlimit="10" stroke-linejoin="round"/>
<path d="M347.573 243.031C335.806 243.892 329.162 244.328 315.072 245.259C315.373 269.666 315.267 281.987 315.544 302.244C329.422 281.292 336.225 268.192 347.573 243.031Z" stroke="#292929" stroke-opacity="0.7" stroke-width="1.5" stroke-miterlimit="10" stroke-linejoin="round"/>
<path d="M315.545 302.244C296.722 296.46 286.487 293.519 266.16 287.346C269.35 302.951 270.929 310.138 274.107 322.188C291.086 314.989 299.593 311.057 315.545 302.244Z" stroke="#292929" stroke-opacity="0.7" stroke-width="1.5" stroke-miterlimit="10" stroke-linejoin="round"/>
<path d="M315.545 302.244C303.147 280.272 296.822 267.131 283.475 240.313C296.586 242.294 303.006 243.279 315.074 245.26C315.374 269.666 315.268 281.988 315.545 302.244Z" stroke="#292929" stroke-opacity="0.7" stroke-width="1.5" stroke-miterlimit="10" stroke-linejoin="round"/>
<path d="M283.475 240.319C276.477 260.228 272.975 270.032 266.154 287.352C286.481 293.525 296.716 296.472 315.54 302.25C303.148 280.272 296.822 267.131 283.475 240.319Z" stroke="#292929" stroke-opacity="0.7" stroke-width="1.5" stroke-miterlimit="10" stroke-linejoin="round"/>
<path d="M266.153 287.346C260.045 305.268 257.033 313.415 250.99 326.503C260.228 324.787 264.88 323.933 274.1 322.188C270.928 310.138 269.348 302.951 266.153 287.346Z" stroke="#292929" stroke-opacity="0.7" stroke-width="1.5" stroke-miterlimit="10" stroke-linejoin="round"/>
<path d="M347.573 243.031C350.556 220.399 352.001 208.526 355.025 186.33C340.912 209.31 332.917 221.572 315.078 245.26C329.162 244.328 335.806 243.892 347.573 243.031Z" stroke="#292929" stroke-opacity="0.7" stroke-width="1.5" stroke-miterlimit="10" stroke-linejoin="round"/>
<path d="M378.666 155.586C370.501 167.447 365.714 173.661 355.025 186.33C357.484 162.56 358.804 150.94 361.357 131.368L378.666 155.586Z" stroke="#292929" stroke-opacity="0.7" stroke-width="1.5" stroke-miterlimit="10" stroke-linejoin="round"/>
<path d="M355.025 186.33C338.96 189.938 329.186 191.712 308.34 195.255C311.205 215.081 312.526 225.457 315.078 245.26C332.918 221.578 340.912 209.31 355.025 186.33Z" stroke="#292929" stroke-opacity="0.7" stroke-width="1.5" stroke-miterlimit="10" stroke-linejoin="round"/>
<path d="M308.335 195.255C298.814 212.906 293.88 222.156 283.475 240.319C296.586 242.3 303.006 243.284 315.074 245.265C312.521 225.457 311.206 215.081 308.335 195.255Z" stroke="#292929" stroke-opacity="0.7" stroke-width="1.5" stroke-miterlimit="10" stroke-linejoin="round"/>
<path d="M283.474 240.319C254.115 251.815 238.334 257.15 210.861 267.402C232.161 275.892 243.804 279.842 266.154 287.346C272.981 270.032 276.476 260.228 283.474 240.319Z" stroke="#292929" stroke-opacity="0.7" stroke-width="1.5" stroke-miterlimit="10" stroke-linejoin="round"/>
<path d="M210.867 267.403C211.026 280.596 211.109 286.969 211.174 298.536C232.267 294.173 243.757 291.974 266.16 287.352C243.804 279.842 232.161 275.892 210.867 267.403Z" stroke="#292929" stroke-opacity="0.7" stroke-width="1.5" stroke-miterlimit="10" stroke-linejoin="round"/>
<path d="M355.026 186.33C338.637 175.842 328.232 170.412 306.537 160.449C307.245 173.643 307.687 180.841 308.341 195.255C329.181 191.712 338.961 189.938 355.026 186.33Z" stroke="#292929" stroke-opacity="0.7" stroke-width="1.5" stroke-miterlimit="10" stroke-linejoin="round"/>
<path d="M361.357 131.368C353.369 140.099 349.077 144.727 340.016 154.371C346.518 166.586 349.484 173.095 355.025 186.33C357.478 162.56 358.804 150.94 361.357 131.368Z" stroke="#292929" stroke-opacity="0.7" stroke-width="1.5" stroke-miterlimit="10" stroke-linejoin="round"/>
<path d="M340.011 154.371C327.595 156.824 320.692 157.979 306.531 160.444C328.226 170.413 338.637 175.836 355.02 186.324C349.485 173.095 346.519 166.592 340.011 154.371Z" stroke="#292929" stroke-opacity="0.7" stroke-width="1.5" stroke-miterlimit="10" stroke-linejoin="round"/>
<path d="M306.531 160.449C297.7 189.796 293.432 207.482 283.475 240.319C293.88 222.156 298.814 212.906 308.335 195.255C307.681 180.841 307.239 173.643 306.531 160.449Z" stroke="#292929" stroke-opacity="0.7" stroke-width="1.5" stroke-miterlimit="10" stroke-linejoin="round"/>
<path d="M283.474 240.319C272.768 233.31 267.221 229.714 256.191 222.468C237.278 241.139 228.07 250.259 210.861 267.408C238.339 257.151 254.115 251.815 283.474 240.319Z" stroke="#292929" stroke-opacity="0.7" stroke-width="1.5" stroke-miterlimit="10" stroke-linejoin="round"/>
<path d="M283.473 240.319C293.43 207.482 297.699 189.796 306.53 160.449C287.399 183.317 277.094 196.358 256.189 222.468C267.226 229.708 272.767 233.31 283.473 240.319Z" stroke="#292929" stroke-opacity="0.7" stroke-width="1.5" stroke-miterlimit="10" stroke-linejoin="round"/>
<path d="M210.867 267.403C203.592 255.217 200.155 248.915 193.57 236.328C200.15 262.645 203.952 276.375 211.174 298.536C211.109 286.969 211.021 280.596 210.867 267.403Z" stroke="#292929" stroke-opacity="0.7" stroke-width="1.5" stroke-miterlimit="10" stroke-linejoin="round"/>
<path d="M193.57 236.328C216.273 230.875 229.579 228.163 256.196 222.468C237.284 241.139 228.076 250.259 210.867 267.408C203.592 255.217 200.155 248.915 193.57 236.328Z" stroke="#292929" stroke-opacity="0.7" stroke-width="1.5" stroke-miterlimit="10" stroke-linejoin="round"/>
<path d="M256.196 222.462C249.387 214.315 246.032 210.271 239.43 202.336C266.802 184.414 281.004 176.066 306.53 160.443C287.4 183.311 277.095 196.352 256.196 222.462Z" stroke="#292929" stroke-opacity="0.7" stroke-width="1.5" stroke-miterlimit="10" stroke-linejoin="round"/>
<path d="M239.429 202.341C228.8 204.758 223.577 205.943 213.59 208.29C229.831 213.861 238.574 216.667 256.195 222.462C249.386 214.315 246.026 210.276 239.429 202.341Z" stroke="#292929" stroke-opacity="0.7" stroke-width="1.5" stroke-miterlimit="10" stroke-linejoin="round"/>
<path d="M193.57 236.328C216.273 230.875 229.579 228.163 256.196 222.468C238.575 216.673 229.833 213.867 213.591 208.296C205.237 219.55 201.234 225.209 193.57 236.328Z" stroke="#292929" stroke-opacity="0.7" stroke-width="1.5" stroke-miterlimit="10" stroke-linejoin="round"/>
<path d="M340.011 154.371C333.326 142.227 329.653 136.408 322.39 126.474C316.123 138.66 312.957 145.611 306.525 160.443C320.698 157.979 327.595 156.824 340.011 154.371Z" stroke="#292929" stroke-opacity="0.7" stroke-width="1.5" stroke-miterlimit="10" stroke-linejoin="round"/>
<path d="M322.395 126.474C339.532 128.267 347.78 129.322 361.357 131.367C353.369 140.098 349.077 144.726 340.016 154.371C333.33 142.227 329.652 136.408 322.395 126.474Z" stroke="#292929" stroke-opacity="0.7" stroke-width="1.5" stroke-miterlimit="10" stroke-linejoin="round"/>
<path d="M213.591 208.29C197.143 207.689 189.337 207.376 175.678 206.734C182.451 218.495 186.024 224.479 193.57 236.328C201.234 225.21 205.237 219.55 213.591 208.29Z" stroke="#292929" stroke-opacity="0.7" stroke-width="1.5" stroke-miterlimit="10" stroke-linejoin="round"/>
<path d="M175.678 206.734C179.899 195.515 182.08 189.914 186.696 179.055C196.877 190.445 202.289 196.334 213.597 208.29C197.137 207.689 189.331 207.376 175.678 206.734Z" stroke="#292929" stroke-opacity="0.7" stroke-width="1.5" stroke-miterlimit="10" stroke-linejoin="round"/>
<path d="M186.689 179.055C199.712 173.755 207.081 170.966 221.944 165.826C218.571 181.92 216.773 190.828 213.584 208.284C202.283 196.34 196.871 190.445 186.689 179.055Z" stroke="#292929" stroke-opacity="0.7" stroke-width="1.5" stroke-miterlimit="10" stroke-linejoin="round"/>
<path d="M306.53 160.449C289.216 151.4 280.06 147.255 262.038 139.42C253.148 161.239 248.685 174.692 239.43 202.341C266.802 184.42 281.004 176.072 306.53 160.449Z" stroke="#292929" stroke-opacity="0.7" stroke-width="1.5" stroke-miterlimit="10" stroke-linejoin="round"/>
<path d="M262.039 139.415C286.97 134.127 299.704 131.586 322.396 126.474C316.129 138.66 312.963 145.611 306.531 160.443C289.217 151.4 280.061 147.255 262.039 139.415Z" stroke="#292929" stroke-opacity="0.7" stroke-width="1.5" stroke-miterlimit="10" stroke-linejoin="round"/>
<path d="M239.429 202.342C232.284 187.167 228.812 179.721 221.944 165.832C218.571 181.926 216.773 190.834 213.584 208.29C223.577 205.944 228.8 204.759 239.429 202.342Z" stroke="#292929" stroke-opacity="0.7" stroke-width="1.5" stroke-miterlimit="10" stroke-linejoin="round"/>
<path d="M221.943 165.832C237.743 154.43 245.926 149.165 262.038 139.42C253.147 161.239 248.685 174.692 239.429 202.341C232.284 187.161 228.811 179.715 221.943 165.832Z" stroke="#292929" stroke-opacity="0.7" stroke-width="1.5" stroke-miterlimit="10" stroke-linejoin="round"/>
<path d="M322.395 126.474C305.788 119.53 296.786 116.511 278.741 110.987C272.091 120.597 268.754 126.421 262.045 139.415C286.97 134.132 299.704 131.586 322.395 126.474Z" stroke="#292929" stroke-opacity="0.7" stroke-width="1.5" stroke-miterlimit="10" stroke-linejoin="round"/>
<path d="M322.395 126.475C318.893 111.742 317.184 105.576 313.682 97.0273C300.117 101.997 293.019 104.78 278.734 110.987C296.786 116.517 305.788 119.53 322.395 126.475Z" stroke="#292929" stroke-opacity="0.7" stroke-width="1.5" stroke-miterlimit="10" stroke-linejoin="round"/>
<path d="M339.438 116.382C332.841 120.279 329.416 122.301 322.395 126.475C318.893 111.742 317.183 105.576 313.682 97.0273L339.438 116.382Z" stroke="#292929" stroke-opacity="0.7" stroke-width="1.5" stroke-miterlimit="10" stroke-linejoin="round"/>
<path d="M339.438 116.381C332.841 120.278 329.416 122.3 322.395 126.474C339.532 128.266 347.78 129.322 361.357 131.367L339.438 116.381Z" stroke="#292929" stroke-opacity="0.7" stroke-width="1.5" stroke-miterlimit="10" stroke-linejoin="round"/>
<path d="M193.57 236.328C179.085 238.669 172.388 239.836 160.975 242.194C166.528 228.122 169.446 220.912 175.678 206.734C182.451 218.495 186.024 224.479 193.57 236.328Z" stroke="#292929" stroke-opacity="0.7" stroke-width="1.5" stroke-miterlimit="10" stroke-linejoin="round"/>
<path d="M175.678 206.734C162.939 212.729 157.261 215.718 148.035 221.702C152.74 229.92 155.334 234.035 160.981 242.188C166.529 228.116 169.447 220.906 175.678 206.734Z" stroke="#292929" stroke-opacity="0.7" stroke-width="1.5" stroke-miterlimit="10" stroke-linejoin="round"/>
<path d="M175.678 206.734C179.899 195.515 182.081 189.914 186.697 179.055C168.262 195.786 160.333 204.47 148.035 221.702C157.261 215.718 162.933 212.729 175.678 206.734Z" stroke="#292929" stroke-opacity="0.7" stroke-width="1.5" stroke-miterlimit="10" stroke-linejoin="round"/>
<path d="M193.569 236.328C188.77 245.466 186.442 250.006 181.902 258.866C192.608 275.58 198.834 284.075 211.173 298.536C203.951 276.37 200.148 262.645 193.569 236.328Z" stroke="#292929" stroke-opacity="0.7" stroke-width="1.5" stroke-miterlimit="10" stroke-linejoin="round"/>
<path d="M160.975 242.194C172.382 239.836 179.085 238.669 193.57 236.328C188.771 245.466 186.442 250.006 181.903 258.866L160.975 242.194Z" stroke="#292929" stroke-opacity="0.7" stroke-width="1.5" stroke-miterlimit="10" stroke-linejoin="round"/>
<path d="M278.74 110.987C264.597 117.001 257.376 120.29 243.203 127.53C250.696 132.069 254.481 134.445 262.045 139.415C268.748 126.427 272.084 120.597 278.74 110.987Z" stroke="#292929" stroke-opacity="0.7" stroke-width="1.5" stroke-miterlimit="10" stroke-linejoin="round"/>
<path d="M278.74 110.987C281.871 104.084 283.439 101.107 286.563 96.3669C297.641 96.703 303.129 96.8209 313.688 97.0331C300.117 101.997 293.019 104.785 278.74 110.987Z" stroke="#292929" stroke-opacity="0.7" stroke-width="1.5" stroke-miterlimit="10" stroke-linejoin="round"/>
<path d="M243.197 127.53C257.37 120.29 264.597 117.001 278.734 110.987C281.865 104.084 283.433 101.107 286.557 96.3669L243.197 127.53Z" stroke="#292929" stroke-opacity="0.7" stroke-width="1.5" stroke-miterlimit="10" stroke-linejoin="round"/>
<path d="M243.196 127.53C234.689 140.871 230.45 148.747 221.943 165.826C237.743 154.424 245.926 149.16 262.038 139.415C254.48 134.451 250.695 132.075 243.196 127.53Z" stroke="#292929" stroke-opacity="0.7" stroke-width="1.5" stroke-miterlimit="10" stroke-linejoin="round"/>
<path d="M211.174 298.536C226.661 311.246 234.791 316.853 250.997 326.509C257.04 313.421 260.052 305.274 266.16 287.352C243.757 291.974 232.267 294.173 211.174 298.536Z" stroke="#292929" stroke-opacity="0.7" stroke-width="1.5" stroke-miterlimit="10" stroke-linejoin="round"/>
<path d="M250.99 326.503C256.184 331.68 258.79 334.049 263.989 338.271C280.838 336.384 289.339 335.5 305.445 333.654C284.364 330.654 273.009 329.262 250.99 326.503Z" stroke="#292929" stroke-opacity="0.7" stroke-width="1.5" stroke-miterlimit="10" stroke-linejoin="round"/>
<path d="M287.76 347.543C278.334 344.26 273.547 342.403 263.996 338.264C280.845 336.378 289.346 335.493 305.452 333.648L287.76 347.543Z" stroke="#292929" stroke-opacity="0.7" stroke-width="1.5" stroke-miterlimit="10" stroke-linejoin="round"/>
<path d="M274.266 353.828L263.99 338.271C273.541 342.409 278.328 344.26 287.754 347.55L274.266 353.828Z" stroke="#292929" stroke-opacity="0.7" stroke-width="1.5" stroke-miterlimit="10" stroke-linejoin="round"/>
<path d="M263.995 338.271C249.115 338.247 241.587 338.312 227.049 338.565C236.511 334.15 241.333 331.733 250.996 326.503C256.189 331.68 258.789 334.049 263.995 338.271Z" stroke="#292929" stroke-opacity="0.7" stroke-width="1.5" stroke-miterlimit="10" stroke-linejoin="round"/>
<path d="M263.996 338.271L274.272 353.828C260.718 353.292 250.549 353.834 237.072 353.539L263.996 338.271Z" stroke="#292929" stroke-opacity="0.7" stroke-width="1.5" stroke-miterlimit="10" stroke-linejoin="round"/>
<path d="M263.995 338.27C249.115 338.247 241.587 338.312 227.049 338.565L237.071 353.539L263.995 338.27Z" stroke="#292929" stroke-opacity="0.7" stroke-width="1.5" stroke-miterlimit="10" stroke-linejoin="round"/>
<path d="M250.991 326.503C235.551 326.161 227.81 326.049 213.096 325.867C218.602 331.532 221.396 334.091 227.044 338.565C236.512 334.15 241.334 331.738 250.991 326.503Z" stroke="#292929" stroke-opacity="0.7" stroke-width="1.5" stroke-miterlimit="10" stroke-linejoin="round"/>
<path d="M227.049 338.565C217.34 341.13 212.547 342.374 203.279 344.803C207.188 338.548 209.157 334.686 213.101 325.867C218.607 331.538 221.402 334.091 227.049 338.565Z" stroke="#292929" stroke-opacity="0.7" stroke-width="1.5" stroke-miterlimit="10" stroke-linejoin="round"/>
<path d="M237.065 353.539C222.268 351.216 217.104 351.216 203.279 344.808C212.547 342.379 217.34 341.135 227.049 338.571L237.065 353.539Z" stroke="#292929" stroke-opacity="0.7" stroke-width="1.5" stroke-miterlimit="10" stroke-linejoin="round"/>
<path d="M213.102 325.873C212.371 316.304 211.993 310.716 211.174 298.536C226.661 311.246 234.791 316.853 250.997 326.509C235.557 326.167 227.816 326.055 213.102 325.873Z" stroke="#292929" stroke-opacity="0.7" stroke-width="1.5" stroke-miterlimit="10" stroke-linejoin="round"/>
<path d="M213.101 325.873C199.86 322.937 193.422 321.404 181.543 318.002C192.768 310.615 198.763 306.713 211.173 298.536C211.992 310.71 212.37 316.299 213.101 325.873Z" stroke="#292929" stroke-opacity="0.7" stroke-width="1.5" stroke-miterlimit="10" stroke-linejoin="round"/>
<path d="M184.585 334.255C195.456 330.954 201.233 329.28 213.101 325.872C199.86 322.936 193.422 321.404 181.543 318.002L184.585 334.255Z" stroke="#292929" stroke-opacity="0.7" stroke-width="1.5" stroke-miterlimit="10" stroke-linejoin="round"/>
<path d="M184.586 334.255C191.79 339.113 195.557 341.224 203.28 344.808C207.189 338.553 209.158 334.692 213.102 325.872C201.234 329.28 195.451 330.954 184.586 334.255Z" stroke="#292929" stroke-opacity="0.7" stroke-width="1.5" stroke-miterlimit="10" stroke-linejoin="round"/>
<path d="M181.543 318.002C181.761 297.935 181.679 284.971 181.897 258.866C192.603 275.579 198.828 284.075 211.167 298.536C198.769 306.713 192.768 310.615 181.543 318.002Z" stroke="#292929" stroke-opacity="0.7" stroke-width="1.5" stroke-miterlimit="10" stroke-linejoin="round"/>
<path d="M146.438 295.47C158.452 281.534 165.721 274.117 181.904 258.866C181.686 284.971 181.768 297.935 181.55 318.002L146.438 295.47Z" stroke="#292929" stroke-opacity="0.7" stroke-width="1.5" stroke-miterlimit="10" stroke-linejoin="round"/>
<path d="M181.904 258.866C165.727 274.117 158.452 281.533 146.438 295.47C152.103 275.656 154.974 264.543 160.975 242.194L181.904 258.866Z" stroke="#292929" stroke-opacity="0.7" stroke-width="1.5" stroke-miterlimit="10" stroke-linejoin="round"/>
<path d="M146.438 295.47C152.103 275.656 154.974 264.543 160.976 242.194C147.016 244.9 141.25 246.268 133.574 248.997L146.438 295.47Z" stroke="#292929" stroke-opacity="0.7" stroke-width="1.5" stroke-miterlimit="10" stroke-linejoin="round"/>
<path d="M148.03 221.702C141.209 232.667 138.296 238.173 133.574 248.997C141.25 246.262 147.016 244.894 160.976 242.194C155.328 234.041 152.734 229.92 148.03 221.702Z" stroke="#292929" stroke-opacity="0.7" stroke-width="1.5" stroke-miterlimit="10" stroke-linejoin="round"/>
<path d="M243.196 127.53C219.574 144.756 207.064 156.051 186.689 179.055C199.712 173.755 207.081 170.966 221.944 165.826C230.456 148.753 234.689 140.877 243.196 127.53Z" stroke="#292929" stroke-opacity="0.7" stroke-width="1.5" stroke-miterlimit="10" stroke-linejoin="round"/>
<path d="M243.197 127.53C247.701 110.197 249.93 103.135 254.422 94.563C267.321 95.3883 273.835 95.7362 286.557 96.367L243.197 127.53Z" stroke="#292929" stroke-opacity="0.7" stroke-width="1.5" stroke-miterlimit="10" stroke-linejoin="round"/>
<path d="M254.428 94.563C237.008 102.197 228.265 108.022 211.723 122.914C223.967 124.782 230.358 125.702 243.204 127.53C247.702 110.203 249.93 103.141 254.428 94.563Z" stroke="#292929" stroke-opacity="0.7" stroke-width="1.5" stroke-miterlimit="10" stroke-linejoin="round"/>
<path d="M186.689 179.055C196.01 153.787 201.434 141.301 211.715 122.914C223.96 124.782 230.35 125.702 243.196 127.53C219.574 144.762 207.064 156.057 186.689 179.055Z" stroke="#292929" stroke-opacity="0.7" stroke-width="1.5" stroke-miterlimit="10" stroke-linejoin="round"/>
<path d="M186.69 179.055C180.253 169.894 177.152 165.407 171.197 156.782C185.505 141.72 194.295 134.451 211.716 122.914C201.434 141.307 196.011 153.793 186.69 179.055Z" stroke="#292929" stroke-opacity="0.7" stroke-width="1.5" stroke-miterlimit="10" stroke-linejoin="round"/>
<path d="M171.198 156.788C160.398 181.059 156.006 194.901 148.029 221.708C160.327 204.475 168.256 195.792 186.691 179.061C180.253 169.893 177.152 165.413 171.198 156.788Z" stroke="#292929" stroke-opacity="0.7" stroke-width="1.5" stroke-miterlimit="10" stroke-linejoin="round"/>
<path d="M130.686 206.309C130.827 206.887 133.574 249.003 133.574 249.003C138.296 238.179 141.209 232.673 148.03 221.708L130.686 206.309Z" stroke="#292929" stroke-opacity="0.7" stroke-width="1.5" stroke-miterlimit="10" stroke-linejoin="round"/>
<path d="M148.028 221.702C147.768 197.272 147.432 184.744 146.572 162.206C138.271 179.02 135.141 188.11 130.678 206.303L148.028 221.702Z" stroke="#292929" stroke-opacity="0.7" stroke-width="1.5" stroke-miterlimit="10" stroke-linejoin="round"/>
<path d="M171.197 156.788C159.931 158.987 154.891 160.054 146.572 162.212C147.433 184.75 147.763 197.277 148.028 221.708C156.011 194.901 160.397 181.059 171.197 156.788Z" stroke="#292929" stroke-opacity="0.7" stroke-width="1.5" stroke-miterlimit="10" stroke-linejoin="round"/>
<path d="M254.428 94.563C227.015 99.7627 212.96 102.858 188.771 111.453C197.626 115.839 202.254 118.127 211.722 122.914C228.264 108.022 237.007 102.203 254.428 94.563Z" stroke="#292929" stroke-opacity="0.7" stroke-width="1.5" stroke-miterlimit="10" stroke-linejoin="round"/>
<path d="M286.557 96.3669C273.835 95.742 267.321 95.3883 254.422 94.563L275.044 89.4045L286.557 96.3669Z" stroke="#292929" stroke-opacity="0.7" stroke-width="1.5" stroke-miterlimit="10" stroke-linejoin="round"/>
<path d="M146.578 162.206C154.896 160.054 159.931 158.981 171.203 156.782C177.652 135.777 181.461 125.82 188.777 111.453L146.578 162.206Z" stroke="#292929" stroke-opacity="0.7" stroke-width="1.5" stroke-miterlimit="10" stroke-linejoin="round"/>
<path d="M146.579 162.206C146.178 163.02 127.619 193.21 127.619 193.21C128.727 198.415 129.341 201.039 130.685 206.303C135.147 188.11 138.272 179.02 146.579 162.206Z" stroke="#292929" stroke-opacity="0.7" stroke-width="1.5" stroke-miterlimit="10" stroke-linejoin="round"/>
<path d="M171.197 156.788C177.647 135.783 181.455 125.826 188.771 111.459C197.626 115.845 202.254 118.133 211.722 122.92C194.295 134.451 185.505 141.72 171.197 156.788Z" stroke="#292929" stroke-opacity="0.7" stroke-width="1.5" stroke-miterlimit="10" stroke-linejoin="round"/>
<path d="M184.586 334.256L146.438 295.47L181.544 318.002L184.586 334.256Z" stroke="#292929" stroke-opacity="0.7" stroke-width="1.5" stroke-miterlimit="10" stroke-linejoin="round"/>
<path d="M393.628 197.03L378.666 155.585L379.149 183.453L393.628 197.03Z" stroke="#292929" stroke-opacity="0.7" stroke-width="1.5" stroke-miterlimit="10" stroke-linejoin="round"/>
<path d="M274.266 353.828L318.103 344.384L287.76 347.543L274.266 353.828Z" stroke="#292929" stroke-opacity="0.7" stroke-width="1.5" stroke-miterlimit="10" stroke-linejoin="round"/>
<path d="M133.573 248.997L126.115 220.664L130.684 206.309L133.573 248.997Z" stroke="#292929" stroke-opacity="0.7" stroke-width="1.5" stroke-miterlimit="10" stroke-linejoin="round"/>
<path d="M126.115 220.664L127.619 193.215L130.684 206.309L126.115 220.664Z" stroke="#292929" stroke-opacity="0.7" stroke-width="1.5" stroke-miterlimit="10" stroke-linejoin="round"/>
<path d="M525.001 275.898L306.384 416.278L181.344 149.16L399.955 8.78003L525.001 275.898Z" stroke="#292929" stroke-opacity="0.7" stroke-width="2.5" stroke-miterlimit="10" stroke-linecap="round" stroke-linejoin="round"/>
<path d="M399.954 8.78003L220.818 30.7225L2.20117 171.102L181.343 149.16" stroke="#292929" stroke-opacity="0.7" stroke-width="2.5" stroke-miterlimit="10" stroke-linecap="round" stroke-linejoin="round"/>
<path d="M2.20117 171.102L127.247 438.22L306.383 416.277" stroke="#292929" stroke-opacity="0.7" stroke-width="2.5" stroke-miterlimit="10" stroke-linecap="round" stroke-linejoin="round"/>
<path d="M525 275.898L345.859 297.841L220.818 30.7229" stroke="#292929" stroke-opacity="0.7" stroke-miterlimit="10" stroke-linejoin="round"/>
<path d="M345.859 297.841L127.248 438.22" stroke="#292929" stroke-opacity="0.7" stroke-miterlimit="10" stroke-linejoin="round"/>
</svg>
